<svg width="24" height="24" viewBox="0 0 24 24" fill="none" xmlns="http://www.w3.org/2000/svg">
<path d="M12.0481 6.13476C11.5431 6.13476 11.1091 5.95334 10.7463 5.59051C10.3835 5.22768 10.2021 4.79368 10.2021 4.28851C10.2021 3.78334 10.3835 3.34934 10.7463 2.98651C11.1091 2.62368 11.5431 2.44226 12.0481 2.44226C12.5532 2.44226 12.9872 2.62368 13.3501 2.98651C13.7129 3.34934 13.8943 3.78334 13.8943 4.28851C13.8943 4.79368 13.7129 5.22768 13.3501 5.59051C12.9872 5.95334 12.5532 6.13476 12.0481 6.13476ZM17.1636 21.7693V17C17.1636 16.923 17.1411 16.8621 17.0963 16.8173C17.0513 16.7724 16.9904 16.75 16.9136 16.75H12.0673C11.5815 16.75 11.1651 16.5766 10.8183 16.2298C10.4715 15.8829 10.2981 15.4666 10.2981 14.9808V9.00001C10.2981 8.51418 10.4683 8.10101 10.8088 7.76051C11.1491 7.42018 11.5622 7.25001 12.0481 7.25001C12.3647 7.25001 12.6545 7.32626 12.9173 7.47876C13.1801 7.63143 13.4751 7.89618 13.8021 8.27301C14.7251 9.36668 15.543 10.1161 16.2558 10.5213C16.9686 10.9263 17.7905 11.1628 18.7213 11.2308V12.7308C17.793 12.6794 16.9093 12.4509 16.0703 12.0453C15.2311 11.6394 14.4481 11.0897 13.7213 10.396V14.827H16.8943C17.3801 14.827 17.7965 15.0004 18.1433 15.3473C18.4901 15.6939 18.6636 16.1103 18.6636 16.5963V21.7693H17.1636ZM10.0481 21.7693C8.73523 21.7693 7.61214 21.3026 6.67881 20.3693C5.74548 19.4359 5.27881 18.3128 5.27881 17C5.27881 15.8192 5.65798 14.7897 6.41631 13.9115C7.17464 13.0333 8.13523 12.4968 9.29806 12.302V13.8328C8.57373 14.0148 7.97281 14.3936 7.49531 14.9693C7.01764 15.5449 6.77881 16.2218 6.77881 17C6.77881 17.9103 7.09614 18.6828 7.73081 19.3173C8.36548 19.9519 9.13789 20.2693 10.0481 20.2693C10.8264 20.2693 11.5033 20.0305 12.0788 19.553C12.6545 19.0753 13.0334 18.4743 13.2156 17.75H14.7463C14.5641 18.9 14.0308 19.8573 13.1463 20.622C12.2616 21.3868 11.2289 21.7693 10.0481 21.7693Z" fill="black"/>
</svg>
