<svg width="24" height="24" viewBox="0 0 24 24" fill="none" xmlns="http://www.w3.org/2000/svg">
<path d="M14.8845 20.7307H20.7308V19.973C20.3461 19.5705 19.9003 19.2628 19.3933 19.05C18.8863 18.8372 18.3578 18.7307 17.8078 18.7307C17.2578 18.7307 16.7292 18.8372 16.222 19.05C15.715 19.2628 15.2692 19.5705 14.8845 19.973V20.7307ZM17.8078 17.8077C18.1923 17.8077 18.5192 17.6731 18.7885 17.4038C19.0577 17.1346 19.1923 16.8077 19.1923 16.423C19.1923 16.0385 19.0577 15.7116 18.7885 15.4423C18.5192 15.1731 18.1923 15.0385 17.8078 15.0385C17.4231 15.0385 17.0962 15.1731 16.827 15.4423C16.5577 15.7116 16.423 16.0385 16.423 16.423C16.423 16.8077 16.5577 17.1346 16.827 17.4038C17.0962 17.6731 17.4231 17.8077 17.8078 17.8077ZM12.0115 9C11.1795 9 10.4715 9.292 9.8875 9.876C9.3035 10.46 9.0115 11.168 9.0115 12C9.0115 12.6718 9.19642 13.2597 9.56625 13.7635C9.93625 14.2673 10.4206 14.6263 11.0193 14.8403C11.0256 14.5596 11.0378 14.2891 11.0558 14.0288C11.0738 13.7686 11.1333 13.5321 11.2345 13.3193C10.9885 13.1923 10.8065 13.0089 10.6885 12.7692C10.5705 12.5294 10.5115 12.273 10.5115 12C10.5115 11.5833 10.6573 11.2292 10.949 10.9375C11.2407 10.6458 11.5948 10.5 12.0115 10.5C12.2743 10.5 12.5198 10.5657 12.748 10.697C12.9763 10.8285 13.1623 11.0057 13.3058 11.2288C13.4571 11.1519 13.6151 11.0968 13.7798 11.0635C13.9446 11.0302 14.1109 11.0135 14.2788 11.0135H14.8328C14.6353 10.425 14.2804 9.94233 13.7683 9.5655C13.2561 9.1885 12.6705 9 12.0115 9ZM9.69225 21.5L9.3115 18.4538C9.04367 18.3641 8.769 18.2385 8.4875 18.077C8.20617 17.9153 7.95459 17.7423 7.73275 17.5577L4.9115 18.75L2.604 14.75L5.04425 12.9058C5.02125 12.7571 5.00492 12.6077 4.99525 12.4578C4.98559 12.3077 4.98075 12.1583 4.98075 12.0095C4.98075 11.8673 4.98559 11.7228 4.99525 11.576C5.00492 11.4292 5.02125 11.2686 5.04425 11.0943L2.604 9.25L4.9115 5.26925L7.723 6.452C7.96417 6.261 8.22159 6.08633 8.49525 5.928C8.76892 5.76967 9.03784 5.64242 9.302 5.54625L9.69225 2.5H14.3078L14.6885 5.55575C14.9885 5.66475 15.2599 5.792 15.5028 5.9375C15.7458 6.083 15.991 6.2545 16.2385 6.452L19.0885 5.26925L21.396 9.25L19.1943 10.923C19.2006 10.9358 19.2038 10.9487 19.2038 10.9615C19.2038 10.9743 19.207 10.9872 19.2135 11H17.3615C17.3448 10.9167 17.3298 10.834 17.3163 10.752C17.3029 10.6698 17.2796 10.5871 17.2463 10.5038L19.4345 8.85L18.45 7.15L15.9365 8.2095C15.6018 7.85183 15.2009 7.53583 14.7338 7.2615C14.2664 6.98717 13.7937 6.79292 13.3155 6.67875L13 4H11.0155L10.6845 6.66925C10.1743 6.78975 9.70325 6.97433 9.27125 7.223C8.83909 7.47183 8.42684 7.79233 8.0345 8.1845L5.55 7.15L4.5655 8.85L6.725 10.4595C6.64167 10.6968 6.58334 10.9437 6.55 11.2C6.51667 11.4563 6.5 11.7262 6.5 12.0095C6.5 12.2698 6.51667 12.525 6.55 12.775C6.58334 13.025 6.6385 13.2718 6.7155 13.5155L4.5655 15.15L5.55 16.85L8.025 15.8C8.425 16.2103 8.87659 16.5523 9.37975 16.826C9.88292 17.0997 10.423 17.2878 11 17.3905V21.5H9.69225ZM14.577 22.423C14.1923 22.423 13.8654 22.2884 13.5963 22.0193C13.3269 21.7499 13.1923 21.423 13.1923 21.0385V14.577C13.1923 14.1923 13.3269 13.8654 13.5963 13.5963C13.8654 13.3269 14.1923 13.1923 14.577 13.1923H21.0385C21.423 13.1923 21.7499 13.3269 22.0193 13.5963C22.2884 13.8654 22.423 14.1923 22.423 14.577V21.0385C22.423 21.423 22.2884 21.7499 22.0193 22.0193C21.7499 22.2884 21.423 22.423 21.0385 22.423H14.577Z" fill="black"/>
</svg>
