<svg width="24" height="24" viewBox="0 0 24 24" fill="none" xmlns="http://www.w3.org/2000/svg">
<path d="M15.7712 9.65053L15.7317 9.67027C15.6132 9.81835 15.4849 9.96642 15.3467 10.1046L14.7346 10.7167L13.3921 9.26553L13.9548 8.70285C15.0407 7.61697 15.0407 5.86969 13.9548 4.7838C12.8689 3.69792 11.1216 3.69792 10.0357 4.7838C9.61126 5.20829 9.35459 5.74135 9.26575 6.2843C8.65371 6.01776 8.00218 5.84994 7.35065 5.79071C7.52834 4.91214 7.96269 4.07305 8.64384 3.3919C10.4997 1.53603 13.5007 1.53603 15.3566 3.3919C16.8768 4.91214 17.1532 7.21223 16.1759 9.00887C16.0772 9.21617 15.9489 9.43335 15.781 9.64066L15.7712 9.65053Z" fill="#7D58DA"/>
<path d="M15.3566 20.6081C16.0377 19.927 16.4721 19.0879 16.6498 18.2093C15.9982 18.1501 15.3467 17.9822 14.7347 17.7157C14.6458 18.2685 14.3892 18.7917 13.9647 19.2162C12.8788 20.3021 11.1315 20.3021 10.0456 19.2162C9.62116 18.7917 9.36449 18.2586 9.27565 17.7157C8.66361 17.9822 8.01208 18.1501 7.36055 18.2093C7.53824 19.0879 7.97259 19.927 8.65373 20.6081C10.5096 22.464 13.5106 22.464 15.3665 20.6081H15.3566Z" fill="#7D58DA"/>
<path d="M14.3497 13.0464L14.1029 12.7799L13.4415 12.0395L12.3458 10.8648L10.1246 8.64369C8.26877 6.78782 5.26779 6.78782 3.41192 8.64369C1.55605 10.4996 1.55605 13.5005 3.41192 15.3564C5.26779 17.2123 8.26877 17.2123 10.1246 15.3564L10.6577 14.8233L9.31517 13.3722L8.72287 13.9645C7.63699 15.0504 5.8897 15.0504 4.80382 13.9645C3.71794 12.8786 3.71794 11.1313 4.80382 10.0455C5.8897 8.95958 7.63699 8.95958 8.72287 10.0455L9.79888 11.0622L10.5195 11.8421L10.5787 11.9112L12.1582 13.619L13.8463 15.3465C15.6824 17.2123 18.6932 17.2419 20.559 15.4058C22.4247 13.5696 22.4543 10.5588 20.6182 8.69304C19.9469 8.0119 19.1177 7.56768 18.2391 7.38012C18.17 8.04152 18.0022 8.68317 17.7258 9.29521C18.2687 9.39393 18.8018 9.66047 19.2164 10.0849C20.2826 11.1807 20.2727 12.928 19.1769 14.004C18.0812 15.0701 16.3339 15.0603 15.2579 13.9645L14.3497 13.0464Z" fill="#7D58DA"/>
</svg>
