<svg width="24" height="24" viewBox="0 0 24 24" fill="none" xmlns="http://www.w3.org/2000/svg">
<path d="M12.0002 21.5C10.8207 21.5 9.71559 21.2769 8.68492 20.8307C7.65409 20.3846 6.75534 19.7782 5.98867 19.0115C5.22201 18.2448 4.61559 17.3461 4.16942 16.3152C3.72326 15.2846 3.50017 14.1795 3.50017 13C3.50017 11.8205 3.72326 10.7154 4.16942 9.68474C4.61559 8.65391 5.22201 7.75516 5.98867 6.98849C6.75534 6.22182 7.65409 5.61541 8.68492 5.16924C9.71559 4.72307 10.8207 4.49999 12.0002 4.49999C13.1797 4.49999 14.2848 4.72307 15.3154 5.16924C16.3463 5.61541 17.245 6.22182 18.0117 6.98849C18.7783 7.75516 19.3848 8.65391 19.8309 9.68474C20.2771 10.7154 20.5002 11.8205 20.5002 13C20.5002 14.1795 20.2771 15.2846 19.8309 16.3152C19.3848 17.3461 18.7783 18.2448 18.0117 19.0115C17.245 19.7782 16.3463 20.3846 15.3154 20.8307C14.2848 21.2769 13.1797 21.5 12.0002 21.5ZM14.9732 17.027L16.0272 15.973L12.7502 12.6962V7.99999H11.2502V13.3037L14.9732 17.027ZM5.75392 2.88849L6.80792 3.94224L2.94242 7.80774L1.88867 6.75374L5.75392 2.88849ZM18.2464 2.88849L22.1117 6.75374L21.0579 7.80774L17.1924 3.94224L18.2464 2.88849ZM12.0002 20C13.9438 20 15.5964 19.3192 16.9579 17.9577C18.3194 16.5962 19.0002 14.9437 19.0002 13C19.0002 11.0563 18.3194 9.40374 16.9579 8.04224C15.5964 6.68074 13.9438 5.99999 12.0002 5.99999C10.0565 5.99999 8.40392 6.68074 7.04242 8.04224C5.68092 9.40374 5.00017 11.0563 5.00017 13C5.00017 14.9437 5.68092 16.5962 7.04242 17.9577C8.40392 19.3192 10.0565 20 12.0002 20Z" fill="black"/>
</svg>
