<svg width="24" height="24" viewBox="0 0 24 24" fill="none" xmlns="http://www.w3.org/2000/svg">
<path d="M3.37147 16.025L1.46572 14.1693C1.25922 13.9692 1.15755 13.7311 1.16072 13.4548C1.16405 13.1786 1.26888 12.9373 1.47522 12.7308C2.85855 11.2756 4.48088 10.165 6.34222 9.399C8.20355 8.633 10.0891 8.25 11.999 8.25C13.9088 8.25 15.7922 8.633 17.6492 9.399C19.5062 10.165 21.1315 11.2756 22.5252 12.7308C22.7316 12.9373 22.8364 13.1786 22.8397 13.4548C22.8429 13.7311 22.7412 13.9692 22.5347 14.1693L20.629 16.025C20.4265 16.2212 20.1996 16.3307 19.9482 16.3538C19.6971 16.3769 19.4651 16.3103 19.2522 16.1537L16.7367 14.2422C16.5714 14.1166 16.449 13.9773 16.3695 13.8243C16.29 13.6713 16.2502 13.4991 16.2502 13.3078V10.4865C15.5272 10.2417 14.8227 10.0577 14.1367 9.9345C13.4509 9.8115 12.7387 9.75 12.0002 9.75C11.2617 9.75 10.5496 9.8115 9.86372 9.9345C9.17772 10.0577 8.47322 10.2417 7.75022 10.4865V13.3078C7.75022 13.4991 7.71047 13.6713 7.63097 13.8243C7.55147 13.9773 7.42905 14.1166 7.26372 14.2422L4.74822 16.1537C4.53538 16.3103 4.30338 16.3769 4.05222 16.3538C3.80088 16.3307 3.57397 16.2212 3.37147 16.025ZM6.25022 11.0652C5.65155 11.3537 5.07272 11.6942 4.51372 12.0865C3.95472 12.4788 3.43355 12.891 2.95022 13.323C2.91822 13.3552 2.90222 13.3872 2.90222 13.4193C2.90222 13.4512 2.91822 13.4833 2.95022 13.5155L4.04647 14.602C4.07847 14.634 4.11847 14.6548 4.16647 14.6645C4.21463 14.674 4.25797 14.6628 4.29647 14.6308L6.13497 13.2213C6.16697 13.1956 6.19413 13.1635 6.21647 13.125C6.23897 13.0865 6.25022 13.0512 6.25022 13.0192V11.0652ZM17.7502 11.096V13.0192C17.7502 13.0512 17.7615 13.0865 17.784 13.125C17.8063 13.1635 17.8335 13.1956 17.8655 13.2213L19.704 14.6308C19.7425 14.6628 19.7858 14.674 19.834 14.6645C19.882 14.6548 19.922 14.634 19.954 14.602L21.0502 13.5463C21.0822 13.5141 21.0982 13.482 21.0982 13.45C21.0982 13.418 21.0822 13.3859 21.0502 13.3537C20.5669 12.9012 20.0457 12.4814 19.4867 12.0942C18.9277 11.7071 18.3489 11.3743 17.7502 11.096Z" fill="black"/>
</svg>
