<svg width="24" height="24" viewBox="0 0 24 24" fill="none" xmlns="http://www.w3.org/2000/svg">
<path d="M7.5 3.5C8.373 3.5 9.198 3.70417 9.975 4.1125C10.752 4.52083 11.427 5.10642 12 5.86925C12.573 5.10642 13.248 4.52083 14.025 4.1125C14.802 3.70417 15.627 3.5 16.5 3.5C17.9192 3.5 19.1073 3.9785 20.0645 4.9355C21.0215 5.89267 21.5 7.08083 21.5 8.5C21.5 8.59617 21.4958 8.68908 21.4875 8.77875C21.4792 8.86858 21.4718 8.96158 21.4653 9.05775H19.9655C19.9822 8.96158 19.9921 8.86858 19.9953 8.77875C19.9984 8.68908 20 8.59617 20 8.5C20 7.5 19.6667 6.66667 19 6C18.3333 5.33333 17.5 5 16.5 5C15.7103 5 14.9805 5.224 14.3105 5.672C13.6407 6.12017 13.1102 6.74358 12.7192 7.54225H11.2808C10.8833 6.73708 10.3512 6.11208 9.6845 5.66725C9.01783 5.22242 8.28967 5 7.5 5C6.50633 5 5.67458 5.33333 5.00475 6C4.33492 6.66667 4 7.5 4 8.5C4 8.59617 4.00158 8.68908 4.00475 8.77875C4.00792 8.86858 4.01783 8.96158 4.0345 9.05775H2.53475C2.52825 8.96158 2.52083 8.86858 2.5125 8.77875C2.50417 8.68908 2.5 8.59617 2.5 8.5C2.5 7.08083 2.9785 5.89267 3.9355 4.9355C4.89267 3.9785 6.08083 3.5 7.5 3.5ZM5.954 14.9423H8.052C8.58533 15.4654 9.17508 16.0318 9.82125 16.6413C10.4674 17.2509 11.1937 17.9205 12 18.65C12.8063 17.9205 13.5326 17.2509 14.1788 16.6413C14.8249 16.0318 15.4147 15.4654 15.948 14.9423H18.0615C17.4473 15.5974 16.7342 16.3109 15.922 17.0828C15.1098 17.8544 14.1704 18.7217 13.1038 19.6845L12 20.6768L10.8963 19.6845C9.82958 18.7217 8.89267 17.8544 8.0855 17.0828C7.2785 16.3109 6.568 15.5974 5.954 14.9423ZM11.05 15.75C11.209 15.75 11.3453 15.7035 11.4588 15.6105C11.5721 15.5177 11.6557 15.3968 11.7095 15.248L13.223 10.6923L14.3288 12.348C14.4121 12.4685 14.5192 12.5657 14.65 12.6395C14.7808 12.7132 14.9232 12.75 15.077 12.75H22.75V11.25H15.4115L13.6288 8.59425C13.5544 8.48275 13.4573 8.39908 13.3375 8.34325C13.2177 8.28758 13.0885 8.25975 12.95 8.25975C12.791 8.25975 12.6532 8.30617 12.5365 8.399C12.4198 8.492 12.3378 8.61283 12.2905 8.7615L10.777 13.3115L9.66725 11.652C9.58392 11.5315 9.47692 11.4343 9.34625 11.3605C9.21542 11.2868 9.07308 11.25 8.91925 11.25H1.25V12.75H8.56925L10.3615 15.4152C10.4358 15.5332 10.5346 15.6186 10.6578 15.6713C10.7808 15.7238 10.9115 15.75 11.05 15.75Z" fill="black"/>
</svg>
