<svg width="24" height="24" viewBox="0 0 24 24" fill="none" xmlns="http://www.w3.org/2000/svg">
<path d="M17 15.8173C16.2628 15.8173 15.6363 15.5593 15.1202 15.0433C14.6042 14.5273 14.3462 13.9007 14.3462 13.1635C14.3462 12.4263 14.6042 11.7998 15.1202 11.2838C15.6363 10.7678 16.2628 10.5098 17 10.5098C17.7372 10.5098 18.3638 10.7678 18.8798 11.2838C19.3958 11.7998 19.6538 12.4263 19.6538 13.1635C19.6538 13.9007 19.3958 14.5273 18.8798 15.0433C18.3638 15.5593 17.7372 15.8173 17 15.8173ZM11.3463 22.2693V19.7153C11.3463 19.4257 11.4153 19.1535 11.5533 18.8985C11.6912 18.6435 11.8844 18.4402 12.1328 18.2885C12.6309 17.9913 13.1563 17.745 13.709 17.5495C14.2617 17.354 14.826 17.2093 15.402 17.1155L17 19.125L18.5885 17.1155C19.1677 17.2093 19.7312 17.354 20.279 17.5495C20.8267 17.745 21.351 17.9913 21.852 18.2885C22.1007 18.4397 22.2948 18.6423 22.4345 18.8962C22.5743 19.1501 22.6474 19.4199 22.6538 19.7057V22.2693H11.3463ZM8.9615 19.7153V20.5H5.31225C4.81058 20.5 4.38308 20.323 4.02975 19.969C3.67658 19.615 3.5 19.1894 3.5 18.6923V5.30775C3.5 4.81058 3.677 4.385 4.031 4.031C4.385 3.677 4.81058 3.5 5.30775 3.5H18.6923C19.1894 3.5 19.615 3.677 19.969 4.031C20.323 4.385 20.5 4.81058 20.5 5.30775V9.65375C20.0282 9.15758 19.5041 8.77875 18.9277 8.51725C18.3516 8.25575 17.709 8.125 17 8.125C16.9552 8.125 16.9135 8.12658 16.875 8.12975C16.8365 8.13308 16.7948 8.13792 16.75 8.14425V7.3655H7.25V8.86525H14.4615C13.9872 9.13192 13.5702 9.46725 13.2105 9.87125C12.851 10.2751 12.5635 10.7347 12.348 11.25H7.25V12.75H12.0095C11.9775 13.132 11.9878 13.5105 12.0405 13.8855C12.093 14.2605 12.1859 14.6288 12.3193 14.9905C12.2616 15.016 12.2055 15.04 12.151 15.0625C12.0965 15.085 12.0436 15.1091 11.9923 15.1348H7.25V16.6345H10.373C9.9295 17.0178 9.58333 17.4803 9.3345 18.022C9.08583 18.5637 8.9615 19.1281 8.9615 19.7153Z" fill="black"/>
</svg>
