<svg width="24" height="24" viewBox="0 0 24 24" fill="none" xmlns="http://www.w3.org/2000/svg">
<path d="M16.2553 20.5L15.211 19.4557L17.311 17.3558L15.211 15.2558L16.2553 14.2115L18.3553 16.3115L20.4553 14.2115L21.4995 15.2558L19.4245 17.3558L21.4995 19.4557L20.4553 20.5L18.3553 18.425L16.2553 20.5ZM11.9803 20.5C9.81496 20.5 7.92779 19.7872 6.31879 18.3615C4.70979 16.9358 3.78354 15.1487 3.54004 13H5.07079C5.32329 14.727 6.10054 16.1588 7.40254 17.2952C8.70437 18.4318 10.2303 19 11.9803 19C12.1636 19 12.3393 18.9958 12.5073 18.9875C12.6751 18.9792 12.8456 18.9583 13.0188 18.925V20.4403C12.8456 20.4634 12.6751 20.4792 12.5073 20.4875C12.3393 20.4958 12.1636 20.5 11.9803 20.5ZM3.98029 9.23075V4.15375H5.48029V6.523C6.29179 5.56533 7.26362 4.82208 8.39579 4.29325C9.52779 3.76442 10.7226 3.5 11.9803 3.5C14.3393 3.5 16.3457 4.32692 17.9995 5.98075C19.6534 7.63458 20.4803 9.641 20.4803 12V12.1348H18.9803V12C18.9803 10.05 18.3011 8.39583 16.9428 7.0375C15.5845 5.67917 13.9303 5 11.9803 5C10.888 5 9.86429 5.24267 8.90929 5.728C7.95412 6.21317 7.13162 6.88075 6.44179 7.73075H9.05729V9.23075H3.98029ZM13.638 14.6827L11.2593 12.3038V7H12.759V11.6962L14.4283 13.3655L13.638 14.6827Z" fill="black"/>
</svg>
