<svg width="24" height="24" viewBox="0 0 24 24" fill="none" xmlns="http://www.w3.org/2000/svg">
<path d="M16.9037 2.625C17.8692 2.6315 18.6939 2.97508 19.3777 3.65575C20.0617 4.33658 20.4037 5.15967 20.4037 6.125C20.4037 6.2955 20.3928 6.5285 20.3709 6.824C20.3493 7.1195 20.3134 7.46408 20.2634 7.85775L18.8787 17.9327C18.8147 18.4442 18.5849 18.8583 18.1894 19.175C17.7939 19.4917 17.3404 19.65 16.8287 19.65C16.5032 19.65 16.2084 19.5715 15.9442 19.4145C15.68 19.2573 15.4557 19.0512 15.2712 18.796L12.4519 14.8287C12.3993 14.7492 12.3323 14.689 12.2509 14.648C12.1694 14.607 12.0774 14.5865 11.9749 14.5865C11.8826 14.5865 11.7236 14.6839 11.4979 14.8787L8.75369 18.721C8.55252 18.9967 8.31152 19.2204 8.03069 19.3922C7.74986 19.5641 7.44669 19.65 7.12119 19.65C6.60952 19.65 6.16011 19.4875 5.77294 19.1625C5.38577 18.8375 5.16019 18.4192 5.09619 17.9077L3.73644 7.85775C3.68644 7.46408 3.65061 7.1195 3.62894 6.824C3.60711 6.5285 3.59619 6.2955 3.59619 6.125C3.59619 5.15967 3.93819 4.335 4.62219 3.651C5.30602 2.967 6.13069 2.625 7.09619 2.625C7.63836 2.625 8.08544 2.70417 8.43744 2.8625C8.78944 3.02083 9.13211 3.19167 9.46544 3.375C9.79877 3.55833 10.1577 3.72917 10.5422 3.8875C10.9269 4.04583 11.4128 4.125 11.9999 4.125C12.5936 4.125 13.0843 4.04583 13.4719 3.8875C13.8598 3.72917 14.2204 3.55833 14.5537 3.375C14.887 3.19167 15.2306 3.02083 15.5844 2.8625C15.9384 2.70417 16.3782 2.625 16.9037 2.625ZM16.9037 4.125C16.5204 4.125 16.1829 4.20417 15.8912 4.3625C15.5995 4.52083 15.2819 4.69167 14.9384 4.875C14.5948 5.05833 14.196 5.22917 13.7422 5.3875C13.2884 5.54583 12.7076 5.625 11.9999 5.625C11.3051 5.625 10.7308 5.54583 10.2769 5.3875C9.82311 5.22917 9.42436 5.05833 9.08069 4.875C8.73719 4.69167 8.41636 4.52083 8.11819 4.3625C7.82019 4.20417 7.47952 4.125 7.09619 4.125C6.54619 4.125 6.07536 4.32083 5.68369 4.7125C5.29202 5.10417 5.09619 5.575 5.09619 6.125C5.09619 6.25833 5.10452 6.45 5.12119 6.7C5.13786 6.95 5.17119 7.24167 5.22119 7.575L6.59619 17.7C6.61286 17.8333 6.67119 17.9375 6.77119 18.0125C6.87119 18.0875 6.98786 18.125 7.12119 18.125C7.22369 18.125 7.31311 18.0939 7.38944 18.0317C7.46561 17.9696 7.53002 17.8955 7.58269 17.8095L10.2614 14.0327C10.4628 13.7506 10.7147 13.5223 11.0172 13.348C11.3199 13.1737 11.6474 13.0865 11.9999 13.0865C12.3461 13.0865 12.672 13.1737 12.9777 13.348C13.2835 13.5223 13.5371 13.7506 13.7384 14.0327L16.4577 17.8845C16.5102 17.9538 16.5663 18.0154 16.6259 18.0692C16.6854 18.1231 16.7614 18.15 16.8537 18.15C16.987 18.15 17.1079 18.1125 17.2162 18.0375C17.3245 17.9625 17.387 17.8583 17.4037 17.725L18.7787 7.575C18.8287 7.24167 18.862 6.95 18.8787 6.7C18.8954 6.45 18.9037 6.25833 18.9037 6.125C18.9037 5.575 18.7079 5.10417 18.3162 4.7125C17.9245 4.32083 17.4537 4.125 16.9037 4.125Z" fill="black"/>
</svg>
