<svg width="24" height="24" viewBox="0 0 24 24" fill="none" xmlns="http://www.w3.org/2000/svg">
<path d="M12.0002 22.423C11.5144 22.423 11.1012 22.2528 10.7607 21.9125C10.4204 21.5721 10.2502 21.159 10.2502 20.673C10.2502 20.1871 10.4204 19.7741 10.7607 19.4337C11.1012 19.0932 11.5144 18.923 12.0002 18.923C12.4861 18.923 12.8992 19.0932 13.2397 19.4337C13.5801 19.7741 13.7502 20.1871 13.7502 20.673C13.7502 21.159 13.5801 21.5721 13.2397 21.9125C12.8992 22.2528 12.4861 22.423 12.0002 22.423ZM6.11572 4.92297C5.62972 4.92297 5.21656 4.75281 4.87622 4.41247C4.53589 4.07214 4.36572 3.65897 4.36572 3.17297C4.36572 2.68714 4.53589 2.27406 4.87622 1.93372C5.21656 1.59322 5.62972 1.42297 6.11572 1.42297C6.60156 1.42297 7.01464 1.59322 7.35497 1.93372C7.69531 2.27406 7.86547 2.68714 7.86547 3.17297C7.86547 3.65897 7.69531 4.07214 7.35497 4.41247C7.01464 4.75281 6.60156 4.92297 6.11572 4.92297ZM6.11572 10.8077C5.62972 10.8077 5.21656 10.6375 4.87622 10.297C4.53589 9.95664 4.36572 9.54356 4.36572 9.05772C4.36572 8.57172 4.53589 8.15856 4.87622 7.81822C5.21656 7.47789 5.62972 7.30772 6.11572 7.30772C6.60156 7.30772 7.01464 7.47789 7.35497 7.81822C7.69531 8.15856 7.86547 8.57172 7.86547 9.05772C7.86547 9.54356 7.69531 9.95664 7.35497 10.297C7.01464 10.6375 6.60156 10.8077 6.11572 10.8077ZM6.11572 16.6922C5.62972 16.6922 5.21656 16.5221 4.87622 16.1817C4.53589 15.8414 4.36572 15.4282 4.36572 14.9422C4.36572 14.4564 4.53589 14.0433 4.87622 13.703C5.21656 13.3625 5.62972 13.1922 6.11572 13.1922C6.60156 13.1922 7.01464 13.3625 7.35497 13.703C7.69531 14.0433 7.86547 14.4564 7.86547 14.9422C7.86547 15.4282 7.69531 15.8414 7.35497 16.1817C7.01464 16.5221 6.60156 16.6922 6.11572 16.6922ZM17.8847 4.92297C17.3989 4.92297 16.9858 4.75281 16.6455 4.41247C16.3051 4.07214 16.135 3.65897 16.135 3.17297C16.135 2.68714 16.3051 2.27406 16.6455 1.93372C16.9858 1.59322 17.3989 1.42297 17.8847 1.42297C18.3707 1.42297 18.7839 1.59322 19.1242 1.93372C19.4646 2.27406 19.6347 2.68714 19.6347 3.17297C19.6347 3.65897 19.4646 4.07214 19.1242 4.41247C18.7839 4.75281 18.3707 4.92297 17.8847 4.92297ZM12.0002 16.6922C11.5144 16.6922 11.1012 16.5221 10.7607 16.1817C10.4204 15.8414 10.2502 15.4282 10.2502 14.9422C10.2502 14.4564 10.4204 14.0433 10.7607 13.703C11.1012 13.3625 11.5144 13.1922 12.0002 13.1922C12.4861 13.1922 12.8992 13.3625 13.2397 13.703C13.5801 14.0433 13.7502 14.4564 13.7502 14.9422C13.7502 15.4282 13.5801 15.8414 13.2397 16.1817C12.8992 16.5221 12.4861 16.6922 12.0002 16.6922ZM17.8847 16.6922C17.3989 16.6922 16.9858 16.5221 16.6455 16.1817C16.3051 15.8414 16.135 15.4282 16.135 14.9422C16.135 14.4564 16.3051 14.0433 16.6455 13.703C16.9858 13.3625 17.3989 13.1922 17.8847 13.1922C18.3707 13.1922 18.7839 13.3625 19.1242 13.703C19.4646 14.0433 19.6347 14.4564 19.6347 14.9422C19.6347 15.4282 19.4646 15.8414 19.1242 16.1817C18.7839 16.5221 18.3707 16.6922 17.8847 16.6922ZM17.8847 10.8077C17.3989 10.8077 16.9858 10.6375 16.6455 10.297C16.3051 9.95664 16.135 9.54356 16.135 9.05772C16.135 8.57172 16.3051 8.15856 16.6455 7.81822C16.9858 7.47789 17.3989 7.30772 17.8847 7.30772C18.3707 7.30772 18.7839 7.47789 19.1242 7.81822C19.4646 8.15856 19.6347 8.57172 19.6347 9.05772C19.6347 9.54356 19.4646 9.95664 19.1242 10.297C18.7839 10.6375 18.3707 10.8077 17.8847 10.8077ZM12.0002 10.8077C11.5144 10.8077 11.1012 10.6375 10.7607 10.297C10.4204 9.95664 10.2502 9.54356 10.2502 9.05772C10.2502 8.57172 10.4204 8.15856 10.7607 7.81822C11.1012 7.47789 11.5144 7.30772 12.0002 7.30772C12.4861 7.30772 12.8992 7.47789 13.2397 7.81822C13.5801 8.15856 13.7502 8.57172 13.7502 9.05772C13.7502 9.54356 13.5801 9.95664 13.2397 10.297C12.8992 10.6375 12.4861 10.8077 12.0002 10.8077ZM12.0002 4.92297C11.5144 4.92297 11.1012 4.75281 10.7607 4.41247C10.4204 4.07214 10.2502 3.65897 10.2502 3.17297C10.2502 2.68714 10.4204 2.27406 10.7607 1.93372C11.1012 1.59322 11.5144 1.42297 12.0002 1.42297C12.4861 1.42297 12.8992 1.59322 13.2397 1.93372C13.5801 2.27406 13.7502 2.68714 13.7502 3.17297C13.7502 3.65897 13.5801 4.07214 13.2397 4.41247C12.8992 4.75281 12.4861 4.92297 12.0002 4.92297Z" fill="black"/>
</svg>
