<svg width="24" height="24" viewBox="0 0 24 24" fill="none" xmlns="http://www.w3.org/2000/svg">
<path d="M12 1.59625L20.7808 6.823C21.0037 6.968 21.1794 7.15875 21.3078 7.39525C21.4359 7.63175 21.5 7.88334 21.5 8.15V18.6923C21.5 19.1974 21.325 19.625 20.975 19.975C20.625 20.325 20.1974 20.5 19.6923 20.5H4.30775C3.80258 20.5 3.375 20.325 3.025 19.975C2.675 19.625 2.5 19.1974 2.5 18.6923V8.15C2.5 7.88334 2.56408 7.63175 2.69225 7.39525C2.82058 7.15875 2.99625 6.968 3.21925 6.823L12 1.59625ZM12 12.65L19.8 8L12 3.35L4.2 8L12 12.65Z" fill="black"/>
</svg>
