<svg width="24" height="24" viewBox="0 0 24 24" fill="none" xmlns="http://www.w3.org/2000/svg">
<path d="M3 19.997L4.98448 14.9515L7.99474 17.9446L3.00745 20L3 19.997ZM8.69847 17.3839L5.53166 14.2392L14.4044 5.41284L14.6116 5.20433L14.4059 5.41284L17.5727 8.56172L8.69997 17.3809L8.69847 17.3839ZM18.2079 7.93466L15.041 4.78427L16.3084 3.52073C16.6476 3.18675 17.1023 3 17.5757 3C18.049 3 18.5038 3.18675 18.843 3.52073L19.4767 4.15231C19.6427 4.31657 19.7742 4.51305 19.8643 4.7296C19.9544 4.94615 20 5.17865 20 5.4136C20 5.64854 19.9544 5.88104 19.8643 6.09759C19.7742 6.31415 19.6427 6.51024 19.4767 6.6745L18.2108 7.93315L18.2079 7.93466Z" fill="black"/>
</svg>
