<svg width="24" height="24" viewBox="0 0 24 24" fill="none" xmlns="http://www.w3.org/2000/svg">
<path d="M7.77888 22.8365L6.58288 21.9347L9.48088 18.152L9.26938 13.327C9.21805 12.6885 9.24688 11.9882 9.35588 11.226C9.46488 10.4638 9.64122 9.75708 9.88488 9.10575L7.81738 10.2962V13.75H6.31738V9.43475L10.5636 6.9635C10.9226 6.76216 11.2386 6.607 11.5116 6.498C11.7848 6.38916 12.0386 6.33475 12.2731 6.33475C12.6578 6.33475 13.0081 6.49141 13.3241 6.80475C13.6401 7.11825 13.9943 7.60708 14.3866 8.27125C14.92 9.17125 15.4113 9.84941 15.8606 10.3057C16.31 10.7622 16.8263 11.152 17.4096 11.475C17.561 11.3225 17.7145 11.2116 17.8704 11.1422C18.026 11.0731 18.2052 11.0385 18.4079 11.0385C18.8117 11.0385 19.154 11.1788 19.4346 11.4595C19.7155 11.7403 19.8559 12.0743 19.8559 12.4615V22.8462H18.9714V12.4615C18.9714 12.3153 18.9181 12.1891 18.8116 12.0827C18.7053 11.9762 18.579 11.923 18.4329 11.923C18.2867 11.923 18.1604 11.9762 18.0539 12.0827C17.9475 12.1891 17.8944 12.3153 17.8944 12.4615V13.4135H17.0096V12.9385C16.1161 12.4782 15.4178 12.0057 14.9146 11.521C14.4113 11.0365 13.9327 10.3622 13.4789 9.498C13.2122 10.1122 13.0087 10.8032 12.8684 11.5712C12.728 12.3391 12.6841 13.0391 12.7366 13.6712L14.7214 16.8077V22.8462H13.2214V17.875L11.1481 14.9402L10.9906 18.6635L7.77888 22.8365ZM13.4906 5.34625C12.9855 5.34625 12.5515 5.16483 12.1886 4.802C11.8258 4.43916 11.6444 4.00516 11.6444 3.5C11.6444 2.99483 11.8258 2.56083 12.1886 2.198C12.5515 1.83516 12.9855 1.65375 13.4906 1.65375C13.9956 1.65375 14.4295 1.83516 14.7924 2.198C15.1552 2.56083 15.3366 2.99483 15.3366 3.5C15.3366 4.00516 15.1552 4.43916 14.7924 4.802C14.4295 5.16483 13.9956 5.34625 13.4906 5.34625Z" fill="black"/>
</svg>
