<svg width="24" height="24" viewBox="0 0 24 24" fill="none" xmlns="http://www.w3.org/2000/svg">
<path d="M7.50018 22.8463L6.29443 21.9538L8.62518 18.7115H6.36568C6.41685 17.7692 6.60018 16.5935 6.91568 15.1845C7.23102 13.7755 7.64635 12.4091 8.16168 11.0853C8.67718 9.74643 9.2791 8.60901 9.96743 7.67301C10.6559 6.73718 11.3925 6.26926 12.1772 6.26926C12.704 6.26926 13.0898 6.43693 13.3347 6.77226C13.5797 7.10743 13.8983 7.60709 14.2904 8.27126C14.8238 9.17126 15.3152 9.84943 15.7647 10.3058C16.214 10.7623 16.7303 11.152 17.3137 11.475C17.4648 11.3225 17.6184 11.2116 17.7742 11.1423C17.93 11.0731 18.1092 11.0385 18.3117 11.0385C18.7155 11.0385 19.0578 11.1788 19.3387 11.4595C19.6193 11.7403 19.7597 12.0743 19.7597 12.4615V22.8463H18.8752V12.4615C18.8752 12.318 18.8213 12.1923 18.7137 12.0845C18.606 11.9768 18.4804 11.923 18.3367 11.923C18.1932 11.923 18.0675 11.9768 17.9597 12.0845C17.852 12.1923 17.7982 12.318 17.7982 12.4615V13.4135H16.9137V12.9385C16.261 12.55 15.5982 12.0493 14.9252 11.4365C14.252 10.8237 13.7379 10.1775 13.3829 9.49801L12.6347 13.0095L14.6444 18.571V22.8463H13.1444V18.7115H10.5002L7.50018 22.8463ZM13.3944 5.34626C12.8868 5.34626 12.4522 5.16543 12.0907 4.80376C11.729 4.44226 11.5482 4.00768 11.5482 3.50001C11.5482 3.40518 11.5784 3.22118 11.6387 2.94801C11.4745 2.87118 11.3415 2.75926 11.2397 2.61226C11.1377 2.46543 11.0867 2.29918 11.0867 2.11351C11.0867 1.85068 11.1752 1.63143 11.3522 1.45576C11.529 1.28009 11.7482 1.19226 12.0097 1.19226C12.1949 1.19226 12.3607 1.24326 12.5072 1.34526C12.6539 1.44709 12.7659 1.58009 12.8434 1.74426C12.9364 1.71093 13.0288 1.68751 13.1204 1.67401C13.2121 1.66051 13.3038 1.65376 13.3954 1.65376C13.8999 1.65376 14.3336 1.83459 14.6964 2.19626C15.0591 2.55776 15.2404 2.99234 15.2404 3.50001C15.2404 4.00768 15.0597 4.44226 14.6982 4.80376C14.3367 5.16543 13.9021 5.34626 13.3944 5.34626Z" fill="black"/>
</svg>
