<svg width="24" height="24" viewBox="0 0 24 24" fill="none" xmlns="http://www.w3.org/2000/svg">
<path d="M15.0195 20.5C13.072 20.5 11.3716 19.9528 9.91847 18.8585C8.46531 17.7643 7.44772 16.3628 6.86572 14.6538H3.36572V13.1538H6.54072C6.47789 12.7603 6.45064 12.3542 6.45897 11.9355C6.46731 11.517 6.49456 11.1539 6.54072 10.8462H3.36572V9.34625H6.88497C7.46047 7.63725 8.47322 6.23567 9.92322 5.1415C11.3732 4.04717 13.072 3.5 15.0195 3.5C16.0925 3.5 17.1078 3.68333 18.0655 4.05C19.0233 4.41667 19.883 4.92308 20.6445 5.56925L19.5752 6.6135C18.9522 6.10583 18.2548 5.71 17.483 5.426C16.7111 5.142 15.89 5 15.0195 5C13.481 5 12.1421 5.41092 11.003 6.23275C9.86397 7.05458 9.03039 8.09242 8.50222 9.34625H14.9617V10.8462H8.06572C7.99256 11.2706 7.96114 11.6937 7.97147 12.1155C7.98164 12.5372 8.01306 12.8833 8.06572 13.1538H14.9617V14.6538H8.49247C9.02714 15.9076 9.86397 16.9454 11.003 17.7673C12.1421 18.5891 13.481 19 15.0195 19C15.89 19 16.7111 18.858 17.483 18.574C18.2548 18.29 18.9522 17.8942 19.5752 17.3865L20.6445 18.4307C19.883 19.0769 19.0233 19.5833 18.0655 19.95C17.1078 20.3167 16.0925 20.5 15.0195 20.5Z" fill="black"/>
</svg>
