<svg width="24" height="24" viewBox="0 0 24 24" fill="none" xmlns="http://www.w3.org/2000/svg">
<path d="M4.35971 10.5764C4.35971 10.5764 2.90845 11.1273 2.52525 11.5789C2.14205 12.0305 1.73626 11.5976 2.22358 11.2229C2.7109 10.8482 4.26501 10.2412 4.26501 10.2412C4.26501 10.2412 5.29697 9.86925 6.59389 9.44704C8.30242 8.89093 10.438 8.2337 10.6432 8.18579C10.9993 8.10263 11.1545 8.11367 11.2287 8.32319C11.303 8.53272 10.8732 8.68655 10.8732 8.68655C10.8732 8.68655 6.58696 9.78635 5.84554 10.0225C5.45652 10.1414 5.07495 10.2834 4.70287 10.4479C4.70287 10.4479 4.89024 12.1637 4.85901 12.2969C4.82778 12.4301 6.73112 11.8614 7.62824 11.7399C8.52537 11.6184 8.87512 11.5388 8.92662 11.6898C8.92662 11.6898 8.99678 11.9232 8.90172 11.9434C8.80667 11.9637 5.9749 12.1739 4.92292 12.7819C4.92207 12.7668 4.92292 14.7846 4.92292 14.7846C4.92292 14.7846 6.48558 14.3325 7.36901 14.3076C8.25245 14.2827 8.56601 14.1833 8.58671 14.4687C8.60742 14.754 8.51741 14.7703 8.2587 14.7846C7.99998 14.7989 5.26428 14.9219 4.79159 15.3076C4.3189 15.6933 4.29016 15.7874 4.01424 15.8528C3.73833 15.9181 3.45814 15.6496 3.79343 15.3076C4.12871 14.9657 4.51346 14.9801 4.52193 14.6885C4.5304 14.397 4.52193 12.9554 4.52193 12.9554C4.52193 12.9554 4.03221 13.2641 3.93374 12.9554C3.83526 12.6466 4.52193 12.4993 4.52193 12.4993L4.35971 10.5764Z" fill="black"/>
<path d="M11.2586 9.88634C11.1604 9.95145 11.412 12.6498 11.8254 13.8661C12.2655 15.0534 12.3149 15.5008 12.7815 15.4362C12.7815 15.4362 12.7758 15.575 13.3175 13.9048C13.9608 11.9214 14.7921 9.75305 15.2339 9.22099C15.6758 8.68892 15.2502 8.44517 15.1089 8.60747C14.9677 8.76977 13.4276 11.5695 12.6351 14.6562C12.633 14.6773 12.0121 13.2912 11.825 12.0027C11.6379 10.7142 11.794 9.97797 11.6507 9.88591C11.5926 9.84736 11.5244 9.82684 11.4546 9.82691C11.3848 9.82699 11.3166 9.84766 11.2586 9.88634Z" fill="black"/>
<path d="M18.5904 14.6118C18.345 14.6043 18.106 14.531 17.8986 14.3995C17.7837 14.3352 17.6897 14.189 17.619 13.9648C17.5545 13.7426 17.5129 13.5143 17.495 13.2835C17.4683 12.9828 17.4598 12.6807 17.4693 12.3789C17.4654 12.3928 17.433 12.4874 17.1925 13.0201C16.9995 13.5676 16.7686 13.9744 16.5064 14.2288C16.2583 14.4696 16.0375 14.5202 15.8961 14.5202C15.8162 14.5218 15.7373 14.5031 15.6667 14.4659C15.5555 14.4026 15.4285 14.2957 15.4294 14.0276C15.4372 13.8489 15.4731 13.6724 15.5356 13.5047C15.6397 13.216 15.7658 12.9357 15.913 12.6663C16.1279 12.2603 16.5372 11.587 17.267 10.6801C17.7226 10.1155 18.1139 9.69781 18.1941 9.6475C18.2955 9.58399 18.4024 9.52976 18.5136 9.48546C18.6592 9.42466 18.8149 9.39169 18.9726 9.38827C19.0122 9.38835 19.0518 9.39121 19.091 9.39683C19.2882 9.42437 19.3634 9.50805 19.3917 9.5735C19.405 9.60275 19.4111 9.63471 19.4097 9.66678C19.4083 9.69885 19.3994 9.73015 19.3836 9.75812C19.3652 9.7843 19.2706 9.78781 19.1805 9.78781C19.1372 9.78781 19.0893 9.78687 19.0429 9.78584H19.0415C18.9944 9.7849 18.9458 9.78387 18.9 9.78387C18.826 9.7781 18.7516 9.78592 18.6805 9.80697C18.5646 9.86284 18.2741 10.288 18.2712 10.2922C18.2704 10.2934 18.1887 10.4125 18.0944 10.7734C17.9365 11.377 17.8652 12.181 17.833 12.7497C17.8101 13.0379 17.8248 13.3279 17.8766 13.6124C17.9052 13.7848 17.98 13.9463 18.093 14.0797C18.1462 14.1353 18.2105 14.179 18.2818 14.2079C18.353 14.2369 18.4296 14.2505 18.5065 14.2478C18.6491 14.2478 18.8951 14.2155 19.3836 13.9364C19.8285 13.6823 20.6733 12.9038 21.1781 12.4387C21.3933 12.2405 21.5488 12.0972 21.6059 12.0556C21.6621 12.0155 21.7295 11.9939 21.7986 11.9938C21.8348 11.9907 21.8713 11.9977 21.9038 12.014C21.9364 12.0303 21.9638 12.0552 21.9832 12.0861C22.0093 12.1368 22.0179 12.2288 21.9108 12.3787C21.7424 12.6145 21.5012 12.8044 21.1672 13.067C20.9822 13.2125 20.7723 13.3777 20.5249 13.5889C20.1734 13.9027 19.786 14.1737 19.3707 14.3962C19.1309 14.5278 18.8637 14.6016 18.5904 14.6118ZM15.9874 13.9849C15.9921 13.9853 15.9971 13.9856 16.002 13.9856C16.2065 13.9856 16.502 13.5783 16.8802 12.7753C17.1831 12.1323 17.4534 11.4157 17.569 11.1097C17.6032 11.019 17.6238 10.9643 17.6265 10.9619C17.2178 11.3133 16.8512 11.8095 16.5057 12.4805C16.0672 13.3316 15.9701 13.9591 15.9858 13.9844C15.9859 13.9846 15.9861 13.9848 15.9863 13.9849C15.9865 13.9851 15.9872 13.9848 15.9874 13.9849Z" fill="black"/>
</svg>
