<svg width="24" height="24" viewBox="0 0 24 24" fill="none" xmlns="http://www.w3.org/2000/svg">
<path d="M15.0288 21.5V20H18.6923C18.7693 20 18.8398 19.9679 18.9038 19.9038C18.9679 19.8398 19 19.7693 19 19.6923V10.3078H5V14.25H3.5V6.30777C3.5 5.8026 3.675 5.37502 4.025 5.02502C4.375 4.67502 4.80258 4.50002 5.30775 4.50002H6.69225V2.38477H8.23075V4.50002H15.8077V2.38477H17.3078V4.50002H18.6923C19.1974 4.50002 19.625 4.67502 19.975 5.02502C20.325 5.37502 20.5 5.8026 20.5 6.30777V19.6923C20.5 20.1974 20.325 20.625 19.975 20.975C19.625 21.325 19.1974 21.5 18.6923 21.5H15.0288ZM8 23.6443L6.95575 22.6L9.77125 19.75H1.25V18.25H9.77125L6.95575 15.4L8 14.3558L12.6442 19L8 23.6443Z" fill="black"/>
</svg>
