<svg width="24" height="24" viewBox="0 0 24 24" fill="none" xmlns="http://www.w3.org/2000/svg">
<path d="M5.30775 21.5C4.80258 21.5 4.375 21.325 4.025 20.975C3.675 20.625 3.5 20.1974 3.5 19.6923V6.30777C3.5 5.8026 3.675 5.37502 4.025 5.02502C4.375 4.67502 4.80258 4.50002 5.30775 4.50002H6.69225V2.38477H8.23075V4.50002H15.8078V2.38477H17.3078V4.50002H18.6923C19.1974 4.50002 19.625 4.67502 19.975 5.02502C20.325 5.37502 20.5 5.8026 20.5 6.30777V12.1538H19V10.3078H5V19.6923C5 19.7693 5.03208 19.8398 5.09625 19.9038C5.16025 19.9679 5.23075 20 5.30775 20H12.1443V21.5H5.30775ZM19 23.8463C17.8603 23.8463 16.8572 23.4959 15.9905 22.7953C15.1238 22.0946 14.561 21.2141 14.302 20.1538H15.5443C15.7866 20.8936 16.2183 21.4953 16.8395 21.9588C17.4607 22.4221 18.1808 22.6538 19 22.6538C20.0115 22.6538 20.8733 22.2977 21.5855 21.5855C22.2977 20.8734 22.6538 20.0115 22.6538 19C22.6538 17.9885 22.2977 17.1267 21.5855 16.4145C20.8733 15.7023 20.0115 15.3463 19 15.3463C18.4525 15.3463 17.9352 15.4642 17.448 15.7C16.9608 15.9359 16.5365 16.2538 16.175 16.6538H17.8463V17.8463H14.1538V14.1538H15.3463V15.7905C15.8089 15.2993 16.3563 14.9038 16.9885 14.6038C17.6205 14.3038 18.291 14.1538 19 14.1538C20.3385 14.1538 21.4808 14.6269 22.427 15.573C23.3732 16.5192 23.8463 17.6615 23.8463 19C23.8463 20.3385 23.3732 21.4809 22.427 22.427C21.4808 23.3732 20.3385 23.8463 19 23.8463Z" fill="black"/>
</svg>
