<svg width="24" height="24" viewBox="0 0 24 24" fill="none" xmlns="http://www.w3.org/2000/svg">
<path d="M6.19832 15.7212C5.72132 15.7212 5.31266 15.5508 4.97232 15.21C4.63182 14.8692 4.46157 14.4594 4.46157 13.9808C4.46157 13.4949 4.63199 13.0834 4.97282 12.7463C5.31366 12.4091 5.72341 12.2405 6.20207 12.2405C6.67791 12.2405 7.08532 12.4091 7.42432 12.7463C7.76332 13.0834 7.93282 13.4933 7.93282 13.976C7.93282 14.4587 7.76299 14.8702 7.42332 15.2105C7.08366 15.551 6.67532 15.7212 6.19832 15.7212ZM17.7943 15.7212C17.3173 15.7212 16.9087 15.5508 16.5683 15.21C16.228 14.8692 16.0578 14.4594 16.0578 13.9808C16.0578 13.4949 16.2282 13.0834 16.5691 12.7463C16.9099 12.4091 17.3196 12.2405 17.7981 12.2405C18.2741 12.2405 18.6816 12.4091 19.0206 12.7463C19.3594 13.0834 19.5288 13.4933 19.5288 13.976C19.5288 14.4587 19.359 14.8702 19.0193 15.2105C18.6797 15.551 18.2713 15.7212 17.7943 15.7212ZM12.0146 14.7402C11.3947 14.7402 10.8687 14.5247 10.4366 14.0935C10.0046 13.6622 9.78857 13.1342 9.78857 12.5095C9.78857 11.8802 10.0042 11.3511 10.4356 10.9223C10.8667 10.4933 11.3947 10.2788 12.0193 10.2788C12.636 10.2788 13.1619 10.4933 13.5971 10.9223C14.0324 11.3511 14.2501 11.8786 14.2501 12.5048C14.2501 13.1311 14.0324 13.6603 13.5971 14.0922C13.1619 14.5243 12.6344 14.7402 12.0146 14.7402ZM7.43657 20.5C7.66357 19.4333 8.20041 18.5497 9.04707 17.849C9.89374 17.1483 10.8841 16.798 12.0181 16.798C13.1522 16.798 14.1414 17.1483 14.9856 17.849C15.8299 18.5497 16.3655 19.4333 16.5923 20.5H7.43657ZM2.50007 20.5C2.50007 19.4768 2.86132 18.6041 3.58382 17.8818C4.30616 17.1593 5.17891 16.798 6.20207 16.798C6.48707 16.798 6.75541 16.8263 7.00707 16.8828C7.25857 16.9391 7.50174 17.0237 7.73657 17.1365C7.28874 17.5787 6.91557 18.0857 6.61707 18.6575C6.31857 19.2293 6.11266 19.8435 5.99932 20.5H2.50007ZM18.0251 20.5C17.9147 19.8372 17.7106 19.2205 17.4126 18.65C17.1144 18.0795 16.7378 17.5718 16.2828 17.127C16.5162 17.0205 16.7567 16.9391 17.0046 16.8828C17.2526 16.8263 17.5171 16.798 17.7981 16.798C18.8212 16.798 19.694 17.1593 20.4163 17.8818C21.1388 18.6041 21.5001 19.4768 21.5001 20.5H18.0251ZM2.43082 11.6923L1.53857 10.4962L12.0193 2.5L16.0096 5.5405V3.5H18.5001V7.44625L22.5001 10.4962L21.5981 11.6923L12.0193 4.39025L2.43082 11.6923Z" fill="black"/>
</svg>
