<svg width="24" height="24" viewBox="0 0 24 24" fill="none" xmlns="http://www.w3.org/2000/svg">
<g id="favorite">
<path id="Vector" d="M12 20.3267L10.8963 19.3345C9.23858 17.8307 7.86775 16.5384 6.78375 15.4577C5.69975 14.3769 4.84075 13.415 4.20675 12.572C3.57275 11.7292 3.12983 10.9602 2.878 10.2652C2.626 9.57041 2.5 8.86533 2.5 8.14999C2.5 6.73083 2.9785 5.54266 3.9355 4.58549C4.89267 3.62849 6.08083 3.14999 7.5 3.14999C8.373 3.14999 9.198 3.35416 9.975 3.76249C10.752 4.17083 11.427 4.75641 12 5.51924C12.573 4.75641 13.248 4.17083 14.025 3.76249C14.802 3.35416 15.627 3.14999 16.5 3.14999C17.9192 3.14999 19.1073 3.62849 20.0645 4.58549C21.0215 5.54266 21.5 6.73083 21.5 8.14999C21.5 8.86533 21.374 9.57041 21.122 10.2652C20.8702 10.9602 20.4272 11.7292 19.7932 12.572C19.1593 13.415 18.3018 14.3769 17.221 15.4577C16.1403 16.5384 14.7679 17.8307 13.1038 19.3345L12 20.3267ZM12 18.3C13.6 16.8603 14.9167 15.6263 15.95 14.598C16.9833 13.5698 17.8 12.6766 18.4 11.9182C19 11.1599 19.4167 10.4865 19.65 9.89799C19.8833 9.30966 20 8.72699 20 8.14999C20 7.14999 19.6667 6.31666 19 5.64999C18.3333 4.98333 17.5 4.64999 16.5 4.64999C15.7103 4.64999 14.9805 4.87399 14.3105 5.32199C13.6407 5.77016 13.1102 6.39358 12.7192 7.19224H11.2808C10.8833 6.38708 10.3512 5.76208 9.6845 5.31724C9.01783 4.87241 8.28967 4.64999 7.5 4.64999C6.50633 4.64999 5.67458 4.98333 5.00475 5.64999C4.33492 6.31666 4 7.14999 4 8.14999C4 8.72699 4.11667 9.30966 4.35 9.89799C4.58333 10.4865 5 11.1599 5.6 11.9182C6.2 12.6766 7.01667 13.5682 8.05 14.5932C9.08333 15.6182 10.4 16.8538 12 18.3Z" fill="black"/>
</g>
</svg>
