<svg width="24" height="24" viewBox="0 0 24 24" fill="none" xmlns="http://www.w3.org/2000/svg">
<path d="M5 20.7501C4.23617 20.7501 3.58683 20.4828 3.052 19.9481C2.51733 19.4133 2.25 18.7639 2.25 18.0001V11.0001C2.25 10.2363 2.51733 9.58693 3.052 9.0521C3.58683 8.51743 4.23617 8.2501 5 8.2501C5.43083 8.2501 5.82567 8.34176 6.1845 8.5251C6.5435 8.70843 6.85508 8.9501 7.11925 9.2501H8.25V4.4231H17.75V9.2501H19C19.7638 9.2501 20.4132 9.51743 20.948 10.0521C21.4827 10.5869 21.75 11.2363 21.75 12.0001V19.7501H7.11925C6.85508 20.0501 6.5435 20.2918 6.1845 20.4751C5.82567 20.6584 5.43083 20.7501 5 20.7501ZM5 19.2501C5.3475 19.2501 5.64267 19.1286 5.8855 18.8856C6.1285 18.6428 6.25 18.3476 6.25 18.0001V11.0001C6.25 10.6526 6.1285 10.3574 5.8855 10.1146C5.64267 9.8716 5.3475 9.7501 5 9.7501C4.6525 9.7501 4.35733 9.8716 4.1145 10.1146C3.8715 10.3574 3.75 10.6526 3.75 11.0001V18.0001C3.75 18.3476 3.8715 18.6428 4.1145 18.8856C4.35733 19.1286 4.6525 19.2501 5 19.2501ZM9.75 9.2501H16.25V5.9231H9.75V9.2501ZM7.75 18.2501H20.25V12.0001C20.25 11.6526 20.1285 11.3574 19.8855 11.1146C19.6427 10.8716 19.3475 10.7501 19 10.7501H7.75V18.2501ZM15 14.0001C15.2833 14.0001 15.5208 13.9043 15.7125 13.7126C15.9042 13.5209 16 13.2834 16 13.0001C16 12.7168 15.9042 12.4793 15.7125 12.2876C15.5208 12.0959 15.2833 12.0001 15 12.0001C14.7167 12.0001 14.4792 12.0959 14.2875 12.2876C14.0958 12.4793 14 12.7168 14 13.0001C14 13.2834 14.0958 13.5209 14.2875 13.7126C14.4792 13.9043 14.7167 14.0001 15 14.0001ZM18 14.0001C18.2833 14.0001 18.5208 13.9043 18.7125 13.7126C18.9042 13.5209 19 13.2834 19 13.0001C19 12.7168 18.9042 12.4793 18.7125 12.2876C18.5208 12.0959 18.2833 12.0001 18 12.0001C17.7167 12.0001 17.4792 12.0959 17.2875 12.2876C17.0958 12.4793 17 12.7168 17 13.0001C17 13.2834 17.0958 13.5209 17.2875 13.7126C17.4792 13.9043 17.7167 14.0001 18 14.0001ZM15 17.0001C15.2833 17.0001 15.5208 16.9043 15.7125 16.7126C15.9042 16.5209 16 16.2834 16 16.0001C16 15.7168 15.9042 15.4793 15.7125 15.2876C15.5208 15.0959 15.2833 15.0001 15 15.0001C14.7167 15.0001 14.4792 15.0959 14.2875 15.2876C14.0958 15.4793 14 15.7168 14 16.0001C14 16.2834 14.0958 16.5209 14.2875 16.7126C14.4792 16.9043 14.7167 17.0001 15 17.0001ZM18 17.0001C18.2833 17.0001 18.5208 16.9043 18.7125 16.7126C18.9042 16.5209 19 16.2834 19 16.0001C19 15.7168 18.9042 15.4793 18.7125 15.2876C18.5208 15.0959 18.2833 15.0001 18 15.0001C17.7167 15.0001 17.4792 15.0959 17.2875 15.2876C17.0958 15.4793 17 15.7168 17 16.0001C17 16.2834 17.0958 16.5209 17.2875 16.7126C17.4792 16.9043 17.7167 17.0001 18 17.0001ZM9 17.0001H13V12.0001H9V17.0001Z" fill="black"/>
</svg>
