<svg width="24" height="24" viewBox="0 0 24 24" fill="none" xmlns="http://www.w3.org/2000/svg">
<path d="M21.008 22.7152L11.106 12.798C10.7316 12.9365 10.4291 13.1772 10.1982 13.5202C9.96755 13.8631 9.85222 14.2397 9.85222 14.65C9.85222 16.1897 10.3163 17.5345 11.2445 18.6845C12.1726 19.8345 13.4329 20.6256 15.0252 21.0577C15.1457 21.0911 15.2361 21.1606 15.2965 21.2662C15.3566 21.3721 15.3701 21.4852 15.3367 21.6057C15.3034 21.7327 15.2348 21.8263 15.131 21.8865C15.0271 21.9468 14.915 21.9603 14.7945 21.927C13.0073 21.4603 11.5894 20.5692 10.5407 19.2537C9.49189 17.9384 8.96747 16.4038 8.96747 14.65C8.96747 14.1257 9.09989 13.6401 9.36472 13.1932C9.62938 12.7464 9.98739 12.3974 10.4387 12.1462L9.32147 11.0287C8.6778 11.4492 8.1803 11.9752 7.82897 12.6067C7.4778 13.2381 7.30222 13.9192 7.30222 14.65C7.30222 15.8937 7.51305 16.9921 7.93472 17.9452C8.35655 18.8984 9.07389 19.9077 10.0867 20.973C10.1804 21.0667 10.2272 21.1731 10.2272 21.2922C10.2272 21.4116 10.1804 21.518 10.0867 21.6115C9.99955 21.6987 9.89472 21.7422 9.77222 21.7422C9.64989 21.7422 9.54189 21.6987 9.44822 21.6115C8.36755 20.482 7.59222 19.3833 7.12222 18.3155C6.65239 17.2475 6.41747 16.0257 6.41747 14.65C6.41747 13.7987 6.62005 12.9993 7.02522 12.252C7.43039 11.5045 7.98805 10.8839 8.69822 10.3902L7.51172 9.21925C6.52589 10.0231 5.81114 10.8529 5.36747 11.7087C4.92397 12.5644 4.70222 13.5448 4.70222 14.65C4.70222 15.2052 4.75797 15.7927 4.86947 16.4125C4.98097 17.0323 5.15339 17.6563 5.38672 18.2845C5.43039 18.4052 5.43039 18.5157 5.38672 18.6162C5.34322 18.7169 5.26122 18.7922 5.14072 18.8422C5.02005 18.8922 4.9053 18.8955 4.79647 18.852C4.68747 18.8083 4.61114 18.7231 4.56747 18.5963C4.31114 17.8962 4.12464 17.2277 4.00797 16.5905C3.8913 15.9532 3.83297 15.3063 3.83297 14.65C3.83297 13.4142 4.07914 12.3052 4.57147 11.323C5.0638 10.341 5.83622 9.42691 6.88872 8.58075L5.78672 7.47875C5.40855 7.77492 5.06114 8.0865 4.74447 8.4135C4.4278 8.74033 4.1368 9.08967 3.87147 9.4615C3.7983 9.57183 3.70147 9.63783 3.58097 9.6595C3.46047 9.68133 3.34314 9.65058 3.22897 9.56725C3.13164 9.49675 3.07622 9.40608 3.06272 9.29525C3.04922 9.18425 3.07772 9.07683 3.14822 8.973C3.42655 8.57817 3.73655 8.208 4.07822 7.8625C4.41989 7.517 4.78814 7.18783 5.18297 6.875L1.51172 3.1885L2.35022 2.35L21.8617 21.8615L21.008 22.7152ZM17.1907 15.0922C17.0766 15.0922 16.9743 15.0497 16.884 14.9645C16.7935 14.8792 16.7482 14.7743 16.7482 14.65C16.7482 13.4308 16.3121 12.4032 15.4397 11.5672C14.5672 10.7314 13.5316 10.2782 12.333 10.2077L11.458 9.33275C11.5515 9.31608 11.646 9.30775 11.7415 9.30775H12.0252C13.5624 9.30775 14.8813 9.82216 15.982 10.851C17.0826 11.8798 17.633 13.1462 17.633 14.65C17.633 14.7808 17.5919 14.8872 17.5097 14.9692C17.4277 15.0512 17.3214 15.0922 17.1907 15.0922ZM12.0252 2.073C13.0856 2.073 14.1192 2.20216 15.1262 2.4605C16.1332 2.71883 17.1086 3.08966 18.0522 3.573C18.1957 3.65 18.2784 3.742 18.3002 3.849C18.3221 3.956 18.3111 4.0615 18.2675 4.1655C18.224 4.26933 18.1486 4.34817 18.0415 4.402C17.9345 4.45583 17.8136 4.4475 17.679 4.377C16.8021 3.90767 15.8881 3.55383 14.9367 3.3155C13.9854 3.077 13.0149 2.95775 12.0252 2.95775C11.0457 2.95775 10.0919 3.07408 9.16372 3.30675C8.23555 3.53942 7.34005 3.88783 6.47722 4.352L5.83872 3.7135C6.78222 3.18016 7.7758 2.77341 8.81947 2.49325C9.86297 2.21308 10.9316 2.073 12.0252 2.073ZM12.006 4.523C13.7663 4.523 15.4281 4.90216 16.9915 5.6605C18.555 6.41883 19.8586 7.5115 20.9022 8.9385C21.0061 9.06916 21.0387 9.18808 21.0002 9.29525C20.9617 9.40225 20.8957 9.491 20.8022 9.5615C20.7086 9.632 20.6031 9.66308 20.4857 9.65475C20.3684 9.64642 20.2661 9.582 20.179 9.4615C19.2495 8.14867 18.0607 7.14483 16.6127 6.45C15.1647 5.75517 13.6291 5.40775 12.006 5.40775C11.3496 5.40775 10.7057 5.46767 10.0742 5.5875C9.44289 5.70733 8.8323 5.88392 8.24247 6.11725L7.58872 5.4635C8.28222 5.15316 8.99664 4.91883 9.73197 4.7605C10.4671 4.60216 11.2251 4.523 12.006 4.523ZM12.006 6.873C14.2431 6.873 16.1652 7.61825 17.7722 9.10875C19.3794 10.5991 20.183 12.4462 20.183 14.65C20.183 15.1205 20.0778 15.55 19.8675 15.9385C19.6573 16.327 19.3804 16.6513 19.0367 16.9115L18.4137 16.2885C18.6867 16.1052 18.9024 15.8712 19.0607 15.5865C19.2191 15.3018 19.2982 14.9897 19.2982 14.65C19.2982 12.6975 18.5819 11.0581 17.1492 9.73175C15.7166 8.40542 14.0073 7.74225 12.0215 7.74225C11.6881 7.74225 11.3641 7.76308 11.0492 7.80475C10.7346 7.84642 10.424 7.90892 10.1175 7.99225L9.40397 7.27875C9.8143 7.14542 10.2371 7.0445 10.6722 6.976C11.1076 6.90733 11.5521 6.873 12.006 6.873ZM16.8982 19.8922C15.4342 19.8922 14.1714 19.3919 13.1097 18.3912C12.0482 17.3907 11.5175 16.1488 11.5175 14.6655C11.5175 14.5448 11.5586 14.4409 11.6407 14.3537C11.7227 14.2666 11.8291 14.223 11.9597 14.223C12.0906 14.223 12.197 14.2666 12.279 14.3537C12.3611 14.4409 12.4022 14.5448 12.4022 14.6655C12.4022 15.9038 12.8467 16.9346 13.7357 17.7577C14.6249 18.5807 15.6791 18.9922 16.8982 18.9922C17.0304 18.9922 17.1881 18.9865 17.3715 18.975C17.5548 18.9635 17.7432 18.9411 17.9367 18.9077C18.0611 18.8807 18.1678 18.8983 18.257 18.9605C18.3461 19.0227 18.4074 19.1192 18.4407 19.25C18.4741 19.3705 18.4522 19.4743 18.3752 19.5615C18.2982 19.6487 18.1995 19.7089 18.079 19.7422C17.8368 19.8064 17.6064 19.8475 17.3877 19.8655C17.1692 19.8833 17.0061 19.8922 16.8982 19.8922Z" fill="black"/>
</svg>
