<svg width="24" height="24" viewBox="0 0 24 24" fill="none" xmlns="http://www.w3.org/2000/svg">
<path d="M5.34619 20.125V18.625H18.6537V20.125H5.34619ZM11.9999 16.5287C10.4448 16.5287 9.23102 16.0566 8.35869 15.1125C7.48619 14.1683 7.04994 12.9032 7.04994 11.3172V3.41345H8.90369V11.4095C8.90369 12.4198 9.17227 13.2295 9.70944 13.8385C10.2466 14.4475 11.0101 14.752 11.9999 14.752C12.9898 14.752 13.7533 14.4475 14.2904 13.8385C14.8276 13.2295 15.0962 12.4198 15.0962 11.4095V3.41345H16.9499V11.3172C16.9499 12.9032 16.5137 14.1683 15.6412 15.1125C14.7689 16.0566 13.5551 16.5287 11.9999 16.5287Z" fill="black"/>
</svg>
