<svg width="24" height="24" viewBox="0 0 24 24" fill="none" xmlns="http://www.w3.org/2000/svg">
<path d="M12.5962 11.6423C13.0217 11.1794 13.3364 10.648 13.5404 10.048C13.7443 9.44801 13.8462 8.82943 13.8462 8.19226C13.8462 7.55509 13.7443 6.93651 13.5404 6.33651C13.3364 5.73651 13.0217 5.20509 12.5962 4.74226C13.4744 4.84359 14.2035 5.22276 14.7837 5.87976C15.3637 6.53693 15.6537 7.30776 15.6537 8.19226C15.6537 9.07693 15.3637 9.84776 14.7837 10.5048C14.2035 11.1618 13.4744 11.5409 12.5962 11.6423ZM17.8462 19.3078V16.9615C17.8462 16.4163 17.7353 15.8977 17.5134 15.4055C17.2916 14.9133 16.9769 14.491 16.5692 14.1385C17.3359 14.3937 18.0416 14.7379 18.6864 15.1713C19.3313 15.6046 19.6537 16.2013 19.6537 16.9615V19.3078H17.8462ZM19.6537 12.75V10.75H17.6537V9.25001H19.6537V7.25001H21.1537V9.25001H23.1537V10.75H21.1537V12.75H19.6537ZM8.34619 11.6923C7.38369 11.6923 6.55969 11.3496 5.87419 10.6643C5.18886 9.97876 4.84619 9.15476 4.84619 8.19226C4.84619 7.22976 5.18886 6.40584 5.87419 5.72051C6.55969 5.03501 7.38369 4.69226 8.34619 4.69226C9.30869 4.69226 10.1326 5.03501 10.8179 5.72051C11.5034 6.40584 11.8462 7.22976 11.8462 8.19226C11.8462 9.15476 11.5034 9.97876 10.8179 10.6643C10.1326 11.3496 9.30869 11.6923 8.34619 11.6923ZM0.846191 19.3078V17.0845C0.846191 16.5948 0.979191 16.1413 1.24519 15.724C1.51119 15.3067 1.86661 14.9858 2.31144 14.7615C3.29994 14.277 4.29711 13.9136 5.30294 13.6713C6.30861 13.4289 7.32302 13.3078 8.34619 13.3078C9.36919 13.3078 10.3836 13.4289 11.3894 13.6713C12.3951 13.9136 13.3922 14.277 14.3807 14.7615C14.8255 14.9858 15.1809 15.3067 15.4469 15.724C15.7131 16.1413 15.8462 16.5948 15.8462 17.0845V19.3078H0.846191ZM8.34619 10.1923C8.89619 10.1923 9.36702 9.99643 9.75869 9.60476C10.1504 9.21309 10.3462 8.74226 10.3462 8.19226C10.3462 7.64226 10.1504 7.17143 9.75869 6.77976C9.36702 6.38809 8.89619 6.19226 8.34619 6.19226C7.79619 6.19226 7.32536 6.38809 6.93369 6.77976C6.54202 7.17143 6.34619 7.64226 6.34619 8.19226C6.34619 8.74226 6.54202 9.21309 6.93369 9.60476C7.32536 9.99643 7.79619 10.1923 8.34619 10.1923ZM2.34619 17.8078H14.3462V17.0845C14.3462 16.882 14.2875 16.6945 14.1702 16.522C14.0529 16.3497 13.8935 16.209 13.6922 16.1C12.8307 15.6757 11.9523 15.3542 11.0569 15.1355C10.1614 14.917 9.25786 14.8078 8.34619 14.8078C7.43436 14.8078 6.53078 14.917 5.63544 15.1355C4.73994 15.3542 3.86144 15.6757 2.99994 16.1C2.79861 16.209 2.63936 16.3497 2.52219 16.522C2.40486 16.6945 2.34619 16.882 2.34619 17.0845V17.8078Z" fill="black"/>
</svg>
