<svg width="24" height="24" viewBox="0 0 24 24" fill="none" xmlns="http://www.w3.org/2000/svg">
<path fill-rule="evenodd" clip-rule="evenodd" d="M5.98085 4.18872C6.36616 4.18872 6.67852 4.50108 6.67852 4.88639V6.22926C7.54142 7.01378 8.98568 7.89445 10.7123 8.16424C12.4848 8.44119 14.6026 8.08406 16.7742 6.21386V4.88639C16.7742 4.50108 17.0866 4.18872 17.4719 4.18872C17.8572 4.18872 18.1696 4.50108 18.1696 4.88639V6.17837C19.7921 7.38642 21.1817 8.34505 21.6893 8.68344C22.0099 8.89717 22.0965 9.33034 21.8828 9.65094C21.669 9.97154 21.2359 10.0582 20.9153 9.84444C20.4794 9.55384 19.4423 8.83997 18.1696 7.91159V14.5854H20.2079C20.5932 14.5854 20.9055 14.8978 20.9055 15.2831C20.9055 15.6684 20.5932 15.9808 20.2079 15.9808H18.1696V18.4158H19.6607C20.046 18.4158 20.3583 18.7281 20.3583 19.1134C20.3583 19.4987 20.046 19.8111 19.6607 19.8111H15.2831C14.8978 19.8111 14.5855 19.4987 14.5855 19.1134C14.5855 18.7281 14.8978 18.4158 15.2831 18.4158H16.7742V15.9808H6.67852V18.4158H8.16962C8.55493 18.4158 8.86729 18.7281 8.86729 19.1134C8.86729 19.4987 8.55493 19.8111 8.16962 19.8111H3.79208C3.40676 19.8111 3.0944 19.4987 3.0944 19.1134C3.0944 18.7281 3.40676 18.4158 3.79208 18.4158H5.28318V15.9808H3.79208C3.40676 15.9808 3.0944 15.6684 3.0944 15.2831C3.0944 14.8978 3.40676 14.5854 3.79208 14.5854H5.28318V8.01753L3.14433 9.7999C2.84832 10.0466 2.40839 10.0066 2.16172 9.71058C1.91505 9.41457 1.95504 8.97464 2.25105 8.72797L5.28318 6.2012V4.88639C5.28318 4.50108 5.59553 4.18872 5.98085 4.18872ZM6.67852 8.0012V14.5854H16.7742V7.98124C14.5901 9.51247 12.4074 9.84137 10.4969 9.54285C8.99138 9.30761 7.67819 8.68738 6.67852 8.0012Z" fill="#2A91D9"/>
</svg>
