<svg width="24" height="24" viewBox="0 0 24 24" fill="none" xmlns="http://www.w3.org/2000/svg">
<path d="M4.42322 21.5C3.92622 21.5 3.50072 21.323 3.14672 20.969C2.79272 20.615 2.61572 20.1894 2.61572 19.6923V4.30775C2.61572 3.81058 2.79272 3.385 3.14672 3.031C3.50072 2.677 3.92622 2.5 4.42322 2.5H12.808C13.305 2.5 13.7305 2.677 14.0845 3.031C14.4385 3.385 14.6155 3.81058 14.6155 4.30775V19.6923C14.6155 20.1894 14.4385 20.615 14.0845 20.969C13.7305 21.323 13.305 21.5 12.808 21.5H4.42322ZM4.11572 11.1598C4.39639 10.9379 4.70497 10.7725 5.04147 10.6635C5.37814 10.5545 5.73622 10.5 6.11572 10.5H11.1157C11.4952 10.5 11.8532 10.5545 12.1897 10.6635C12.5262 10.7725 12.8349 10.9379 13.1157 11.1598V4.30775C13.1157 4.21792 13.0868 4.14417 13.029 4.0865C12.9713 4.02883 12.8976 4 12.808 4H4.42322C4.33356 4 4.25989 4.02883 4.20222 4.0865C4.14456 4.14417 4.11572 4.21792 4.11572 4.30775V11.1598ZM8.61572 9C8.12972 9 7.71656 8.82983 7.37622 8.4895C7.03589 8.149 6.86572 7.73583 6.86572 7.25C6.86572 6.76417 7.03589 6.351 7.37622 6.0105C7.71656 5.67017 8.12972 5.5 8.61572 5.5C9.10156 5.5 9.51464 5.67017 9.85497 6.0105C10.1953 6.351 10.3655 6.76417 10.3655 7.25C10.3655 7.73583 10.1953 8.149 9.85497 8.4895C9.51464 8.82983 9.10156 9 8.61572 9ZM19.1445 15.1442L16.0002 12L19.1445 8.85575L20.1982 9.9L18.8637 11.25H22.3945V12.75H18.8637L20.1982 14.1L19.1445 15.1442ZM4.42322 20H12.808C12.8976 20 12.9713 19.9712 13.029 19.9135C13.0868 19.8558 13.1157 19.7821 13.1157 19.6923V14C13.1157 13.45 12.9199 12.9792 12.5282 12.5875C12.1366 12.1958 11.6657 12 11.1157 12H6.11572C5.56572 12 5.09489 12.1958 4.70322 12.5875C4.31156 12.9792 4.11572 13.45 4.11572 14V19.6923C4.11572 19.7821 4.14456 19.8558 4.20222 19.9135C4.25989 19.9712 4.33356 20 4.42322 20ZM7.86572 18.75H9.36547V16.75H11.3655V15.25H9.36547V13.25H7.86572V15.25H5.86572V16.75H7.86572V18.75ZM4.42322 20H4.11572H13.1157H4.42322Z" fill="black"/>
</svg>
