<svg width="24" height="24" viewBox="0 0 24 24" fill="none" xmlns="http://www.w3.org/2000/svg">
<path d="M18.8843 16.1037L17.7498 14.9385C18.4228 14.7552 18.9661 14.3946 19.3796 13.8567C19.7931 13.3189 19.9998 12.7 19.9998 12C19.9998 11.1603 19.705 10.444 19.1153 9.85099C18.5255 9.25799 17.8139 8.96149 16.9806 8.96149H13.1728V7.46149H16.9806C18.2293 7.46149 19.2947 7.90415 20.1768 8.78949C21.0588 9.67465 21.4998 10.7448 21.4998 12C21.4998 12.8858 21.262 13.6951 20.7863 14.4277C20.3107 15.1606 19.6767 15.7192 18.8843 16.1037ZM15.5806 12.75L14.0806 11.25H15.7306V12.75H15.5806ZM20.1461 22.2537L1.74609 3.85374L2.79984 2.79999L21.1998 21.2L20.1461 22.2537ZM10.8268 16.5385H7.03834C5.78318 16.5385 4.71301 16.0958 3.82784 15.2105C2.94251 14.3253 2.49984 13.2552 2.49984 12C2.49984 10.8885 2.85784 9.91316 3.57384 9.07399C4.28984 8.23499 5.18826 7.72832 6.26909 7.55399H6.49984L7.90759 8.96149H7.03834C6.19851 8.96149 5.48218 9.25799 4.88934 9.85099C4.29634 10.444 3.99984 11.1603 3.99984 12C3.99984 12.8397 4.29634 13.556 4.88934 14.149C5.48218 14.742 6.19851 15.0385 7.03834 15.0385H10.8268V16.5385ZM8.26909 12.75V11.25H10.2113L11.6863 12.75H8.26909Z" fill="black"/>
</svg>
