<svg width="24" height="24" viewBox="0 0 24 24" fill="none" xmlns="http://www.w3.org/2000/svg">
<path d="M9.30775 18.75V17.25H20.5V18.75H9.30775ZM9.30775 12.75V11.25H20.5V12.75H9.30775ZM9.30775 6.75005V5.25005H20.5V6.75005H9.30775ZM5.1635 19.6635C4.706 19.6635 4.31442 19.5006 3.98875 19.1748C3.66292 18.8491 3.5 18.4575 3.5 18C3.5 17.5425 3.66292 17.151 3.98875 16.8253C4.31442 16.4995 4.706 16.3365 5.1635 16.3365C5.621 16.3365 6.01258 16.4995 6.33825 16.8253C6.66408 17.151 6.827 17.5425 6.827 18C6.827 18.4575 6.66408 18.8491 6.33825 19.1748C6.01258 19.5006 5.621 19.6635 5.1635 19.6635ZM5.1635 13.6635C4.706 13.6635 4.31442 13.5006 3.98875 13.1748C3.66292 12.8491 3.5 12.4575 3.5 12C3.5 11.5425 3.66292 11.151 3.98875 10.8253C4.31442 10.4995 4.706 10.3365 5.1635 10.3365C5.621 10.3365 6.01258 10.4995 6.33825 10.8253C6.66408 11.151 6.827 11.5425 6.827 12C6.827 12.4575 6.66408 12.8491 6.33825 13.1748C6.01258 13.5006 5.621 13.6635 5.1635 13.6635ZM5.1635 7.66355C4.706 7.66355 4.31442 7.50063 3.98875 7.1748C3.66292 6.84913 3.5 6.45755 3.5 6.00005C3.5 5.54255 3.66292 5.15096 3.98875 4.8253C4.31442 4.49946 4.706 4.33655 5.1635 4.33655C5.621 4.33655 6.01258 4.49946 6.33825 4.8253C6.66408 5.15096 6.827 5.54255 6.827 6.00005C6.827 6.45755 6.66408 6.84913 6.33825 7.1748C6.01258 7.50063 5.621 7.66355 5.1635 7.66355Z" fill="black"/>
</svg>
