<svg width="24" height="24" viewBox="0 0 24 24" fill="none" xmlns="http://www.w3.org/2000/svg">
<path d="M10.1157 21.75V14.9615H8.23096V9.01924C8.23096 8.52207 8.40796 8.09649 8.76196 7.74249C9.11596 7.38849 9.54154 7.21149 10.0387 7.21149H13.9617C14.4589 7.21149 14.8845 7.38849 15.2385 7.74249C15.5925 8.09649 15.7695 8.52207 15.7695 9.01924V14.9615H13.8847V21.75H10.1157ZM12.0002 5.90374C11.4925 5.90374 11.058 5.72299 10.6965 5.36149C10.3348 4.99999 10.154 4.5654 10.154 4.05774C10.154 3.55007 10.3348 3.1154 10.6965 2.75374C11.058 2.39224 11.4925 2.21149 12.0002 2.21149C12.5079 2.21149 12.9425 2.39224 13.304 2.75374C13.6656 3.1154 13.8465 3.55007 13.8465 4.05774C13.8465 4.5654 13.6656 4.99999 13.304 5.36149C12.9425 5.72299 12.5079 5.90374 12.0002 5.90374Z" fill="black"/>
</svg>
