<svg width="24" height="24" viewBox="0 0 24 24" fill="none" xmlns="http://www.w3.org/2000/svg">
<path d="M3.98029 9.23075V4.15375H5.48029V6.523C6.29179 5.56533 7.26362 4.82208 8.39579 4.29325C9.52779 3.76442 10.7226 3.5 11.9803 3.5C14.3393 3.5 16.3457 4.32692 17.9995 5.98075C19.6534 7.63458 20.4803 9.641 20.4803 12V12.1348H18.9803V12C18.9803 10.05 18.3011 8.39583 16.9428 7.0375C15.5845 5.67917 13.9303 5 11.9803 5C10.888 5 9.86429 5.24267 8.90929 5.728C7.95412 6.21317 7.13162 6.88075 6.44179 7.73075H9.05729V9.23075H3.98029ZM3.54004 13H5.07079C5.28996 14.5628 5.94662 15.8866 7.04079 16.9712C8.13512 18.0557 9.44512 18.7051 10.9708 18.9193L11.8823 20.5C9.74896 20.468 7.88612 19.7407 6.29379 18.3182C4.70146 16.8958 3.78354 15.123 3.54004 13ZM13.638 14.6827L11.2593 12.3038V7H12.759V11.6962L14.4283 13.3655L13.638 14.6827ZM18.4553 23.75L18.213 22.3943C17.9554 22.3238 17.7118 22.2266 17.4823 22.1028C17.2528 21.9791 17.0368 21.8218 16.8343 21.6308L15.5285 22.0422L14.8168 20.8423L15.861 19.9673C15.7829 19.6994 15.7438 19.4251 15.7438 19.1443C15.7438 18.8634 15.7829 18.5827 15.861 18.302L14.7978 17.4078L15.5285 16.1885L16.8438 16.629C17.0463 16.4443 17.2591 16.2917 17.4823 16.1713C17.7053 16.0508 17.9489 15.952 18.213 15.875L18.4553 14.5192H19.8783L20.1208 15.875C20.3913 15.952 20.6438 16.0591 20.8783 16.1962C21.113 16.3334 21.3233 16.4975 21.5093 16.6885L22.8438 16.2078L23.5553 17.477L22.4823 18.3712C22.554 18.6519 22.5898 18.9211 22.5898 19.1788C22.5898 19.4366 22.554 19.6898 22.4823 19.9385L23.5745 20.8423L22.863 22.0422L21.5093 21.6115C21.3131 21.8025 21.1003 21.9631 20.8708 22.0933C20.6413 22.2234 20.3913 22.3238 20.1208 22.3943L19.8783 23.75H18.4553ZM19.1668 21.2115C19.7361 21.2115 20.2246 21.0077 20.6323 20.6C21.04 20.1923 21.2438 19.7039 21.2438 19.1348C21.2438 18.5654 21.04 18.0769 20.6323 17.6693C20.2246 17.2616 19.7361 17.0577 19.1668 17.0577C18.5976 17.0577 18.1092 17.2616 17.7015 17.6693C17.2939 18.0769 17.09 18.5654 17.09 19.1348C17.09 19.7039 17.2939 20.1923 17.7015 20.6C18.1092 21.0077 18.5976 21.2115 19.1668 21.2115Z" fill="black"/>
</svg>
