<svg width="24" height="24" viewBox="0 0 24 24" fill="none" xmlns="http://www.w3.org/2000/svg">
<path d="M16.1058 20.048L15.8828 18.721C15.6442 18.6505 15.4198 18.5583 15.2095 18.4443C14.9993 18.3301 14.7993 18.1871 14.6095 18.0153L13.3422 18.4558L12.6308 17.246L13.6655 16.4C13.5937 16.141 13.5577 15.8858 13.5577 15.6345C13.5577 15.3833 13.5937 15.1283 13.6655 14.8693L12.6405 14.0038L13.352 12.7943L14.6095 13.2443C14.7928 13.0724 14.9913 12.9311 15.2048 12.8203C15.4183 12.7093 15.6442 12.6185 15.8828 12.548L16.1058 11.2213H17.5288L17.7423 12.548C17.9808 12.6185 18.2067 12.7118 18.4202 12.828C18.6336 12.944 18.8319 13.093 19.0152 13.275L20.273 12.7943L20.9845 14.0345L19.9595 14.9C20.0313 15.1385 20.0673 15.3885 20.0673 15.65C20.0673 15.9115 20.0313 16.1615 19.9595 16.4L20.9943 17.246L20.2828 18.4558L19.0152 18.0153C18.8256 18.1871 18.6256 18.3301 18.4152 18.4443C18.2051 18.5583 17.9808 18.6505 17.7423 18.721L17.5288 20.048H16.1058ZM2.5 19.3078V17.0845C2.5 16.5795 2.62883 16.1222 2.8865 15.7125C3.14417 15.3028 3.50383 14.9858 3.9655 14.7615C4.79617 14.3475 5.69358 14.0017 6.65775 13.724C7.62175 13.4465 8.73583 13.3078 10 13.3078H10.2923C10.3794 13.3078 10.4666 13.318 10.5538 13.3385C10.1666 14.3077 10.0035 15.3278 10.0645 16.399C10.1253 17.4702 10.4308 18.4398 10.9808 19.3078H2.5ZM16.8077 17.5385C17.3321 17.5385 17.7804 17.3523 18.1528 16.9798C18.5252 16.6073 18.7115 16.1588 18.7115 15.6345C18.7115 15.1102 18.5252 14.6618 18.1528 14.2895C17.7804 13.917 17.3321 13.7308 16.8077 13.7308C16.2834 13.7308 15.835 13.917 15.4625 14.2895C15.09 14.6618 14.9038 15.1102 14.9038 15.6345C14.9038 16.1588 15.09 16.6073 15.4625 16.9798C15.835 17.3523 16.2834 17.5385 16.8077 17.5385ZM10 11.6923C9.03467 11.6923 8.21 11.3503 7.526 10.6663C6.842 9.98243 6.5 9.15776 6.5 8.19226C6.5 7.22693 6.842 6.40226 7.526 5.71826C8.21 5.03426 9.03467 4.69226 10 4.69226C10.9653 4.69226 11.79 5.03426 12.474 5.71826C13.158 6.40226 13.5 7.22693 13.5 8.19226C13.5 9.15776 13.158 9.98243 12.474 10.6663C11.79 11.3503 10.9653 11.6923 10 11.6923Z" fill="black"/>
</svg>
