<svg width="24" height="24" viewBox="0 0 24 24" fill="none" xmlns="http://www.w3.org/2000/svg">
<path d="M10.9423 17H13.0578V14.5H15.5577V12.3847H13.0578V9.88474H10.9423V12.3847H8.44225V14.5H10.9423V17ZM7.30775 20.4422C6.81058 20.4422 6.385 20.2652 6.031 19.9112C5.677 19.5572 5.5 19.1317 5.5 18.6345V8.24999C5.5 7.75282 5.677 7.32724 6.031 6.97324C6.385 6.61924 6.81058 6.44224 7.30775 6.44224H16.6923C17.1894 6.44224 17.615 6.61924 17.969 6.97324C18.323 7.32724 18.5 7.75282 18.5 8.24999V18.6345C18.5 19.1317 18.323 19.5572 17.969 19.9112C17.615 20.2652 17.1894 20.4422 16.6923 20.4422H7.30775ZM7.30775 18.9422H16.6923C16.7692 18.9422 16.8398 18.9102 16.9038 18.8462C16.9679 18.7821 17 18.7115 17 18.6345V8.24999C17 8.17316 16.9679 8.10266 16.9038 8.03849C16.8398 7.97432 16.7692 7.94224 16.6923 7.94224H7.30775C7.23075 7.94224 7.16025 7.97432 7.09625 8.03849C7.03208 8.10266 7 8.17316 7 8.24999V18.6345C7 18.7115 7.03208 18.7821 7.09625 18.8462C7.16025 18.9102 7.23075 18.9422 7.30775 18.9422ZM6.23075 5.05774V3.55774H17.7693V5.05774H6.23075Z" fill="black"/>
</svg>
