<svg width="24" height="24" viewBox="0 0 24 24" fill="none" xmlns="http://www.w3.org/2000/svg">
<path d="M7.34625 17.75H8.84625V15.75H10.8463V14.25H8.84625V12.25H7.34625V14.25H5.34625V15.75H7.34625V17.75ZM13 14.4038H18.75V13.2115H13V14.4038ZM13 17.096H16.75V15.9038H13V17.096ZM4.30775 21.5C3.80258 21.5 3.375 21.325 3.025 20.975C2.675 20.625 2.5 20.1974 2.5 19.6923V9.30775C2.5 8.80258 2.675 8.375 3.025 8.025C3.375 7.675 3.80258 7.5 4.30775 7.5H9.5V4C9.5 3.58467 9.64617 3.23083 9.9385 2.9385C10.2308 2.64617 10.5847 2.5 11 2.5H13C13.4153 2.5 13.7692 2.64617 14.0615 2.9385C14.3538 3.23083 14.5 3.58467 14.5 4V7.5H19.6923C20.1974 7.5 20.625 7.675 20.975 8.025C21.325 8.375 21.5 8.80258 21.5 9.30775V19.6923C21.5 20.1974 21.325 20.625 20.975 20.975C20.625 21.325 20.1974 21.5 19.6923 21.5H4.30775ZM4.30775 20H19.6923C19.7821 20 19.8558 19.9712 19.9135 19.9135C19.9712 19.8558 20 19.7821 20 19.6923V9.30775C20 9.21792 19.9712 9.14417 19.9135 9.0865C19.8558 9.02883 19.7821 9 19.6923 9H14.5V9.38475C14.5 9.79358 14.3523 10.1458 14.0568 10.4413C13.7613 10.7368 13.409 10.8845 13 10.8845H11C10.591 10.8845 10.2388 10.7368 9.94325 10.4413C9.64775 10.1458 9.5 9.79358 9.5 9.38475V9H4.30775C4.21792 9 4.14417 9.02883 4.0865 9.0865C4.02883 9.14417 4 9.21792 4 9.30775V19.6923C4 19.7821 4.02883 19.8558 4.0865 19.9135C4.14417 19.9712 4.21792 20 4.30775 20ZM11 9.38475H13V4H11V9.38475Z" fill="black"/>
</svg>
