<svg width="24" height="24" viewBox="0 0 24 24" fill="none" xmlns="http://www.w3.org/2000/svg">
<path d="M11.9999 18.5C10.9974 18.5 10.0031 18.4599 9.01712 18.3797C8.03128 18.2996 7.04545 18.1826 6.05962 18.0287C5.61462 17.9621 5.24345 17.7605 4.94612 17.424C4.64862 17.0875 4.49987 16.6916 4.49987 16.2365V15.625C3.65753 15.4108 2.97745 14.9679 2.45962 14.2962C1.94162 13.6244 1.68262 12.859 1.68262 12C1.68262 11.1576 1.94162 10.4006 2.45962 9.72873C2.97745 9.05706 3.65753 8.61098 4.49987 8.39048V7.35573C4.49987 6.86089 4.67937 6.43273 5.03837 6.07123C5.39737 5.70973 5.82945 5.53531 6.33462 5.54798C6.76012 5.56081 7.1857 5.60506 7.61137 5.68073C8.03703 5.75639 8.46778 5.80773 8.90362 5.83473C9.41395 5.88856 9.92587 5.92123 10.4394 5.93273C10.9527 5.94423 11.4729 5.94998 11.9999 5.94998C12.478 5.94998 12.9562 5.94323 13.4344 5.92973C13.9127 5.91639 14.396 5.88789 14.8844 5.84423C15.3485 5.81089 15.8053 5.75798 16.2546 5.68548C16.704 5.61314 17.1607 5.56731 17.6249 5.54798C18.13 5.52881 18.5688 5.69748 18.9411 6.05398C19.3136 6.41031 19.4999 6.84423 19.4999 7.35573V8.39048C20.3319 8.61098 21.0095 9.05706 21.5326 9.72873C22.0556 10.4006 22.3171 11.1576 22.3171 12C22.3171 12.859 22.0556 13.6218 21.5326 14.2885C21.0095 14.9551 20.3319 15.3955 19.4999 15.6095V16.2212C19.4999 16.6762 19.347 17.072 19.0411 17.4085C18.7355 17.7451 18.3601 17.9519 17.9151 18.0287C16.9293 18.1929 15.945 18.3125 14.9624 18.3875C13.9797 18.4625 12.9922 18.5 11.9999 18.5ZM11.9999 17C12.955 17 13.9069 16.9599 14.8556 16.8797C15.8043 16.7996 16.7562 16.6826 17.7114 16.5287C17.7947 16.5159 17.861 16.4832 17.9104 16.4307C17.9597 16.3782 17.9895 16.3084 17.9999 16.2212V7.33648C17.9999 7.24681 17.9662 7.16989 17.8989 7.10573C17.8315 7.04156 17.753 7.01589 17.6634 7.02873C16.721 7.17239 15.7771 7.27848 14.8316 7.34698C13.8861 7.41564 12.9422 7.44998 11.9999 7.44998C11.0409 7.44998 10.0886 7.41564 9.14312 7.34698C8.19762 7.27848 7.25887 7.17239 6.32687 7.02873C6.22687 7.01589 6.14737 7.04414 6.08837 7.11348C6.02937 7.18264 5.99987 7.25698 5.99987 7.33648V16.2212C5.99987 16.2981 6.02553 16.3653 6.07687 16.423C6.12803 16.4806 6.19528 16.5159 6.27862 16.5287C7.23378 16.6826 8.1832 16.7996 9.12687 16.8797C10.0704 16.9599 11.028 17 11.9999 17ZM11.9999 15.25C12.7102 15.25 13.4131 15.2099 14.1086 15.1297C14.8041 15.0496 15.4986 14.9146 16.1921 14.725C16.3986 14.6608 16.5525 14.5426 16.6536 14.3702C16.755 14.1977 16.7735 14.0102 16.7094 13.8077C16.6454 13.6116 16.5255 13.4602 16.3499 13.3537C16.1742 13.2474 15.9883 13.2263 15.7921 13.2905C15.1691 13.4635 14.5413 13.5833 13.9086 13.65C13.2758 13.7166 12.6395 13.75 11.9999 13.75C11.3537 13.75 10.7133 13.7176 10.0786 13.653C9.44412 13.5881 8.81528 13.4641 8.19212 13.2807C7.98962 13.2167 7.80212 13.2369 7.62962 13.3412C7.45728 13.4457 7.33903 13.5961 7.27487 13.7922C7.2107 13.9949 7.23187 14.1824 7.33837 14.3547C7.4447 14.5272 7.5992 14.6455 7.80187 14.7095C8.48253 14.9198 9.17228 15.0625 9.87112 15.1375C10.5698 15.2125 11.2794 15.25 11.9999 15.25ZM4.49987 14.023V9.99223C4.09353 10.1756 3.77237 10.4477 3.53637 10.8087C3.30053 11.1696 3.18262 11.5666 3.18262 12C3.18262 12.45 3.30053 12.8538 3.53637 13.2115C3.77237 13.5691 4.09353 13.8396 4.49987 14.023ZM19.4999 14.023C19.8895 13.8396 20.2065 13.5691 20.4509 13.2115C20.695 12.8538 20.8171 12.45 20.8171 12C20.8171 11.5666 20.695 11.1696 20.4509 10.8087C20.2065 10.4477 19.8895 10.1756 19.4999 9.99223V14.023ZM11.9999 11.25C12.7102 11.25 13.4131 11.2099 14.1086 11.1297C14.8041 11.0496 15.4986 10.9146 16.1921 10.725C16.3986 10.6608 16.5525 10.5426 16.6536 10.3702C16.755 10.1977 16.7735 10.0102 16.7094 9.80773C16.6454 9.61156 16.5255 9.46023 16.3499 9.35373C16.1742 9.24739 15.9883 9.22631 15.7921 9.29048C15.1691 9.46348 14.5413 9.58331 13.9086 9.64998C13.2758 9.71664 12.6395 9.74998 11.9999 9.74998C11.3537 9.74998 10.7133 9.71506 10.0786 9.64523C9.44412 9.57539 8.81528 9.45389 8.19212 9.28073C7.98962 9.22306 7.80212 9.24489 7.62962 9.34623C7.45728 9.44739 7.33903 9.60123 7.27487 9.80773C7.2107 10.0102 7.2277 10.1977 7.32587 10.3702C7.42387 10.5426 7.57928 10.6608 7.79212 10.725C8.47928 10.9146 9.17228 11.0496 9.87112 11.1297C10.5698 11.2099 11.2794 11.25 11.9999 11.25Z" fill="black"/>
</svg>
