<svg width="24" height="24" viewBox="0 0 24 24" fill="none" xmlns="http://www.w3.org/2000/svg">
<path d="M17.2402 14.1808L16.1365 13.0578C16.2993 12.7706 16.4246 12.4523 16.5125 12.1028C16.6003 11.7534 16.6442 11.3859 16.6442 11H18.1442C18.1442 11.618 18.0647 12.1889 17.9057 12.7125C17.7467 13.2362 17.5249 13.7256 17.2402 14.1808ZM14.021 10.9308L9.14421 6.03452V5.00002C9.14421 4.30136 9.38621 3.71002 9.87021 3.22602C10.3542 2.74202 10.9455 2.50002 11.6442 2.50002C12.3429 2.50002 12.9342 2.74202 13.4182 3.22602C13.9022 3.71002 14.1442 4.30136 14.1442 5.00002V10.346C14.1442 10.4589 14.1314 10.5614 14.1057 10.6538C14.08 10.7461 14.0518 10.8384 14.021 10.9308ZM10.8942 20.75V17.4578C9.24421 17.2628 7.87338 16.5528 6.78171 15.3278C5.69004 14.1028 5.14421 12.6602 5.14421 11H6.64421C6.64421 12.3834 7.13171 13.5625 8.10671 14.5375C9.08171 15.5125 10.2609 16 11.6442 16C12.2877 16 12.8925 15.8853 13.4587 15.6558C14.0247 15.4263 14.5256 15.1084 14.9615 14.702L16.0307 15.771C15.5474 16.225 14.9974 16.5988 14.3807 16.8923C13.764 17.1859 13.1019 17.3744 12.3942 17.4578V20.75H10.8942ZM19.8672 21.7153L1.67871 3.52677L2.73271 2.47302L20.9212 20.6615L19.8672 21.7153Z" fill="black"/>
</svg>
