<svg width="24" height="24" viewBox="0 0 24 24" fill="none" xmlns="http://www.w3.org/2000/svg">
<path d="M12 13.5C11.3013 13.5 10.71 13.258 10.226 12.774C9.742 12.29 9.5 11.6987 9.5 11V5C9.5 4.30133 9.742 3.71 10.226 3.226C10.71 2.742 11.3013 2.5 12 2.5C12.6987 2.5 13.29 2.742 13.774 3.226C14.258 3.71 14.5 4.30133 14.5 5V11C14.5 11.6987 14.258 12.29 13.774 12.774C13.29 13.258 12.6987 13.5 12 13.5ZM11.25 20.75V17.4538C9.6 17.2653 8.22917 16.5576 7.1375 15.3307C6.04583 14.1037 5.5 12.6602 5.5 11H7C7 12.3833 7.4875 13.5625 8.4625 14.5375C9.4375 15.5125 10.6167 16 12 16C13.3833 16 14.5625 15.5125 15.5375 14.5375C16.5125 13.5625 17 12.3833 17 11H18.5C18.5 12.6602 17.9542 14.1037 16.8625 15.3307C15.7708 16.5576 14.4 17.2653 12.75 17.4538V20.75H11.25Z" fill="black"/>
</svg>
