<svg width="24" height="24" viewBox="0 0 24 24" fill="none" xmlns="http://www.w3.org/2000/svg">
<path d="M17.9994 12.0002C17.9994 14.5801 17.985 17.162 17.9994 19.744C18.0107 20.2572 17.8358 20.7581 17.5052 21.1599C17.1746 21.5616 16.7091 21.839 16.1892 21.9439C16.0286 21.9769 15.8651 21.995 15.7009 21.9979C13.2335 21.9992 10.7625 21.9999 8.28817 21.9999C7.76624 22.005 7.25837 21.8364 6.84969 21.5226C6.441 21.2087 6.15635 20.7686 6.04345 20.2759C6.01318 20.1271 5.99931 19.9756 6.00207 19.824C6.00069 14.6081 6 9.39425 6 4.1824C6.00369 3.64394 6.21286 3.12574 6.58739 2.72715C6.96192 2.32856 7.47546 2.07763 8.02956 2.02247C8.16284 2.0081 8.29682 2.00076 8.43092 2.00047H15.6223C16.1162 1.99082 16.6009 2.13067 17.0085 2.40046C17.3195 2.59314 17.574 2.85991 17.7475 3.17513C17.921 3.49034 18.0078 3.84341 17.9994 4.2004C17.9994 6.80433 17.9994 9.40425 17.9994 12.0002ZM17.0912 11.9722V5.77236C17.0912 5.49037 16.9712 5.37237 16.6774 5.37237H7.32821C7.02823 5.37237 6.91444 5.48637 6.91444 5.77236V18.154C6.91444 18.448 7.03237 18.554 7.32821 18.554H16.6754C16.9671 18.554 17.0891 18.434 17.0891 18.154L17.0912 11.9722ZM11.9997 21.2679C12.2043 21.2679 12.4043 21.2093 12.5744 21.0994C12.7445 20.9895 12.8771 20.8333 12.9554 20.6506C13.0337 20.4679 13.0542 20.2668 13.0143 20.0729C12.9744 19.8789 12.8758 19.7007 12.7312 19.5609C12.5865 19.421 12.4022 19.3258 12.2015 19.2872C12.0009 19.2486 11.7929 19.2684 11.6039 19.3441C11.4148 19.4198 11.2533 19.5479 11.1396 19.7124C11.026 19.8768 10.9653 20.0702 10.9653 20.2679C10.9653 20.5331 11.0743 20.7875 11.2683 20.975C11.4623 21.1626 11.7254 21.2679 11.9997 21.2679ZM11.9997 3.66842H13.5803C13.6074 3.67119 13.6347 3.66878 13.6608 3.66134C13.6869 3.65389 13.7112 3.64155 13.7323 3.62502C13.7534 3.60849 13.771 3.58809 13.784 3.565C13.7969 3.5419 13.8051 3.51656 13.8079 3.49042C13.8079 3.43738 13.7861 3.38651 13.7473 3.34901C13.7085 3.3115 13.6559 3.29043 13.601 3.29043H10.4605C10.4128 3.2842 10.3643 3.29259 10.3219 3.31443C10.2701 3.35843 10.206 3.42043 10.206 3.47642C10.206 3.53242 10.2701 3.59642 10.3198 3.63842C10.3632 3.6596 10.4124 3.66729 10.4605 3.66042L11.9997 3.66842Z" fill="black"/>
</svg>
