<svg width="24" height="24" viewBox="0 0 24 24" fill="none" xmlns="http://www.w3.org/2000/svg">
<path d="M11.2555 20.75V18.6578C10.385 18.5026 9.63536 18.1625 9.00653 17.6375C8.3777 17.1125 7.91328 16.3783 7.61328 15.4348L9.00178 14.8577C9.27095 15.6321 9.65453 16.2244 10.1525 16.6348C10.6507 17.0449 11.3158 17.25 12.1478 17.25C12.8696 17.25 13.5065 17.0783 14.0585 16.7348C14.6104 16.3911 14.8863 15.8462 14.8863 15.1C14.8863 14.4525 14.6789 13.9355 14.2643 13.549C13.8494 13.1625 12.9914 12.759 11.6903 12.3385C10.3274 11.9077 9.38095 11.4038 8.85078 10.827C8.32061 10.25 8.05553 9.52433 8.05553 8.65C8.05553 7.64367 8.40878 6.85167 9.11528 6.274C9.82161 5.6965 10.535 5.37567 11.2555 5.3115V3.25H12.7555V5.3115C13.5184 5.41283 14.1594 5.66092 14.6785 6.05575C15.1979 6.45058 15.6017 6.96408 15.89 7.59625L14.521 8.223C14.3017 7.741 13.9959 7.36667 13.6035 7.1C13.2114 6.83333 12.6954 6.7 12.0555 6.7C11.303 6.7 10.6982 6.88333 10.241 7.25C9.78403 7.61667 9.55553 8.08333 9.55553 8.65C9.55553 9.232 9.78953 9.69742 10.2575 10.0462C10.7254 10.3949 11.5952 10.7603 12.867 11.1423C14.049 11.5013 14.9311 12.0128 15.5133 12.677C16.0953 13.341 16.3863 14.1384 16.3863 15.0693C16.3863 16.1628 16.0347 17.0114 15.3315 17.6152C14.6284 18.2192 13.7697 18.577 12.7555 18.6885V20.75H11.2555Z" fill="black"/>
</svg>
