<svg width="24" height="24" viewBox="0 0 24 24" fill="none" xmlns="http://www.w3.org/2000/svg">
<path d="M5.69229 21.3078V13H7.50004V8.74628L4.19629 5.44228L7.85004 1.79828L8.89429 2.84228L6.30379 5.44228L9.00004 8.13853V13H10.8078V21.3078H5.69229ZM13.1923 21.3078V13H15V9.91353C14.1975 9.73786 13.529 9.33153 12.9943 8.69453C12.4596 8.05753 12.1923 7.30678 12.1923 6.44228C12.1923 5.45778 12.5391 4.6187 13.2328 3.92503C13.9263 3.23153 14.7654 2.88478 15.75 2.88478C16.7347 2.88478 17.5738 3.23153 18.2673 3.92503C18.961 4.6187 19.3078 5.45778 19.3078 6.44228C19.3078 7.30678 19.0405 8.05753 18.5058 8.69453C17.9711 9.33153 17.3025 9.73786 16.5 9.91353V13H18.3078V21.3078H13.1923ZM15.7535 8.50003C16.3204 8.50003 16.8045 8.2982 17.2058 7.89453C17.6071 7.49086 17.8078 7.00561 17.8078 6.43878C17.8078 5.87195 17.6066 5.38786 17.2043 4.98653C16.802 4.58536 16.3183 4.38478 15.7533 4.38478C15.1883 4.38478 14.7035 4.58595 14.299 4.98828C13.8945 5.39061 13.6923 5.8742 13.6923 6.43903C13.6923 7.00403 13.8941 7.48878 14.2978 7.89328C14.7015 8.29778 15.1867 8.50003 15.7535 8.50003Z" fill="black"/>
</svg>
