<svg width="24" height="24" viewBox="0 0 24 24" fill="none" xmlns="http://www.w3.org/2000/svg">
<path d="M11.9999 21.7C11.2781 21.7 10.4406 21.6057 9.48744 21.4172C8.53427 21.2287 7.78011 21.0191 7.22494 20.7885C7.04161 20.7115 6.89094 20.5886 6.77294 20.42C6.65511 20.2513 6.59619 20.0658 6.59619 19.8635V19.0462H5.74994C5.49394 19.0462 5.27927 18.9596 5.10594 18.7862C4.93277 18.6131 4.84619 18.3984 4.84619 18.1422V16.7622C4.84619 16.5016 4.93277 16.285 5.10594 16.1125C5.27927 15.94 5.49394 15.8537 5.74994 15.8537H6.59619V13.5462H5.74994C5.49394 13.5462 5.27927 13.4596 5.10594 13.2862C4.93277 13.1131 4.84619 12.8984 4.84619 12.6422V11.2622C4.84619 11.0016 4.93277 10.785 5.10594 10.6125C5.27927 10.44 5.49394 10.3537 5.74994 10.3537H6.59619V8.14223H5.74994C5.49394 8.14223 5.27927 8.05564 5.10594 7.88248C4.93277 7.70914 4.84619 7.49448 4.84619 7.23848V5.85823C4.84619 5.59756 4.93277 5.38106 5.10594 5.20873C5.27927 5.03623 5.49394 4.94998 5.74994 4.94998H6.59619V3.65198C6.59619 3.35265 6.71252 3.12815 6.94519 2.97848C7.17786 2.82881 7.43202 2.80781 7.70769 2.91548C7.95519 2.99231 8.47761 3.14231 9.27494 3.36548C10.0724 3.58848 10.9808 3.69998 11.9999 3.69998C13.0191 3.69998 13.9274 3.58681 14.7249 3.36048C15.5223 3.13431 16.0447 2.98273 16.2922 2.90573C16.5679 2.79806 16.822 2.82248 17.0547 2.97898C17.2874 3.13548 17.4037 3.35656 17.4037 3.64223V4.94998H18.2499C18.5059 4.94998 18.7206 5.03656 18.8939 5.20973C19.0671 5.38306 19.1537 5.59773 19.1537 5.85373V7.23398C19.1537 7.49464 19.0671 7.71123 18.8939 7.88373C18.7206 8.05606 18.5059 8.14223 18.2499 8.14223H17.4037V10.3537H18.2499C18.5059 10.3537 18.7206 10.4404 18.8939 10.6137C19.0671 10.7869 19.1537 11.0016 19.1537 11.2577V12.6377C19.1537 12.8984 19.0671 13.115 18.8939 13.2875C18.7206 13.46 18.5059 13.5462 18.2499 13.5462H17.4037V15.8537H18.2499C18.5059 15.8537 18.7206 15.9404 18.8939 16.1137C19.0671 16.2869 19.1537 16.5016 19.1537 16.7577V18.1377C19.1537 18.3984 19.0671 18.615 18.8939 18.7875C18.7206 18.96 18.5059 19.0462 18.2499 19.0462H17.4037V19.8635C17.4037 20.0658 17.3448 20.2513 17.2269 20.42C17.1089 20.5886 16.9583 20.7115 16.7749 20.7885C16.2198 21.0191 15.4656 21.2287 14.5124 21.4172C13.5593 21.6057 12.7218 21.7 11.9999 21.7ZM11.9999 9.09998C12.6333 9.09998 13.2897 9.04165 13.9692 8.92498C14.6487 8.80831 15.2935 8.64164 15.9037 8.42498V4.59998C15.2769 4.78331 14.6304 4.92914 13.9644 5.03748C13.2984 5.14581 12.642 5.19998 11.9952 5.19998C11.365 5.19998 10.7169 5.14581 10.0509 5.03748C9.38494 4.92914 8.73336 4.78331 8.09619 4.59998V8.42498C8.69619 8.64164 9.33844 8.80831 10.0229 8.92498C10.7076 9.04165 11.3666 9.09998 11.9999 9.09998ZM11.9999 14.8C12.6229 14.8 13.2742 14.7401 13.9537 14.6202C14.6332 14.5004 15.2832 14.327 15.9037 14.1V9.99998C15.2154 10.1871 14.5484 10.3339 13.9029 10.4402C13.2573 10.5467 12.6229 10.6 11.9999 10.6C11.3563 10.6 10.704 10.5484 10.0432 10.4452C9.38236 10.3419 8.73336 10.1935 8.09619 9.99998V14.1C8.71669 14.327 9.36669 14.5004 10.0462 14.6202C10.7257 14.7401 11.3769 14.8 11.9999 14.8ZM11.9999 20.2C12.6333 20.2 13.2897 20.1416 13.9692 20.025C14.6487 19.9083 15.2935 19.7416 15.9037 19.525V15.7C15.2769 15.8833 14.6304 16.0291 13.9644 16.1375C13.2984 16.2458 12.642 16.3 11.9952 16.3C11.365 16.3 10.7169 16.2458 10.0509 16.1375C9.38494 16.0291 8.73336 15.8833 8.09619 15.7V19.525C8.69619 19.7416 9.33844 19.9083 10.0229 20.025C10.7076 20.1416 11.3666 20.2 11.9999 20.2Z" fill="black"/>
</svg>
