<svg width="24" height="24" viewBox="0 0 24 24" fill="none" xmlns="http://www.w3.org/2000/svg">
<path d="M17.1923 21.5C15.9436 21.5 14.8814 21.0622 14.0058 20.1865C13.1301 19.3108 12.6923 18.2487 12.6923 17C12.6923 15.7513 13.1301 14.6892 14.0058 13.8135C14.8814 12.9378 15.9436 12.5 17.1923 12.5C18.4411 12.5 19.5033 12.9378 20.3788 13.8135C21.2544 14.6892 21.6923 15.7513 21.6923 17C21.6923 18.2487 21.2544 19.3108 20.3788 20.1865C19.5033 21.0622 18.4411 21.5 17.1923 21.5ZM18.8578 19.2885L19.4808 18.6655L17.6348 16.8192V14.0577H16.75V17.1807L18.8578 19.2885ZM5.30775 20.5C4.80908 20.5 4.38308 20.3234 4.02975 19.9702C3.67658 19.6169 3.5 19.1909 3.5 18.6922V5.30774C3.5 4.80907 3.67658 4.38307 4.02975 4.02974C4.38308 3.67657 4.80908 3.49999 5.30775 3.49999H9.7135C9.852 3.01282 10.135 2.60899 10.5625 2.28849C10.99 1.96799 11.4692 1.80774 12 1.80774C12.5513 1.80774 13.0382 1.96799 13.4605 2.28849C13.883 2.60899 14.1635 3.01282 14.302 3.49999H18.6923C19.1909 3.49999 19.6169 3.67657 19.9703 4.02974C20.3234 4.38307 20.5 4.80907 20.5 5.30774V11.4422C20.264 11.2897 20.0243 11.1593 19.7808 11.051C19.5371 10.9427 19.2768 10.8462 19 10.7615V5.30774C19 5.23074 18.9679 5.16024 18.9038 5.09624C18.8398 5.03207 18.7693 4.99999 18.6923 4.99999H16.5V7.61524H7.5V4.99999H5.30775C5.23075 4.99999 5.16025 5.03207 5.09625 5.09624C5.03208 5.16024 5 5.23074 5 5.30774V18.6922C5 18.7821 5.02883 18.8558 5.0865 18.9135C5.14417 18.9712 5.21792 19 5.30775 19H11.0213C11.1059 19.2768 11.204 19.5387 11.3155 19.7855C11.427 20.0323 11.5654 20.2705 11.7308 20.5H5.30775ZM12 5.11549C12.2577 5.11549 12.4728 5.02924 12.6453 4.85674C12.8176 4.68424 12.9038 4.46916 12.9038 4.21149C12.9038 3.95382 12.8176 3.73874 12.6453 3.56624C12.4728 3.39391 12.2577 3.30774 12 3.30774C11.7423 3.30774 11.5273 3.39391 11.3548 3.56624C11.1824 3.73874 11.0963 3.95382 11.0963 4.21149C11.0963 4.46916 11.1824 4.68424 11.3548 4.85674C11.5273 5.02924 11.7423 5.11549 12 5.11549Z" fill="black"/>
</svg>
