<svg width="24" height="24" viewBox="0 0 24 24" fill="none" xmlns="http://www.w3.org/2000/svg">
<path d="M14.1155 20.5V17.8578L19.5443 12.4538C19.6686 12.3359 19.8028 12.2501 19.947 12.1963C20.0912 12.1424 20.2353 12.1155 20.3795 12.1155C20.5367 12.1155 20.6887 12.1449 20.8358 12.2038C20.9827 12.2628 21.1163 12.3513 21.2365 12.4693L22.1615 13.4038C22.2692 13.5283 22.3525 13.6629 22.4115 13.8078C22.4705 13.9526 22.5 14.0974 22.5 14.2423C22.5 14.3871 22.4747 14.5345 22.424 14.6845C22.3733 14.8345 22.2858 14.9717 22.1615 15.096L16.7578 20.5H14.1155ZM4.5 19.3078V17.0845C4.5 16.5948 4.633 16.1413 4.899 15.724C5.165 15.3067 5.5205 14.9858 5.9655 14.7615C6.95383 14.277 7.95092 13.9136 8.95675 13.6713C9.96258 13.4289 10.977 13.3078 12 13.3078C12.5333 13.3078 13.0632 13.3404 13.5895 13.4058C14.1157 13.4711 14.6435 13.5711 15.173 13.7058L11.923 16.9463V19.3078H4.5ZM20.3828 15.2078L21.3078 14.2423L20.3828 13.3078L19.4327 14.2578L20.3828 15.2078ZM12 11.6923C11.0375 11.6923 10.2136 11.3496 9.52825 10.6643C8.84275 9.97876 8.5 9.15476 8.5 8.19226C8.5 7.22976 8.84275 6.40584 9.52825 5.72051C10.2136 5.03501 11.0375 4.69226 12 4.69226C12.9625 4.69226 13.7864 5.03501 14.4718 5.72051C15.1573 6.40584 15.5 7.22976 15.5 8.19226C15.5 9.15476 15.1573 9.97876 14.4718 10.6643C13.7864 11.3496 12.9625 11.6923 12 11.6923Z" fill="black"/>
</svg>
