<svg width="24" height="24" viewBox="0 0 24 24" fill="none" xmlns="http://www.w3.org/2000/svg">
<path d="M11 11.6923C10.0375 11.6923 9.21358 11.3496 8.52825 10.6643C7.84275 9.97876 7.5 9.15476 7.5 8.19226C7.5 7.22976 7.84275 6.40584 8.52825 5.72051C9.21358 5.03501 10.0375 4.69226 11 4.69226C11.9625 4.69226 12.7864 5.03501 13.4718 5.72051C14.1573 6.40584 14.5 7.22976 14.5 8.19226C14.5 9.15476 14.1573 9.97876 13.4718 10.6643C12.7864 11.3496 11.9625 11.6923 11 11.6923ZM21.6578 22.7115L18.727 19.7808C18.3898 19.9936 18.034 20.1603 17.6595 20.2808C17.2852 20.4013 16.8993 20.4615 16.502 20.4615C15.3982 20.4615 14.4616 20.0762 13.6923 19.3055C12.9231 18.5347 12.5385 17.5988 12.5385 16.4978C12.5385 15.3968 12.9238 14.4616 13.6945 13.6923C14.4653 12.9231 15.4013 12.5385 16.5023 12.5385C17.6033 12.5385 18.5384 12.9237 19.3077 13.694C20.0769 14.4643 20.4615 15.3997 20.4615 16.5C20.4615 16.8987 20.4012 17.2852 20.2808 17.6595C20.1602 18.034 19.9936 18.3898 19.7808 18.727L22.7115 21.6578L21.6578 22.7115ZM16.5 18.9615C17.1937 18.9615 17.7773 18.7247 18.251 18.251C18.7247 17.7773 18.9615 17.1937 18.9615 16.5C18.9615 15.8063 18.7247 15.2227 18.251 14.749C17.7773 14.2753 17.1937 14.0385 16.5 14.0385C15.8063 14.0385 15.2227 14.2753 14.749 14.749C14.2753 15.2227 14.0385 15.8063 14.0385 16.5C14.0385 17.1937 14.2753 17.7773 14.749 18.251C15.2227 18.7247 15.8063 18.9615 16.5 18.9615ZM11.448 13.327C10.8827 14.2385 10.5807 15.2321 10.5423 16.3078C10.5039 17.3833 10.7482 18.3833 11.275 19.3078H3.5V17.1C3.5 16.6038 3.6305 16.1478 3.8915 15.7318C4.15233 15.3158 4.51033 14.9923 4.9655 14.7615C5.75133 14.3667 6.69842 14.0161 7.80675 13.7098C8.91508 13.4033 10.1288 13.2757 11.448 13.327Z" fill="black"/>
</svg>
