<svg width="24" height="24" viewBox="0 0 24 24" fill="none" xmlns="http://www.w3.org/2000/svg">
<path d="M19.4827 22.0615L16.375 18.9537V19.3077H1.375V17.0845C1.375 16.5948 1.508 16.1413 1.774 15.724C2.04 15.3067 2.3955 14.9858 2.8405 14.7615C3.82883 14.277 4.82592 13.9136 5.83175 13.6712C6.83758 13.4289 7.852 13.3077 8.875 13.3077C9.22633 13.3077 9.57508 13.3263 9.92125 13.3635C10.2674 13.4007 10.6142 13.4597 10.9615 13.5405L9.10375 11.6827C9.07042 11.6891 9.03392 11.6922 8.99425 11.6922H8.875C7.9125 11.6922 7.08858 11.3496 6.40325 10.6642C5.71775 9.97875 5.375 9.15475 5.375 8.19225V8.073C5.375 8.03333 5.37825 7.99683 5.38475 7.9635L1.8135 4.39225L2.88275 3.323L20.5518 20.9922L19.4827 22.0615ZM18.125 13.75V10.75H15.125V9.25H18.125V6.25H19.625V9.25H22.625V10.75H19.625V13.75H18.125ZM12.052 9.64225L10.8558 8.44625C10.8621 8.40391 10.8669 8.36158 10.8702 8.31925C10.8734 8.27692 10.875 8.23458 10.875 8.19225C10.875 7.64225 10.6792 7.17142 10.2875 6.77975C9.89583 6.38808 9.425 6.19225 8.875 6.19225C8.83267 6.19225 8.79033 6.19392 8.748 6.19725C8.70567 6.20042 8.66342 6.20517 8.62125 6.2115L7.425 5.0155C7.643 4.90783 7.87558 4.82708 8.12275 4.77325C8.36992 4.71925 8.62067 4.69225 8.875 4.69225C9.8375 4.69225 10.6614 5.035 11.3468 5.7205C12.0323 6.40583 12.375 7.22975 12.375 8.19225C12.375 8.44658 12.3481 8.69733 12.2942 8.9445C12.2404 9.19183 12.1597 9.42442 12.052 9.64225ZM2.875 17.8077H14.875L12.9943 15.573C12.3289 15.3178 11.6488 15.1265 10.9537 14.999C10.2589 14.8715 9.566 14.8077 8.875 14.8077C7.96333 14.8077 7.05975 14.917 6.16425 15.1355C5.26892 15.3542 4.39042 15.6757 3.52875 16.1C3.32758 16.209 3.16833 16.3497 3.051 16.522C2.93367 16.6945 2.875 16.882 2.875 17.0845V17.8077Z" fill="black"/>
</svg>
