<svg width="24" height="24" viewBox="0 0 24 24" fill="none" xmlns="http://www.w3.org/2000/svg">
<path d="M3.37147 19.775L1.46572 17.9193C1.25922 17.7193 1.15755 17.4811 1.16072 17.2048C1.16405 16.9284 1.26888 16.6871 1.47522 16.4808C2.85855 15.0256 4.48088 13.915 6.34222 13.149C8.20355 12.383 10.0891 12 11.999 12C13.9088 12 15.7922 12.383 17.6492 13.149C19.5062 13.915 21.1315 15.0256 22.5252 16.4808C22.7316 16.6871 22.8364 16.9284 22.8397 17.2048C22.8429 17.4811 22.7412 17.7193 22.5347 17.9193L20.629 19.775C20.4265 19.9712 20.1996 20.0808 19.9482 20.1038C19.6971 20.1269 19.4651 20.0603 19.2522 19.9038L16.7367 17.9923C16.5714 17.8666 16.449 17.7273 16.3695 17.5743C16.29 17.4213 16.2502 17.2491 16.2502 17.0578V14.2365C15.5272 13.9917 14.8227 13.8077 14.1367 13.6845C13.4509 13.5615 12.7387 13.5 12.0002 13.5C11.2617 13.5 10.5496 13.5615 9.86372 13.6845C9.17772 13.8077 8.47322 13.9917 7.75022 14.2365V17.0578C7.75022 17.2491 7.71047 17.4213 7.63097 17.5743C7.55147 17.7273 7.42905 17.8666 7.26372 17.9923L4.74822 19.9038C4.53538 20.0603 4.30338 20.1269 4.05222 20.1038C3.80088 20.0808 3.57397 19.9712 3.37147 19.775ZM6.25022 14.725C5.65155 15.0135 5.07272 15.3538 4.51372 15.746C3.95472 16.1383 3.43355 16.5506 2.95022 16.9828C2.91822 17.0148 2.90222 17.0468 2.90222 17.0788C2.90222 17.1109 2.91822 17.143 2.95022 17.175L4.04647 18.2615C4.07847 18.2935 4.11847 18.3143 4.16647 18.324C4.21463 18.3337 4.25797 18.3225 4.29647 18.2905L6.13497 16.8808C6.16697 16.8551 6.19413 16.823 6.21647 16.7845C6.23897 16.7462 6.25022 16.7109 6.25022 16.6788V14.725ZM17.7502 14.7558V16.6788C17.7502 16.7109 17.7615 16.7462 17.784 16.7845C17.8063 16.823 17.8335 16.8551 17.8655 16.8808L19.704 18.2905C19.7425 18.3225 19.7858 18.3337 19.834 18.324C19.882 18.3143 19.922 18.2935 19.954 18.2615L21.0502 17.2058C21.0822 17.1738 21.0982 17.1417 21.0982 17.1095C21.0982 17.0775 21.0822 17.0455 21.0502 17.0135C20.5669 16.5608 20.0457 16.1409 19.4867 15.7538C18.9277 15.3666 18.3489 15.0339 17.7502 14.7558ZM11.979 11.023L7.00972 6.05376V9.00001H5.50997V3.50001H11.0097V5.00001H8.06372L11.9637 8.90001L17.4502 3.41351L18.5195 4.48276L11.979 11.023Z" fill="black"/>
</svg>
