<svg width="24" height="24" viewBox="0 0 24 24" fill="none" xmlns="http://www.w3.org/2000/svg">
<path d="M7.44602 8.15377C6.94485 8.15377 6.51768 7.97676 6.16452 7.62276C5.81135 7.26876 5.63477 6.84326 5.63477 6.34626V4.69227C5.63477 4.19527 5.81177 3.76977 6.16577 3.41577C6.51977 3.06177 6.94527 2.88477 7.44227 2.88477H16.554C17.0552 2.88477 17.4823 3.06177 17.8355 3.41577C18.1887 3.76977 18.3653 4.19527 18.3653 4.69227V6.34626C18.3653 6.84326 18.1883 7.26876 17.8343 7.62276C17.4803 7.97676 17.0548 8.15377 16.5578 8.15377H7.44602ZM7.44227 6.65401H16.5578C16.6539 6.65401 16.7293 6.62677 16.7838 6.57227C16.8381 6.51777 16.8653 6.44243 16.8653 6.34626V4.69227C16.8653 4.5961 16.8381 4.52085 16.7838 4.46651C16.7293 4.41201 16.6539 4.38477 16.5578 4.38477H7.44227C7.3461 4.38477 7.27077 4.41201 7.21627 4.46651C7.16193 4.52085 7.13477 4.5961 7.13477 4.69227V6.34626C7.13477 6.44243 7.16193 6.51777 7.21627 6.57227C7.27077 6.62677 7.3461 6.65401 7.44227 6.65401ZM4.69227 21.1153C4.19527 21.1153 3.76977 20.9383 3.41577 20.5843C3.06177 20.2303 2.88477 19.8048 2.88477 19.3078V18.3078H21.1153V19.3078C21.1153 19.8064 20.9383 20.2323 20.5843 20.5855C20.2303 20.9387 19.8048 21.1153 19.3078 21.1153H4.69227ZM2.88477 17.423L5.98302 10.227C6.13152 9.88985 6.35718 9.62668 6.66002 9.43752C6.96285 9.24835 7.28835 9.15377 7.63652 9.15377H16.3635C16.7117 9.15377 17.0372 9.24835 17.34 9.43752C17.6428 9.62668 17.8685 9.88985 18.017 10.227L21.1153 17.423H2.88477ZM8.61552 15.6153H9.61552C9.73335 15.6153 9.83652 15.5711 9.92502 15.4828C10.0135 15.3943 10.0578 15.291 10.0578 15.173C10.0578 15.0552 10.0135 14.952 9.92502 14.8635C9.83652 14.775 9.73335 14.7308 9.61552 14.7308H8.61552C8.49752 14.7308 8.39427 14.775 8.30577 14.8635C8.21727 14.952 8.17302 15.0552 8.17302 15.173C8.17302 15.291 8.21727 15.3943 8.30577 15.4828C8.39427 15.5711 8.49752 15.6153 8.61552 15.6153ZM8.61552 13.7308H9.61552C9.73335 13.7308 9.83652 13.6865 9.92502 13.598C10.0135 13.5095 10.0578 13.4063 10.0578 13.2885C10.0578 13.1705 10.0135 13.0673 9.92502 12.9788C9.83652 12.8904 9.73335 12.8463 9.61552 12.8463H8.61552C8.49752 12.8463 8.39427 12.8904 8.30577 12.9788C8.21727 13.0673 8.17302 13.1705 8.17302 13.2885C8.17302 13.4063 8.21727 13.5095 8.30577 13.598C8.39427 13.6865 8.49752 13.7308 8.61552 13.7308ZM8.61552 11.8463H9.61552C9.73335 11.8463 9.83652 11.802 9.92502 11.7135C10.0135 11.625 10.0578 11.5218 10.0578 11.4038C10.0578 11.2859 10.0135 11.1828 9.92502 11.0943C9.83652 11.0058 9.73335 10.9615 9.61552 10.9615H8.61552C8.49752 10.9615 8.39427 11.0058 8.30577 11.0943C8.21727 11.1828 8.17302 11.2859 8.17302 11.4038C8.17302 11.5218 8.21727 11.625 8.30577 11.7135C8.39427 11.802 8.49752 11.8463 8.61552 11.8463ZM11.5 15.6153H12.5C12.618 15.6153 12.7212 15.5711 12.8095 15.4828C12.898 15.3943 12.9423 15.291 12.9423 15.173C12.9423 15.0552 12.898 14.952 12.8095 14.8635C12.7212 14.775 12.618 14.7308 12.5 14.7308H11.5C11.382 14.7308 11.2788 14.775 11.1905 14.8635C11.102 14.952 11.0578 15.0552 11.0578 15.173C11.0578 15.291 11.102 15.3943 11.1905 15.4828C11.2788 15.5711 11.382 15.6153 11.5 15.6153ZM11.5 13.7308H12.5C12.618 13.7308 12.7212 13.6865 12.8095 13.598C12.898 13.5095 12.9423 13.4063 12.9423 13.2885C12.9423 13.1705 12.898 13.0673 12.8095 12.9788C12.7212 12.8904 12.618 12.8463 12.5 12.8463H11.5C11.382 12.8463 11.2788 12.8904 11.1905 12.9788C11.102 13.0673 11.0578 13.1705 11.0578 13.2885C11.0578 13.4063 11.102 13.5095 11.1905 13.598C11.2788 13.6865 11.382 13.7308 11.5 13.7308ZM11.5 11.8463H12.5C12.618 11.8463 12.7212 11.802 12.8095 11.7135C12.898 11.625 12.9423 11.5218 12.9423 11.4038C12.9423 11.2859 12.898 11.1828 12.8095 11.0943C12.7212 11.0058 12.618 10.9615 12.5 10.9615H11.5C11.382 10.9615 11.2788 11.0058 11.1905 11.0943C11.102 11.1828 11.0578 11.2859 11.0578 11.4038C11.0578 11.5218 11.102 11.625 11.1905 11.7135C11.2788 11.802 11.382 11.8463 11.5 11.8463ZM14.3845 15.6153H15.3845C15.5025 15.6153 15.6058 15.5711 15.6943 15.4828C15.7828 15.3943 15.827 15.291 15.827 15.173C15.827 15.0552 15.7828 14.952 15.6943 14.8635C15.6058 14.775 15.5025 14.7308 15.3845 14.7308H14.3845C14.2667 14.7308 14.1635 14.775 14.075 14.8635C13.9865 14.952 13.9423 15.0552 13.9423 15.173C13.9423 15.291 13.9865 15.3943 14.075 15.4828C14.1635 15.5711 14.2667 15.6153 14.3845 15.6153ZM14.3845 13.7308H15.3845C15.5025 13.7308 15.6058 13.6865 15.6943 13.598C15.7828 13.5095 15.827 13.4063 15.827 13.2885C15.827 13.1705 15.7828 13.0673 15.6943 12.9788C15.6058 12.8904 15.5025 12.8463 15.3845 12.8463H14.3845C14.2667 12.8463 14.1635 12.8904 14.075 12.9788C13.9865 13.0673 13.9423 13.1705 13.9423 13.2885C13.9423 13.4063 13.9865 13.5095 14.075 13.598C14.1635 13.6865 14.2667 13.7308 14.3845 13.7308ZM14.3845 11.8463H15.3845C15.5025 11.8463 15.6058 11.802 15.6943 11.7135C15.7828 11.625 15.827 11.5218 15.827 11.4038C15.827 11.2859 15.7828 11.1828 15.6943 11.0943C15.6058 11.0058 15.5025 10.9615 15.3845 10.9615H14.3845C14.2667 10.9615 14.1635 11.0058 14.075 11.0943C13.9865 11.1828 13.9423 11.2859 13.9423 11.4038C13.9423 11.5218 13.9865 11.625 14.075 11.7135C14.1635 11.802 14.2667 11.8463 14.3845 11.8463Z" fill="black"/>
</svg>
