<svg width="24" height="24" viewBox="0 0 24 24" fill="none" xmlns="http://www.w3.org/2000/svg">
<path d="M6.27881 20.5V18.8943C6.43914 18.7853 6.66639 18.6202 6.96056 18.399C7.25489 18.1778 7.54373 17.9032 7.82706 17.575C8.11039 17.2468 8.35656 16.8574 8.56556 16.4068C8.77439 15.9561 8.87881 15.4551 8.87881 14.9038C8.87881 14.6821 8.86631 14.4767 8.84131 14.2875C8.81631 14.0983 8.77756 13.9128 8.72506 13.7308H6.27881V12.2308H7.92306C7.48339 11.6551 7.09948 11.0551 6.77131 10.4307C6.44298 9.80642 6.27881 9.0795 6.27881 8.25C6.27881 6.78717 6.78814 5.5465 7.80681 4.528C8.82548 3.50933 10.0661 3 11.5288 3C12.616 3 13.5843 3.28817 14.4338 3.8645C15.2831 4.44067 15.911 5.191 16.3173 6.1155L14.9288 6.698C14.634 6.04417 14.1843 5.51442 13.5798 5.10875C12.9753 4.70292 12.2916 4.5 11.5288 4.5C10.4916 4.5 9.60739 4.86567 8.87606 5.597C8.14456 6.3285 7.77881 7.21283 7.77881 8.25C7.77881 9.0115 7.97239 9.675 8.35956 10.2405C8.74673 10.8058 9.20314 11.4693 9.72881 12.2308H13.7788V13.7308H10.2751C10.3147 13.9064 10.342 14.0904 10.3568 14.2828C10.3715 14.4751 10.3788 14.6821 10.3788 14.9038C10.3788 15.7436 10.201 16.5097 9.84531 17.202C9.48948 17.8943 9.04231 18.4937 8.50381 19H14.0288C14.7083 19 15.2359 18.8378 15.6116 18.5135C15.9872 18.1892 16.2577 17.7616 16.4231 17.2308L17.7308 17.8845C17.5218 18.6858 17.0718 19.3221 16.3808 19.7932C15.6898 20.2644 14.9058 20.5 14.0288 20.5H6.27881Z" fill="black"/>
</svg>
