<svg width="24" height="24" viewBox="0 0 24 24" fill="none" xmlns="http://www.w3.org/2000/svg">
<path d="M10.3655 21.75V16.5H8.5V9.71151C8.5 9.01284 8.742 8.42151 9.226 7.93751C9.71 7.45351 10.3013 7.21151 11 7.21151C11.6987 7.21151 12.29 7.45351 12.774 7.93751C13.258 8.42151 13.5 9.01284 13.5 9.71151C14.1 9.91668 14.5833 10.2846 14.95 10.8153C15.3167 11.3461 15.5 11.9333 15.5 12.577V16.5H12.6152V21.75H10.3655ZM11 5.88451C10.4885 5.88451 10.0529 5.70476 9.69325 5.34526C9.33358 4.98559 9.15375 4.55001 9.15375 4.03851C9.15375 3.52701 9.33358 3.09143 9.69325 2.73176C10.0529 2.37209 10.4885 2.19226 11 2.19226C11.5115 2.19226 11.9471 2.37209 12.3067 2.73176C12.6664 3.09143 12.8462 3.52701 12.8462 4.03851C12.8462 4.55001 12.6664 4.98559 12.3067 5.34526C11.9471 5.70476 11.5115 5.88451 11 5.88451Z" fill="black"/>
</svg>
