<svg width="24" height="24" viewBox="0 0 24 24" fill="none" xmlns="http://www.w3.org/2000/svg">
<path d="M17.1615 20.9193L18.4848 19.5865L16.4712 17.573L15.1385 18.8963C14.8475 19.1873 14.702 19.5244 14.702 19.9078C14.702 20.2911 14.8475 20.6283 15.1385 20.9193C15.4295 21.2103 15.7667 21.3558 16.15 21.3558C16.5333 21.3558 16.8705 21.2103 17.1615 20.9193ZM19.5288 18.5423L20.8615 17.2193C21.1525 16.9283 21.2964 16.5911 21.2932 16.2078C21.2901 15.8244 21.143 15.4873 20.852 15.1963C20.561 14.9116 20.2254 14.7677 19.8453 14.7645C19.4651 14.7612 19.1295 14.9051 18.8385 15.1963L17.5153 16.5288L19.5288 18.5423ZM18.2212 21.9885C17.6429 22.5667 16.9509 22.8542 16.1453 22.851C15.3394 22.8478 14.6474 22.5603 14.0693 21.9885C13.4974 21.4103 13.2099 20.7183 13.2068 19.9125C13.2036 19.1067 13.4911 18.4147 14.0693 17.8365L17.7788 14.127C18.3506 13.5552 19.0426 13.2693 19.8547 13.2693C20.6669 13.2693 21.3589 13.5552 21.9307 14.127C22.5089 14.7052 22.798 15.3972 22.798 16.203C22.798 17.0087 22.5089 17.7006 21.9307 18.2788L18.2212 21.9885ZM5.30775 20.5C4.80908 20.5 4.38308 20.3234 4.02975 19.9703C3.67658 19.6169 3.5 19.1909 3.5 18.6923V5.30775C3.5 4.80908 3.67658 4.38308 4.02975 4.02975C4.38308 3.67658 4.80908 3.5 5.30775 3.5H9.75775C9.82058 2.94483 10.0629 2.47275 10.4848 2.08375C10.9064 1.69458 11.4115 1.5 12 1.5C12.5948 1.5 13.1032 1.69458 13.525 2.08375C13.9468 2.47275 14.1859 2.94483 14.2423 3.5H18.6923C19.1909 3.5 19.6169 3.67658 19.9703 4.02975C20.3234 4.38308 20.5 4.80908 20.5 5.30775V10.9615C20.25 10.9102 20 10.8878 19.75 10.8943C19.5 10.9006 19.25 10.9223 19 10.9595V5.30775C19 5.21792 18.9712 5.14417 18.9135 5.0865C18.8558 5.02883 18.7821 5 18.6923 5H5.30775C5.21792 5 5.14417 5.02883 5.0865 5.0865C5.02883 5.14417 5 5.21792 5 5.30775V18.6923C5 18.7821 5.02883 18.8558 5.0865 18.9135C5.14417 18.9712 5.21792 19 5.30775 19H10.9115C10.868 19.25 10.843 19.5 10.8365 19.75C10.8302 20 10.8526 20.25 10.9037 20.5H5.30775ZM12 4.34625C12.2167 4.34625 12.3958 4.27542 12.5375 4.13375C12.6792 3.99208 12.75 3.81292 12.75 3.59625C12.75 3.37958 12.6792 3.20042 12.5375 3.05875C12.3958 2.91708 12.2167 2.84625 12 2.84625C11.7833 2.84625 11.6042 2.91708 11.4625 3.05875C11.3208 3.20042 11.25 3.37958 11.25 3.59625C11.25 3.81292 11.3208 3.99208 11.4625 4.13375C11.6042 4.27542 11.7833 4.34625 12 4.34625ZM7.25 8.86525V7.3655H16.75V8.86525H7.25ZM7.25 12.75V11.25H16.75V11.8788C16.6358 11.9558 16.5275 12.0388 16.425 12.128C16.3225 12.217 16.2142 12.3186 16.1 12.4328L15.7828 12.75H7.25ZM7.25 16.6345V15.1348H13.398L12.6442 15.8885C12.5173 16.0153 12.398 16.1397 12.2865 16.2615C12.175 16.3833 12.0712 16.5077 11.975 16.6345H7.25Z" fill="black"/>
</svg>
