<svg width="24" height="24" viewBox="0 0 24 24" fill="none" xmlns="http://www.w3.org/2000/svg">
<path d="M5.30775 20.5C4.81058 20.5 4.385 20.323 4.031 19.969C3.677 19.615 3.5 19.1894 3.5 18.6923V5.30775C3.5 4.81058 3.677 4.385 4.031 4.031C4.385 3.677 4.81058 3.5 5.30775 3.5H18.6923C19.1894 3.5 19.615 3.677 19.969 4.031C20.323 4.385 20.5 4.81058 20.5 5.30775V18.6923C20.5 19.1894 20.323 19.615 19.969 19.969C19.615 20.323 19.1894 20.5 18.6923 20.5H5.30775ZM5.30775 19H18.6923C18.7821 19 18.8558 18.9712 18.9135 18.9135C18.9712 18.8558 19 18.7821 19 18.6923V7H5V18.6923C5 18.7821 5.02883 18.8558 5.0865 18.9135C5.14417 18.9712 5.21792 19 5.30775 19ZM12 16.5C10.7743 16.5 9.67533 16.1757 8.703 15.527C7.7305 14.8782 7.01217 14.0358 6.548 13C7.01217 11.9642 7.7305 11.1218 8.703 10.473C9.67533 9.82433 10.7743 9.5 12 9.5C13.2257 9.5 14.3247 9.82433 15.297 10.473C16.2695 11.1218 16.9878 11.9642 17.452 13C16.9878 14.0358 16.2695 14.8782 15.297 15.527C14.3247 16.1757 13.2257 16.5 12 16.5ZM11.9978 14.3077C11.6339 14.3077 11.3254 14.1803 11.0723 13.9255C10.8189 13.6708 10.6923 13.3616 10.6923 12.9978C10.6923 12.6339 10.8197 12.3254 11.0745 12.0723C11.3292 11.8189 11.6384 11.6923 12.0022 11.6923C12.3661 11.6923 12.6746 11.8197 12.9277 12.0745C13.1811 12.3292 13.3077 12.6384 13.3077 13.0022C13.3077 13.3661 13.1803 13.6746 12.9255 13.9277C12.6708 14.1811 12.3616 14.3077 11.9978 14.3077ZM12 15.1923C12.6102 15.1923 13.1281 14.9794 13.5538 14.5538C13.9794 14.1281 14.1923 13.6102 14.1923 13C14.1923 12.3898 13.9794 11.8719 13.5538 11.4463C13.1281 11.0206 12.6102 10.8078 12 10.8078C11.3898 10.8078 10.8719 11.0206 10.4463 11.4463C10.0206 11.8719 9.80775 12.3898 9.80775 13C9.80775 13.6102 10.0206 14.1281 10.4463 14.5538C10.8719 14.9794 11.3898 15.1923 12 15.1923Z" fill="black"/>
</svg>
