<svg width="24" height="24" viewBox="0 0 24 24" fill="none" xmlns="http://www.w3.org/2000/svg">
<path d="M12.0484 16.5C10.8164 16.5 9.70941 16.1757 8.72741 15.527C7.74541 14.8782 7.01907 14.0358 6.54841 13C6.88174 12.2833 7.33399 11.6571 7.90516 11.1213C8.47632 10.5853 9.13949 10.1763 9.89466 9.89425L10.8389 10.8385C10.2146 11.0027 9.64882 11.2678 9.14166 11.6338C8.63466 11.9998 8.20491 12.4552 7.85241 13C8.30491 13.7257 8.90007 14.2917 9.63791 14.698C10.3757 15.1045 11.1792 15.3078 12.0484 15.3078C12.5101 15.3078 12.9582 15.2458 13.3927 15.122C13.8273 14.9983 14.2299 14.8243 14.6004 14.6L15.4639 15.4635C14.9754 15.7955 14.444 16.0513 13.8697 16.2308C13.2953 16.4103 12.6882 16.5 12.0484 16.5ZM16.9177 14.0923L16.0734 13.248C16.1004 13.2045 16.1273 13.1632 16.1542 13.124C16.1812 13.085 16.2081 13.0437 16.2349 13C15.9606 12.5462 15.6234 12.1555 15.2234 11.828C14.8234 11.5003 14.3779 11.2448 13.8869 11.0615L12.3734 9.548C13.5157 9.61217 14.5542 9.959 15.4889 10.5885C16.4234 11.218 17.1067 12.0218 17.5389 13C17.4517 13.1923 17.3601 13.3795 17.2639 13.5615C17.1677 13.7435 17.0523 13.9204 16.9177 14.0923ZM19.5927 21.7153L18.3582 20.4808C18.3262 20.4871 18.2973 20.4919 18.2717 20.4953C18.246 20.4984 18.2171 20.5 18.1849 20.5H5.30816C4.80949 20.5 4.38349 20.3234 4.03016 19.9703C3.67699 19.6169 3.50041 19.1909 3.50041 18.6923V5.8155C3.50041 5.78333 3.50199 5.75442 3.50516 5.72875C3.50849 5.70309 3.51657 5.6775 3.52941 5.652L2.28516 4.39225L3.33891 3.3385L20.6619 20.6615L19.5927 21.7153ZM5.30816 19H16.8774L5.00041 7.123V18.6923C5.00041 18.7821 5.02924 18.8558 5.08691 18.9135C5.14457 18.9712 5.21832 19 5.30816 19ZM20.5004 17.675L19.0004 16.175V8.077H10.9024L6.32541 3.5H18.6927C19.1913 3.5 19.6173 3.67658 19.9707 4.02975C20.3238 4.38308 20.5004 4.80908 20.5004 5.30775V17.675Z" fill="black"/>
</svg>
