<svg width="24" height="24" viewBox="0 0 24 24" fill="none" xmlns="http://www.w3.org/2000/svg">
<path d="M5.30775 21.5C4.80258 21.5 4.375 21.325 4.025 20.975C3.675 20.625 3.5 20.1974 3.5 19.6923V6.30777C3.5 5.8026 3.675 5.37502 4.025 5.02502C4.375 4.67502 4.80258 4.50002 5.30775 4.50002H6.69225V2.38477H8.23075V4.50002H15.8077V2.38477H17.3077V4.50002H18.6923C19.1974 4.50002 19.625 4.67502 19.975 5.02502C20.325 5.37502 20.5 5.8026 20.5 6.30777V19.6923C20.5 20.1974 20.325 20.625 19.975 20.975C19.625 21.325 19.1974 21.5 18.6923 21.5H5.30775ZM9.30775 20H10.5V17.8288C10.5 17.7288 10.4417 17.5704 10.325 17.3538L8.325 15.0038C8.1955 14.8513 8.10575 14.6856 8.05575 14.5068C8.00575 14.3279 7.99675 14.1507 8.02875 13.975C8.19925 14.0712 8.37717 14.1458 8.5625 14.199C8.74783 14.2522 8.9405 14.2788 9.1405 14.2788C9.43533 14.2788 9.72758 14.2176 10.0173 14.0953C10.3071 13.9728 10.5609 13.7942 10.7787 13.5595C10.9377 13.3942 11.1256 13.2702 11.3423 13.1875C11.5589 13.1048 11.7782 13.0635 12 13.0635C12.2385 13.0635 12.4645 13.1048 12.678 13.1875C12.8913 13.2702 13.0724 13.3942 13.2212 13.5595C13.4456 13.7942 13.7036 13.9728 13.9952 14.0953C14.2869 14.2176 14.5802 14.2788 14.875 14.2788C15.075 14.2788 15.2651 14.2522 15.4453 14.199C15.6254 14.1458 15.8007 14.0712 15.9712 13.975C16.0032 14.1507 15.9943 14.3279 15.9443 14.5068C15.8943 14.6856 15.8045 14.8513 15.675 15.0038L13.675 17.3538C13.625 17.4371 13.5833 17.5163 13.55 17.5913C13.5167 17.6663 13.5 17.7454 13.5 17.8288V20H14.6923V17.998L16.5693 15.7923C16.7333 15.6218 16.8781 15.3974 17.0038 15.1193C17.1294 14.8411 17.1923 14.5193 17.1923 14.1538C17.1923 13.9499 17.1688 13.7518 17.122 13.5595C17.0753 13.3673 17.0052 13.1808 16.9115 13C16.9948 12.8358 17.0625 12.6577 17.1145 12.4655C17.1663 12.2732 17.1923 12.0751 17.1923 11.8713C17.1923 11.5763 17.1429 11.2907 17.0443 11.0145C16.9456 10.7382 16.7923 10.4827 16.5845 10.248L14.6923 8.01152V6.00002H13.5V8.17126C13.5 8.2546 13.5125 8.33793 13.5375 8.42126C13.5625 8.5046 13.6083 8.5796 13.675 8.64626L15.675 11.0213C15.775 11.1546 15.8542 11.2921 15.9125 11.4338C15.9708 11.5754 16 11.7213 16 11.8713C16 12.1879 15.8958 12.4671 15.6875 12.7088C15.4792 12.9504 15.2083 13.0713 14.875 13.0713C14.7417 13.0713 14.6042 13.0463 14.4625 12.9963C14.3208 12.9463 14.1917 12.8629 14.075 12.7463C13.7917 12.4629 13.4708 12.2463 13.1125 12.0963C12.7542 11.9463 12.3833 11.8713 12 11.8713C11.6167 11.8713 11.2458 11.9463 10.8875 12.0963C10.5292 12.2463 10.2083 12.4629 9.925 12.7463C9.81867 12.8629 9.70042 12.9463 9.57025 12.9963C9.44008 13.0463 9.3 13.0713 9.15 13.0713C8.81667 13.0713 8.54167 12.9504 8.325 12.7088C8.10833 12.4671 8 12.1796 8 11.8463C8 11.6963 8.025 11.5504 8.075 11.4088C8.125 11.2671 8.20833 11.1296 8.325 10.9963L10.325 8.64626C10.375 8.56293 10.4167 8.48376 10.45 8.40876C10.4833 8.33376 10.5 8.2546 10.5 8.17126V6.00002H9.30775V8.00202L7.43075 10.2078C7.26675 10.3783 7.12192 10.6026 6.99625 10.8808C6.87058 11.1589 6.80775 11.4808 6.80775 11.8463C6.80775 12.0603 6.83117 12.2634 6.878 12.4558C6.92467 12.6481 6.98967 12.8295 7.073 13C6.9795 13.1808 6.91192 13.3673 6.87025 13.5595C6.82858 13.7518 6.80775 13.9499 6.80775 14.1538C6.80775 14.5193 6.87058 14.8411 6.99625 15.1193C7.12192 15.3974 7.26675 15.6218 7.43075 15.7923L9.30775 17.998V20Z" fill="black"/>
</svg>
