<svg width="24" height="24" viewBox="0 0 24 24" fill="none" xmlns="http://www.w3.org/2000/svg">
<g id="refresh">
<path id="Vector" d="M12.0386 19.5C9.94474 19.5 8.17132 18.7736 6.71832 17.3207C5.26516 15.8679 4.53857 14.0948 4.53857 12.0015C4.53857 9.90817 5.26516 8.13458 6.71832 6.68075C8.17132 5.22692 9.94474 4.5 12.0386 4.5C13.2077 4.5 14.3142 4.75992 15.3578 5.27975C16.4013 5.79975 17.2692 6.53342 17.9616 7.48075V4.5H19.4616V10.6152H13.3463V9.1155H17.2963C16.7693 8.15 16.0385 7.38942 15.1038 6.83375C14.1693 6.27792 13.1476 6 12.0386 6C10.3719 6 8.95524 6.58333 7.78857 7.75C6.62191 8.91667 6.03857 10.3333 6.03857 12C6.03857 13.6667 6.62191 15.0833 7.78857 16.25C8.95524 17.4167 10.3719 18 12.0386 18C13.3219 18 14.4802 17.6333 15.5136 16.9C16.5469 16.1667 17.2719 15.2 17.6886 14H19.2693C18.8155 15.632 17.9216 16.9567 16.5876 17.974C15.2536 18.9913 13.7372 19.5 12.0386 19.5Z" fill="black"/>
</g>
</svg>
