<svg width="24" height="24" viewBox="0 0 24 24" fill="none" xmlns="http://www.w3.org/2000/svg">
<path d="M7.5032 17.9882C10.3032 18.0651 13.9333 17.9882 16.4545 17.9564C14.3304 20.2586 13.8657 19.9617 12.1094 22C10.521 20.2866 10.1377 20.7466 7.5032 17.9882ZM16.4545 15.3358V12.6835H19V15.3358H16.4545ZM12.6364 15.3358V12.6835H15.1818V15.3358H12.6364ZM8.81818 15.3358V12.6835H11.3636V15.3358H8.81818ZM5 15.3358V12.6835H7.54545V15.3358H5ZM16.4545 11.3573V8.70498H19V11.3573H16.4545ZM12.6364 11.3573V8.70498H15.1818V11.3573H12.6364ZM8.81818 11.3573V8.70498H11.3636V11.3573H8.81818ZM5 11.3573V8.70498H7.54545V11.3573H5ZM7.50568 6.05265L7.54918 6.00635H7.50568C10.1402 3.24924 10.5235 3.7081 12.1119 2C13.8682 4.03832 14.3328 3.74145 16.457 6.03969H16.4148L16.457 6.0847C13.9332 6.06215 10.2981 5.97722 7.5032 6.05944L7.50568 6.05265Z" fill="black"/>
</svg>
