<svg width="24" height="24" viewBox="0 0 24 24" fill="none" xmlns="http://www.w3.org/2000/svg">
<path d="M12 21.5C10.8205 21.5 9.71542 21.2769 8.68475 20.8307C7.65392 20.3846 6.75517 19.7782 5.9885 19.0115C5.22183 18.2448 4.61542 17.3461 4.16925 16.3152C3.72308 15.2846 3.5 14.1795 3.5 13H5C5 14.95 5.67917 16.6042 7.0375 17.9625C8.39583 19.3208 10.05 20 12 20C13.95 20 15.6042 19.3208 16.9625 17.9625C18.3208 16.6042 19 14.95 19 13C19 11.05 18.3208 9.39582 16.9625 8.03749C15.6042 6.67916 13.95 5.99999 12 5.99999H11.7345L13.323 7.58849L12.2692 8.67299L8.84625 5.24049L12.2885 1.80774L13.3422 2.89224L11.7345 4.49999H12C13.1795 4.49999 14.2846 4.72307 15.3152 5.16924C16.3461 5.61541 17.2448 6.22182 18.0115 6.98849C18.7782 7.75516 19.3846 8.65391 19.8307 9.68474C20.2769 10.7154 20.5 11.8205 20.5 13C20.5 14.1795 20.2769 15.2846 19.8307 16.3152C19.3846 17.3461 18.7782 18.2448 18.0115 19.0115C17.2448 19.7782 16.3461 20.3846 15.3152 20.8307C14.2846 21.2769 13.1795 21.5 12 21.5ZM9.2115 15.8462V11.3462H7.76925V10.1537H10.4037V15.8462H9.2115ZM12.5963 15.8462C12.3129 15.8462 12.0754 15.7504 11.8837 15.5587C11.6921 15.3671 11.5963 15.1296 11.5963 14.8462V11.1537C11.5963 10.8704 11.6921 10.6329 11.8837 10.4412C12.0754 10.2496 12.3129 10.1537 12.5963 10.1537H14.4808C14.7641 10.1537 15.0016 10.2496 15.1932 10.4412C15.3849 10.6329 15.4808 10.8704 15.4808 11.1537V14.8462C15.4808 15.1296 15.3849 15.3671 15.1932 15.5587C15.0016 15.7504 14.7641 15.8462 14.4808 15.8462H12.5963ZM12.9038 14.6537H14.173C14.2115 14.6537 14.2404 14.6442 14.2598 14.625C14.2789 14.6058 14.2885 14.577 14.2885 14.5385V11.4615C14.2885 11.423 14.2789 11.3942 14.2598 11.375C14.2404 11.3558 14.2115 11.3462 14.173 11.3462H12.9038C12.8654 11.3462 12.8366 11.3558 12.8173 11.375C12.7981 11.3942 12.7885 11.423 12.7885 11.4615V14.5385C12.7885 14.577 12.7981 14.6058 12.8173 14.625C12.8366 14.6442 12.8654 14.6537 12.9038 14.6537Z" fill="black"/>
</svg>
