<svg width="24" height="24" viewBox="0 0 24 24" fill="none" xmlns="http://www.w3.org/2000/svg">
<path d="M7.5 21.6153V17.198L5.28075 14.9538C5.09742 14.7538 4.94842 14.5358 4.83375 14.3C4.71892 14.0642 4.64483 13.8225 4.6115 13.575C4.93717 13.916 5.31792 14.1794 5.75375 14.3653C6.18975 14.5513 6.64683 14.6443 7.125 14.6443C7.59033 14.6443 8.02175 14.5638 8.41925 14.4028C8.81658 14.2419 9.23775 13.9775 9.68275 13.6095C9.78008 13.525 9.87942 13.4564 9.98075 13.4038C10.0821 13.3513 10.1718 13.3198 10.25 13.3095C10.3347 13.3198 10.4302 13.3513 10.5365 13.4038C10.643 13.4564 10.7449 13.525 10.8423 13.6095C11.2873 13.9712 11.7084 14.234 12.1058 14.398C12.5033 14.5622 12.9263 14.6443 13.375 14.6443C13.8698 14.6443 14.3368 14.5497 14.776 14.3605C15.215 14.1715 15.5973 13.9065 15.923 13.5655C15.8897 13.8232 15.8172 14.0699 15.7057 14.3058C15.5942 14.5416 15.4404 14.7576 15.2443 14.9538L13 17.198V21.6153H7.5ZM7.125 13.6443C6.39933 13.6443 5.78042 13.3882 5.26825 12.876C4.75608 12.3638 4.5 11.7449 4.5 11.0193C4.5 10.6564 4.5705 10.3179 4.7115 10.0038C4.8525 9.68977 5.04225 9.41352 5.28075 9.17502L7.5 6.93076V2.38477H13V6.90577L15.2443 9.15002C15.4891 9.38852 15.6762 9.66893 15.8057 9.99127C15.9352 10.3138 16 10.6564 16 11.0193C16 11.7449 15.7481 12.3638 15.2443 12.876C14.7404 13.3882 14.1173 13.6443 13.375 13.6443C12.9083 13.6443 12.533 13.5577 12.249 13.3845C11.965 13.2115 11.7127 13.0282 11.4922 12.8345C11.2103 12.609 10.9712 12.4626 10.775 12.3953C10.5788 12.3279 10.4038 12.2943 10.25 12.2943C10.0615 12.2943 9.86408 12.3458 9.65775 12.449C9.45125 12.5522 9.24292 12.6807 9.03275 12.8345C8.81225 13.0282 8.55842 13.2115 8.27125 13.3845C7.98392 13.5577 7.60183 13.6443 7.125 13.6443ZM22.4963 16.9173L18.0922 15.4615L18.5693 14.027L22.973 15.498L22.4963 16.9173ZM22.75 12.75H18.5385V11.25H22.75V12.75ZM22.948 8.46152L18.5385 9.95777L18.0828 8.51351L22.502 7.05202L22.948 8.46152Z" fill="black"/>
</svg>
