<svg width="24" height="24" viewBox="0 0 24 24" fill="none" xmlns="http://www.w3.org/2000/svg">
<path d="M5 21.75C4.23717 21.75 3.58817 21.4823 3.053 20.947C2.51767 20.4118 2.25 19.7628 2.25 19C2.25 18.7872 2.32183 18.609 2.4655 18.4655C2.609 18.3218 2.78717 18.25 3 18.25C3.21283 18.25 3.391 18.3218 3.5345 18.4655C3.67817 18.609 3.75 18.7872 3.75 19C3.75 19.3475 3.8715 19.6427 4.1145 19.8855C4.35733 20.1285 4.6525 20.25 5 20.25C5.3205 20.25 5.675 20.1366 6.0635 19.9097C6.452 19.6828 6.84175 19.3891 7.23275 19.0288C7.62375 18.6686 8.001 18.2757 8.3645 17.85C8.728 17.4243 9.052 17.0096 9.3365 16.6058C9.8865 15.8391 10.3429 15.0474 10.7058 14.2308C11.0686 13.4141 11.25 12.6705 11.25 12V3C11.25 2.78717 11.3218 2.609 11.4655 2.4655C11.609 2.32183 11.7872 2.25 12 2.25C12.2128 2.25 12.391 2.32183 12.5345 2.4655C12.6782 2.609 12.75 2.78717 12.75 3V12C12.75 12.6705 12.9314 13.4141 13.2943 14.2308C13.6571 15.0474 14.1135 15.8391 14.6635 16.6058C14.948 17.0096 15.272 17.4243 15.6355 17.85C15.999 18.2757 16.3763 18.6686 16.7673 19.0288C17.1582 19.3891 17.548 19.6828 17.9365 19.9097C18.325 20.1366 18.6795 20.25 19 20.25C19.3475 20.25 19.6427 20.1285 19.8855 19.8855C20.1285 19.6427 20.25 19.3475 20.25 19C20.25 18.7872 20.3218 18.609 20.4655 18.4655C20.609 18.3218 20.7872 18.25 21 18.25C21.2128 18.25 21.391 18.3218 21.5345 18.4655C21.6782 18.609 21.75 18.7872 21.75 19C21.75 19.7628 21.4823 20.4118 20.947 20.947C20.4118 21.4823 19.7628 21.75 19 21.75C18.5102 21.75 17.9999 21.6092 17.4693 21.3277C16.9384 21.0464 16.4128 20.6782 15.8923 20.223C15.3717 19.7678 14.8603 19.2595 14.3577 18.698C13.8551 18.1365 13.3897 17.5724 12.9615 17.0057C12.7628 16.7391 12.5911 16.5464 12.4462 16.4277C12.3013 16.3092 12.1525 16.25 12 16.25C11.8475 16.25 11.6987 16.3077 11.5538 16.423C11.4089 16.5385 11.2372 16.7295 11.0385 16.996C10.6167 17.5627 10.1545 18.1284 9.652 18.6933C9.14933 19.2579 8.63775 19.7678 8.11725 20.223C7.59675 20.6782 7.07117 21.0464 6.5405 21.3277C6.00967 21.6092 5.49617 21.75 5 21.75ZM5.7115 18.7365L3.34625 16.8345C3.13208 16.664 2.96317 16.4593 2.8395 16.2203C2.71567 15.9811 2.65375 15.7243 2.65375 15.45C2.65375 15.1757 2.70733 14.9148 2.8145 14.6673C2.9215 14.4199 3.08208 14.211 3.29625 14.0405C3.43075 13.9327 3.57717 13.8813 3.7355 13.8865C3.89383 13.8917 4.02683 13.9616 4.1345 14.0963C4.24233 14.2308 4.29367 14.3813 4.2885 14.548C4.28333 14.7147 4.21342 14.8518 4.07875 14.9595C4.02625 15.0057 3.97433 15.0717 3.923 15.1578C3.87183 15.2436 3.84625 15.341 3.84625 15.45C3.84625 15.5358 3.86192 15.6192 3.89325 15.7C3.92458 15.7808 3.98642 15.8558 4.07875 15.925L6.67125 17.9635C6.49558 18.1288 6.32533 18.2773 6.1605 18.4088C5.99583 18.5401 5.84617 18.6493 5.7115 18.7365ZM8.3135 16.1578L4.84625 13.375C4.63208 13.2045 4.46317 12.9972 4.3395 12.753C4.21567 12.5087 4.15375 12.2493 4.15375 11.975C4.15375 11.7007 4.20733 11.4356 4.3145 11.1798C4.4215 10.9241 4.58208 10.711 4.79625 10.5405C4.93075 10.4327 5.07975 10.3855 5.24325 10.399C5.40675 10.4125 5.54233 10.4866 5.65 10.6212C5.75767 10.7557 5.80642 10.9022 5.79625 11.0605C5.78592 11.2188 5.71342 11.3518 5.57875 11.4595C5.51592 11.5057 5.46142 11.5801 5.41525 11.6827C5.36925 11.7852 5.34625 11.891 5.34625 12C5.34625 12.0858 5.36192 12.1692 5.39325 12.25C5.42458 12.3308 5.48642 12.4058 5.57875 12.475L8.9905 15.1827C8.88267 15.3481 8.77233 15.5132 8.6595 15.678C8.54683 15.8427 8.4315 16.0026 8.3135 16.1578ZM9.9615 12.875L6.34625 9.95C6.13208 9.7795 5.96317 9.56383 5.8395 9.303C5.71567 9.042 5.65375 8.77433 5.65375 8.5C5.65375 8.209 5.71567 7.93975 5.8395 7.69225C5.96317 7.44492 6.13208 7.22767 6.34625 7.0405C6.46408 6.93917 6.60475 6.89358 6.76825 6.90375C6.93175 6.91408 7.06733 6.98658 7.175 7.12125C7.27633 7.25575 7.32342 7.40217 7.31625 7.5605C7.30925 7.71883 7.23842 7.85183 7.10375 7.9595C7.05758 7.99933 7.00308 8.0705 6.94025 8.173C6.87758 8.27567 6.84625 8.393 6.84625 8.525C6.84625 8.57117 6.93208 8.73467 7.10375 9.0155L10.0578 11.425V12C10.0578 12.141 10.0484 12.2868 10.0298 12.4375C10.0113 12.5882 9.9885 12.734 9.9615 12.875ZM10.0578 8.19625L7.79625 6.3095C7.58208 6.139 7.4215 5.93583 7.3145 5.7C7.20733 5.46417 7.15375 5.21417 7.15375 4.95C7.15375 4.45517 7.32942 4.03208 7.68075 3.68075C8.03208 3.32942 8.45517 3.15375 8.95 3.15375C9.16533 3.15375 9.3685 3.18267 9.5595 3.2405C9.75067 3.29817 9.84625 3.468 9.84625 3.75C9.84625 4.032 9.75067 4.20183 9.5595 4.2595C9.3685 4.31733 9.16533 4.34625 8.95 4.34625C8.77183 4.34625 8.62667 4.41225 8.5145 4.54425C8.40233 4.67625 8.34625 4.81983 8.34625 4.975C8.34625 5.06083 8.3635 5.13842 8.398 5.20775C8.43267 5.27692 8.48458 5.33783 8.55375 5.3905L10.0578 6.65V8.19625ZM14.0385 12.875C14.0115 12.734 13.9888 12.5882 13.9703 12.4375C13.9516 12.2868 13.9423 12.141 13.9423 12V11.425L16.8962 9.0155C16.9886 8.93983 17.0744 8.77633 17.1538 8.525C17.1538 8.393 17.1224 8.27408 17.0598 8.16825C16.9969 8.06242 16.9424 7.98967 16.8962 7.95C16.7616 7.84233 16.6907 7.71092 16.6837 7.55575C16.6766 7.40058 16.7237 7.25575 16.825 7.12125C16.9327 6.98658 17.0698 6.91408 17.2365 6.90375C17.4032 6.89358 17.5506 6.93917 17.6788 7.0405C17.8929 7.22767 18.0577 7.44908 18.173 7.70475C18.2885 7.96058 18.3463 8.22567 18.3463 8.5C18.3463 8.77433 18.2843 9.03942 18.1605 9.29525C18.0368 9.55092 17.8679 9.764 17.6538 9.9345L14.0385 12.875ZM13.9423 8.177V6.63075L15.4462 5.4C15.5154 5.3475 15.5673 5.28658 15.602 5.21725C15.6365 5.14808 15.6538 5.06733 15.6538 4.975C15.6538 4.80317 15.5961 4.65542 15.4808 4.53175C15.3654 4.40808 15.2218 4.34625 15.05 4.34625C14.8347 4.34625 14.6315 4.31733 14.4405 4.2595C14.2493 4.20183 14.1538 4.032 14.1538 3.75C14.1538 3.468 14.2493 3.29817 14.4405 3.2405C14.6315 3.18267 14.8347 3.15375 15.05 3.15375C15.5448 3.15375 15.9679 3.32942 16.3193 3.68075C16.6706 4.03208 16.8462 4.45517 16.8462 4.95C16.8462 5.21417 16.7927 5.46417 16.6855 5.7C16.5785 5.93583 16.4179 6.139 16.2038 6.3095L13.9423 8.177ZM15.6865 16.1578C15.5685 16.0026 15.4532 15.8417 15.3405 15.675C15.2277 15.5083 15.1173 15.3391 15.0095 15.1673L18.3962 12.4405C18.4719 12.3815 18.5494 12.218 18.6288 11.95C18.6288 11.8847 18.5627 11.7244 18.4307 11.4692C18.2961 11.3551 18.2188 11.2147 18.199 11.048C18.1792 10.8813 18.2263 10.7307 18.3405 10.5962C18.4482 10.4616 18.5828 10.3891 18.7443 10.3788C18.9058 10.3686 19.0506 10.4142 19.1788 10.5155C19.3929 10.686 19.5577 10.8991 19.673 11.1547C19.7885 11.4106 19.8463 11.6757 19.8463 11.95C19.8463 12.2243 19.7843 12.4894 19.6605 12.7452C19.5368 13.0009 19.3679 13.214 19.1538 13.3845L15.6865 16.1578ZM18.298 18.7365C18.157 18.6558 18.0058 18.5482 17.8443 18.4135C17.6828 18.2788 17.5142 18.1288 17.3385 17.9635L19.9212 15.925C19.9969 15.866 20.0744 15.7077 20.1538 15.45C20.1538 15.3475 20.1323 15.2517 20.0895 15.1625C20.0465 15.0733 19.9987 15.0057 19.9462 14.9595C19.8116 14.8518 19.7375 14.7147 19.724 14.548C19.7105 14.3813 19.7577 14.2308 19.8655 14.0963C19.9732 13.9616 20.1062 13.8917 20.2645 13.8865C20.4228 13.8813 20.5693 13.9327 20.7038 14.0405C20.9179 14.211 21.0785 14.4199 21.1855 14.6673C21.2927 14.9148 21.3463 15.1757 21.3463 15.45C21.3463 15.7243 21.2885 15.9827 21.173 16.225C21.0577 16.4673 20.8929 16.6705 20.6788 16.8345L18.298 18.7365Z" fill="black"/>
</svg>
