<svg width="24" height="24" viewBox="0 0 24 24" fill="none" xmlns="http://www.w3.org/2000/svg">
<path d="M7.25 20.5V17.596H5.25V16.0963H7.25V13.7308H5.25V12.2308H7.25V3.5H13.6348C15.0608 3.5 16.2698 3.99583 17.262 4.9875C18.254 5.97933 18.75 7.188 18.75 8.6135C18.75 10.0392 18.254 11.2484 17.262 12.2413C16.2698 13.2343 15.0608 13.7308 13.6348 13.7308H8.75V16.0963H12.75V17.596H8.75V20.5H7.25ZM8.75 12.2308H13.6348C14.6333 12.2308 15.4854 11.8778 16.1913 11.172C16.8971 10.466 17.25 9.61375 17.25 8.61525C17.25 7.61658 16.8971 6.76442 16.1913 6.05875C15.4854 5.35292 14.6333 5 13.6348 5H8.75V12.2308Z" fill="black"/>
</svg>
