<svg width="24" height="24" viewBox="0 0 24 24" fill="none" xmlns="http://www.w3.org/2000/svg">
<path d="M13.6385 20.5L7.25 13.8463V12.1923H10.5C11.4475 12.1923 12.2885 11.8888 13.023 11.2817C13.7577 10.6747 14.1628 9.86292 14.2385 8.84625H6.25V7.34625H14.0348C13.7898 6.66025 13.3481 6.09775 12.7098 5.65875C12.0713 5.21958 11.3347 5 10.5 5H6.25V3.5H17.75V5H14.1538C14.5089 5.28333 14.8198 5.6285 15.0865 6.0355C15.3532 6.44267 15.5333 6.87958 15.627 7.34625H17.75V8.84625H15.7538C15.6846 10.2629 15.1398 11.4247 14.1193 12.3317C13.0988 13.2387 11.8923 13.6923 10.5 13.6923H9.1885L15.721 20.5H13.6385Z" fill="black"/>
</svg>
