<svg width="24" height="24" viewBox="0 0 24 24" fill="none" xmlns="http://www.w3.org/2000/svg">
<path d="M12 21.4808C9.83717 20.891 8.0465 19.6179 6.628 17.6616C5.20933 15.7052 4.5 13.5181 4.5 11.1001V5.34632L12 2.53857L19.5 5.34632V11.1001C19.5 13.5181 18.7907 15.7052 17.372 17.6616C15.9535 19.6179 14.1628 20.891 12 21.4808ZM12 19.9001C13.6167 19.4001 14.9667 18.4126 16.05 16.9376C17.1333 15.4626 17.7667 13.8167 17.95 12.0001H12V4.13458L6 6.37508V11.5406C6 11.6636 6.01667 11.8167 6.05 12.0001H12V19.9001Z" fill="black"/>
</svg>
