<svg width="24" height="24" viewBox="0 0 24 24" fill="none" xmlns="http://www.w3.org/2000/svg">
<path fill-rule="evenodd" clip-rule="evenodd" d="M4 2.66675H20V14.1645L14.9065 21.3334H4V2.66675ZM4.58182 3.29951V20.7006H14.6208L14.6963 20.5944V13.7402H19.4183V3.29951H4.58182Z" fill="black"/>
<path d="M10.3026 10.806C10.3026 11.28 10.1943 11.6846 9.97764 12.0201C9.76431 12.3518 9.46431 12.6052 9.07764 12.7802C8.69097 12.9552 8.23597 13.0427 7.71264 13.0427C7.43597 13.0427 7.1743 13.0281 6.92764 12.999C6.68096 12.9698 6.4543 12.9278 6.24764 12.8732C6.04096 12.8185 5.85929 12.7511 5.70263 12.6708V11.7794C5.95263 11.8925 6.25763 11.9982 6.61763 12.0966C6.97764 12.1914 7.35431 12.2388 7.74764 12.2388C8.1143 12.2388 8.42431 12.186 8.67764 12.0802C8.93097 11.9708 9.12264 11.8159 9.25265 11.6154C9.38597 11.4112 9.45264 11.1669 9.45264 10.8826C9.45264 10.6091 9.39764 10.3813 9.28765 10.199C9.17764 10.013 8.99431 9.84532 8.73764 9.69585C8.4843 9.54272 8.13764 9.38048 7.69763 9.20913C7.38764 9.08882 7.1143 8.95757 6.87763 8.81539C6.64097 8.66955 6.44264 8.50548 6.28264 8.32319C6.12264 8.1409 6.00096 7.92945 5.91763 7.68883C5.83764 7.44819 5.79763 7.17293 5.79763 6.86304C5.79763 6.43648 5.89596 6.0719 6.09263 5.7693C6.29263 5.46304 6.56764 5.22972 6.91763 5.0693C7.27096 4.90523 7.67597 4.8232 8.13264 4.8232C8.52264 4.8232 8.88264 4.86331 9.21264 4.94351C9.54597 5.02373 9.85098 5.13128 10.1276 5.26617L9.86264 6.06461C9.59931 5.9443 9.31931 5.84403 9.02264 5.76383C8.72931 5.68362 8.42597 5.64351 8.11263 5.64351C7.79931 5.64351 7.53431 5.69456 7.31764 5.79664C7.1043 5.89507 6.94097 6.03544 6.82763 6.21773C6.7143 6.40002 6.65764 6.61694 6.65764 6.86851C6.65764 7.14923 6.71097 7.38257 6.81764 7.5685C6.92764 7.75445 7.10097 7.92033 7.33764 8.06616C7.57763 8.20835 7.8943 8.35783 8.28763 8.5146C8.71764 8.68596 9.08264 8.86825 9.38264 9.06147C9.68264 9.25105 9.91098 9.48439 10.0676 9.76147C10.2243 10.0349 10.3026 10.3831 10.3026 10.806ZM12.6477 12.9333H11.7977V4.93805H15.8676V5.75835H12.6477V8.6896H15.6727V9.50444H12.6477V12.9333Z" fill="black"/>
<path d="M5.86026 16.48H13.0283V17.6H5.86026V16.48Z" fill="black"/>
</svg>
