<svg width="24" height="24" viewBox="0 0 24 24" fill="none" xmlns="http://www.w3.org/2000/svg">
<path d="M13.4824 21.5C11.8179 21.5 10.4 20.9163 9.22868 19.749C8.05735 18.5817 7.47168 17.1653 7.47168 15.5V14.9537C6.12168 14.7782 4.99251 14.1763 4.08418 13.148C3.17585 12.1198 2.72168 10.9038 2.72168 9.5V3.75H5.72168V2.75H7.22168V6.25H5.72168V5.25H4.22168V9.5C4.22168 10.6 4.61335 11.5417 5.39668 12.325C6.18001 13.1083 7.12168 13.5 8.22168 13.5C9.32168 13.5 10.2633 13.1083 11.0467 12.325C11.83 11.5417 12.2217 10.6 12.2217 9.5V5.25H10.7217V6.25H9.22168V2.75H10.7217V3.75H13.7217V9.5C13.7217 10.9038 13.2675 12.1198 12.3592 13.148C11.4508 14.1763 10.3217 14.7782 8.97168 14.9537V15.5C8.97168 16.75 9.4101 17.8125 10.2869 18.6875C11.1638 19.5625 12.2285 20 13.4812 20C14.7312 20 15.7937 19.5625 16.6687 18.6875C17.5437 17.8125 17.9812 16.75 17.9812 15.5V13.8828C17.4555 13.7276 17.0228 13.4253 16.6832 12.976C16.3433 12.5267 16.1734 12.0154 16.1734 11.4423C16.1734 10.7319 16.4223 10.1281 16.9199 9.63075C17.4174 9.13342 18.0216 8.88475 18.7324 8.88475C19.4431 8.88475 20.0468 9.13342 20.5437 9.63075C21.0405 10.1281 21.2889 10.7319 21.2889 11.4423C21.2889 12.0154 21.119 12.5267 20.7792 12.976C20.4395 13.4253 20.0068 13.7276 19.4812 13.8828V15.5C19.4812 17.1653 18.8975 18.5817 17.7302 19.749C16.5628 20.9163 15.1469 21.5 13.4824 21.5ZM18.7312 12.5C19.0273 12.5 19.2777 12.3978 19.4822 12.1933C19.6867 11.9888 19.7889 11.7384 19.7889 11.4423C19.7889 11.1461 19.6867 10.8958 19.4822 10.6915C19.2777 10.487 19.0273 10.3848 18.7312 10.3848C18.435 10.3848 18.1847 10.487 17.9802 10.6915C17.7757 10.8958 17.6734 11.1461 17.6734 11.4423C17.6734 11.7384 17.7757 11.9888 17.9802 12.1933C18.1847 12.3978 18.435 12.5 18.7312 12.5Z" fill="black"/>
</svg>
