<svg width="24" height="24" viewBox="0 0 24 24" fill="none" xmlns="http://www.w3.org/2000/svg">
<path d="M10.8657 8.09766C11.0293 3.36285 17.8955 3.36286 18.0591 8.09766L18.0601 8.11035V10.7305H19.7046C20.0386 10.7351 20.3577 10.8706 20.5923 11.1084C20.8269 11.3462 20.9585 11.6669 20.9585 12.001C20.9585 12.335 20.8269 12.6557 20.5923 12.8936C20.3703 13.1186 20.0727 13.2519 19.7583 13.2695C19.6311 13.2858 19.4572 13.2922 19.3062 13.2959C19.1048 13.3008 18.8626 13.3022 18.6226 13.2998C18.3827 13.2974 18.139 13.2912 17.936 13.2812C17.7664 13.273 17.5399 13.2593 17.394 13.2217C17.044 13.1314 16.7171 12.9668 16.437 12.7383C16.1569 12.5097 15.9296 12.2224 15.771 11.8975C15.6124 11.5726 15.526 11.2169 15.5181 10.8555V8.12598C15.5144 7.84906 15.4015 7.5845 15.2046 7.38965C15.007 7.19421 14.7403 7.08398 14.4624 7.08398C14.1844 7.08403 13.9178 7.19414 13.7202 7.38965C13.5233 7.5845 13.4104 7.84906 13.4067 8.12598V15.9043C13.2436 20.6254 6.37646 20.6583 6.2124 15.9043V13.2715H4.31299C3.97591 13.2715 3.65192 13.1378 3.41357 12.8994C3.17544 12.6611 3.04151 12.3379 3.0415 12.001C3.0415 11.6641 3.17544 11.3409 3.41357 11.1025C3.65192 10.8642 3.97591 10.7305 4.31299 10.7305H6.31885C6.96436 10.7318 7.58311 10.9889 8.03955 11.4453C8.49579 11.9017 8.75299 12.5207 8.75439 13.166V15.876C8.75809 16.1528 8.87012 16.4175 9.06689 16.6123C9.26453 16.8079 9.53201 16.918 9.81006 16.918C10.088 16.9179 10.3547 16.8078 10.5522 16.6123C10.7491 16.4175 10.861 16.1529 10.8647 15.876V8.11035L10.8657 8.09766Z" fill="#FB2B66"/>
</svg>
