<svg width="24" height="24" viewBox="0 0 24 24" fill="none" xmlns="http://www.w3.org/2000/svg">
<path d="M12.0251 14.9652L8.98665 11.927L16.6521 4.26148C16.8316 4.08081 17.0447 3.99048 17.2914 3.99048C17.5382 3.99048 17.7521 4.08081 17.9329 4.26148L19.6904 6.01923C19.8712 6.19873 19.9616 6.41189 19.9616 6.65873C19.9616 6.90539 19.8712 7.11915 19.6904 7.29998L12.0251 14.9652ZM12.0251 12.827L18.2251 6.65198L17.3001 5.72698L11.1251 11.927L12.0251 12.827ZM11.9234 20.1057L13.4231 18.6057H22.0674V20.1057H11.9234ZM5.3924 20.1152C4.77657 20.1152 4.18415 20.0069 3.61515 19.7902C3.04615 19.5736 2.53348 19.2659 2.07715 18.8672L7.9424 13.0172L10.1866 15.2615C10.3781 15.449 10.5286 15.6632 10.6379 15.9042C10.7474 16.1452 10.8021 16.3996 10.8021 16.6675C10.8021 16.9353 10.7482 17.1931 10.6404 17.441C10.5327 17.6888 10.3847 17.9066 10.1964 18.0942L9.7214 18.5787C9.2329 19.0736 8.66332 19.4534 8.01265 19.7182C7.36198 19.9829 6.68857 20.1152 5.9924 20.1152H5.3924ZM5.3924 18.6152H5.9924C6.4924 18.6152 6.97573 18.5194 7.4424 18.3277C7.90907 18.1361 8.3174 17.8652 8.6674 17.5152L9.1424 17.0402C9.2424 16.9402 9.29081 16.822 9.28765 16.6855C9.28448 16.549 9.22965 16.4275 9.12315 16.321L7.9424 15.1402L4.56165 18.496C4.67582 18.5358 4.80898 18.5656 4.96115 18.5855C5.11332 18.6053 5.25707 18.6152 5.3924 18.6152Z" fill="black"/>
</svg>
