<svg width="24" height="24" viewBox="0 0 24 24" fill="none" xmlns="http://www.w3.org/2000/svg">
<g id="sync disabled">
<path id="Vector" d="M19.6077 22.0615L16.0942 18.548C15.8096 18.725 15.5156 18.8852 15.2125 19.0287C14.9093 19.1724 14.5885 19.2974 14.25 19.4037V17.823C14.382 17.7705 14.5092 17.7138 14.6317 17.653C14.7542 17.592 14.8783 17.5269 15.004 17.4577L6.55198 9.00575C6.29814 9.46725 6.10098 9.95575 5.96048 10.4712C5.82014 10.9866 5.74998 11.5192 5.74998 12.0692C5.74998 12.8512 5.89806 13.6108 6.19423 14.348C6.49039 15.0852 6.95131 15.7666 7.57698 16.3922L8.21148 17.027V14.2885H9.71148V19.673H4.32698V18.173H7.24998L6.52298 17.477C5.73198 16.6858 5.15539 15.8272 4.79323 14.901C4.43106 13.9747 4.24998 13.0307 4.24998 12.0692C4.24998 11.3064 4.35223 10.576 4.55673 9.878C4.76123 9.17983 5.05964 8.52241 5.45198 7.90575L1.93848 4.39225L3.00773 3.323L20.677 20.9922L19.6077 22.0615ZM18.5885 16.0537L17.473 14.9385C17.7205 14.4872 17.9119 14.008 18.0472 13.501C18.1824 12.994 18.25 12.4706 18.25 11.9307C18.25 11.1487 18.1019 10.3892 17.8057 9.652C17.5096 8.91483 17.0486 8.23342 16.423 7.60775L15.7885 6.973V9.7115H14.2885V4.327H19.673V5.827H16.75L17.477 6.523C18.268 7.31416 18.8446 8.17283 19.2067 9.099C19.5689 10.0253 19.75 10.9692 19.75 11.9307C19.75 12.6872 19.6477 13.4093 19.4432 14.097C19.2387 14.7848 18.9538 15.4371 18.5885 16.0537ZM9.05198 6.51725L7.94623 5.4115C8.23073 5.23467 8.52039 5.08116 8.81523 4.951C9.11023 4.82083 9.42181 4.70258 9.74998 4.59625V6.177C9.62814 6.2295 9.50856 6.282 9.39123 6.3345C9.27389 6.38717 9.16081 6.44808 9.05198 6.51725Z" fill="black"/>
</g>
</svg>
