<svg width="24" height="24" viewBox="0 0 24 24" fill="none" xmlns="http://www.w3.org/2000/svg">
<path d="M21.7076 10.9345C21.8461 10.7858 21.9153 10.6093 21.9153 10.4048C21.9153 10.2003 21.8461 10.0205 21.7076 9.8655L19.0711 7.22875L20.3001 6.00975L20.7731 6.48275C20.9282 6.63792 21.1081 6.7155 21.3126 6.7155C21.5171 6.7155 21.6937 6.63792 21.8423 6.48275C21.9872 6.34425 22.0596 6.17017 22.0596 5.9605C22.0596 5.751 21.9872 5.57383 21.8423 5.429L19.8423 3.4385C19.6937 3.28333 19.5171 3.20575 19.3126 3.20575C19.1081 3.20575 18.9282 3.28333 18.7731 3.4385C18.6346 3.577 18.5653 3.751 18.5653 3.9605C18.5653 4.17017 18.6346 4.34425 18.7731 4.48275L19.2558 4.9655L18.0268 6.18475L15.3903 3.54825C15.2353 3.39308 15.0556 3.3155 14.8511 3.3155C14.6466 3.3155 14.47 3.39308 14.3213 3.54825C14.1662 3.69692 14.0886 3.8735 14.0886 4.078C14.0886 4.2825 14.1662 4.46225 14.3213 4.61725L14.9386 5.21925L7.85207 12.3058C7.50074 12.6571 7.32507 13.0847 7.32507 13.5885C7.32507 14.0923 7.50074 14.5167 7.85207 14.8615L8.58082 15.6058L4.20207 19.9693H6.34032L9.65007 16.6595L10.3788 17.4038C10.7238 17.7486 11.1482 17.921 11.6521 17.921C12.1559 17.921 12.5834 17.7486 12.9346 17.4038L20.0211 10.3173L20.6386 10.9345C20.7936 11.0795 20.9717 11.152 21.1731 11.152C21.3744 11.152 21.5526 11.0795 21.7076 10.9345ZM18.9771 9.273L11.8906 16.3595C11.8264 16.4173 11.7527 16.4463 11.6693 16.4463C11.586 16.4463 11.5122 16.4173 11.4481 16.3595L8.92132 13.8078C8.85715 13.7501 8.82507 13.6779 8.82507 13.5913C8.82507 13.5048 8.85715 13.4327 8.92132 13.375L10.3828 11.8885L11.8501 13.3558C12.0052 13.5006 12.1834 13.5756 12.3846 13.5808C12.5859 13.5859 12.7558 13.5193 12.8943 13.3808C13.0493 13.2321 13.1268 13.0555 13.1268 12.851C13.1268 12.6465 13.0493 12.4667 12.8943 12.3115L11.4268 10.8443L13.2251 9.05575L14.6923 10.523C14.841 10.6615 15.0176 10.7308 15.2221 10.7308C15.4266 10.7308 15.6064 10.6615 15.7616 10.523C15.9001 10.368 15.9693 10.1883 15.9693 9.98375C15.9693 9.77925 15.9001 9.60258 15.7616 9.45375L14.2943 7.9865L15.9923 6.2885L18.9771 9.273ZM18.9771 9.273L18.9146 9.2105C18.8729 9.16883 18.82 9.116 18.7558 9.052L16.2038 6.5L16.0548 6.351L15.9923 6.2885L18.9771 9.273Z" fill="black"/>
</svg>
