<svg width="24" height="24" viewBox="0 0 24 24" fill="none" xmlns="http://www.w3.org/2000/svg">
<path d="M6.26925 3.90399H16.7885V15.9037L10.1538 22.5L9.30775 21.6537C9.20392 21.5499 9.11767 21.4124 9.049 21.2412C8.9805 21.0701 8.94625 20.9089 8.94625 20.7577V20.5037L10.0078 15.9037H3.30775C2.83208 15.9037 2.41192 15.7214 2.04725 15.3567C1.68242 14.9919 1.5 14.5717 1.5 14.0962V12.4807C1.5 12.3769 1.5135 12.2647 1.5405 12.1442C1.56733 12.0237 1.59742 11.9116 1.63075 11.8077L4.49625 5.04624C4.63975 4.72574 4.88008 4.45524 5.21725 4.23474C5.55442 4.01424 5.90508 3.90399 6.26925 3.90399ZM15.2885 5.40399H6.26925C6.19875 5.40399 6.12667 5.42316 6.053 5.46149C5.97917 5.49999 5.923 5.56416 5.8845 5.65399L3 12.404V14.0962C3 14.1859 3.02883 14.2596 3.0865 14.3172C3.14417 14.3751 3.21792 14.404 3.30775 14.404H11.9038L10.65 19.8847L15.2885 15.2655V5.40399ZM16.7885 15.9037V14.404H20V5.40399H16.7885V3.90399H21.5V15.9037H16.7885Z" fill="black"/>
</svg>
