<svg width="24" height="24" viewBox="0 0 24 24" fill="none" xmlns="http://www.w3.org/2000/svg">
<path d="M9.19225 2.75V1.25H14.8077V2.75H9.19225ZM11.25 13.8077H12.75V8.19225H11.25V13.8077ZM12 21.5C10.8308 21.5 9.73083 21.2769 8.7 20.8307C7.66917 20.3846 6.76792 19.7756 5.99625 19.0038C5.22442 18.2321 4.61542 17.3308 4.16925 16.3C3.72308 15.2692 3.5 14.1692 3.5 13C3.5 11.8308 3.72308 10.7308 4.16925 9.7C4.61542 8.66917 5.22442 7.76792 5.99625 6.99625C6.76792 6.22442 7.66917 5.61542 8.7 5.16925C9.73083 4.72308 10.8308 4.5 12 4.5C13.0013 4.5 13.9657 4.66992 14.8932 5.00975C15.8207 5.34942 16.682 5.83592 17.477 6.46925L18.723 5.22325L19.7768 6.277L18.5307 7.523C19.1641 8.318 19.6506 9.17925 19.9902 10.1068C20.3301 11.0343 20.5 11.9987 20.5 13C20.5 14.1692 20.2769 15.2692 19.8307 16.3C19.3846 17.3308 18.7756 18.2321 18.0038 19.0038C17.2321 19.7756 16.3308 20.3846 15.3 20.8307C14.2692 21.2769 13.1692 21.5 12 21.5ZM12 20C13.9333 20 15.5833 19.3167 16.95 17.95C18.3167 16.5833 19 14.9333 19 13C19 11.0667 18.3167 9.41667 16.95 8.05C15.5833 6.68333 13.9333 6 12 6C10.0667 6 8.41667 6.68333 7.05 8.05C5.68333 9.41667 5 11.0667 5 13C5 14.9333 5.68333 16.5833 7.05 17.95C8.41667 19.3167 10.0667 20 12 20Z" fill="black"/>
</svg>
