<svg width="24" height="24" viewBox="0 0 24 24" fill="none" xmlns="http://www.w3.org/2000/svg">
<path d="M12.0015 15.25C13.0377 15.25 13.9215 14.8837 14.653 14.1512C15.3843 13.4189 15.75 12.5347 15.75 11.4985C15.75 10.4623 15.3837 9.5785 14.6512 8.847C13.9189 8.11567 13.0347 7.75 11.9985 7.75C10.9623 7.75 10.0785 8.11625 9.347 8.84875C8.61567 9.58108 8.25 10.4653 8.25 11.5015C8.25 12.5377 8.61625 13.4215 9.34875 14.153C10.0811 14.8843 10.9653 15.25 12.0015 15.25ZM11.25 22.75V20.75H9.25V19.25H11.25V16.6885C9.96283 16.4937 8.89108 15.9071 8.03475 14.9288C7.17825 13.9506 6.75 12.8077 6.75 11.5C6.75 10.9372 6.83717 10.3875 7.0115 9.851C7.18583 9.3145 7.441 8.818 7.777 8.3615L6.70375 7.2885L5.30375 8.6885L4.25975 7.64425L5.65975 6.22875L3.25 3.81925V6.75H1.75V1.25H7.25V2.75H4.31925L6.72875 5.15975L8.14425 3.75975L9.1885 4.80375L7.7885 6.21925L8.87125 7.302C9.32125 6.95583 9.8145 6.69392 10.351 6.51625C10.8875 6.33875 11.4372 6.25 12 6.25C12.5628 6.25 13.1125 6.33875 13.649 6.51625C14.1855 6.69392 14.6788 6.95583 15.1288 7.302L19.6807 2.75H16.75V1.25H22.25V6.75H20.75V3.81925L16.198 8.35575C16.534 8.81608 16.7933 9.31183 16.976 9.843C17.1587 10.3743 17.25 10.9267 17.25 11.5C17.25 12.8077 16.8217 13.9506 15.9653 14.9288C15.1089 15.9071 14.0372 16.4937 12.75 16.6885V19.25H14.75V20.75H12.75V22.75H11.25Z" fill="black"/>
</svg>
