<svg width="24" height="24" viewBox="0 0 24 24" fill="none" xmlns="http://www.w3.org/2000/svg">
<path d="M18.5252 8.29652L13.9635 12.9081C13.7979 13.1393 13.5496 13.2936 13.2732 13.3371C12.9967 13.3807 12.7146 13.3099 12.489 13.1404L8.61018 10.9916L4.02729 14.7804C3.93243 14.9171 3.80699 15.0284 3.66148 15.1051C3.51598 15.1818 3.35467 15.2215 3.19108 15.221C2.97251 15.2156 2.76058 15.143 2.58268 15.0126C2.47291 14.9302 2.38036 14.8261 2.3105 14.7064C2.24064 14.5866 2.19488 14.4538 2.17594 14.3156C2.15699 14.1775 2.16524 14.0368 2.20019 13.902C2.23514 13.7672 2.2961 13.6409 2.37944 13.5306L7.57538 8.88361C7.65575 8.77105 7.75732 8.67614 7.87406 8.60451C7.99081 8.53287 8.12038 8.48595 8.2551 8.46652C8.38983 8.44709 8.52699 8.45555 8.65848 8.49139C8.78996 8.52723 8.91311 8.58973 9.02065 8.6752L12.8988 10.7709L16.8275 7.02495L15.4586 5.98494C15.3532 5.90351 15.2714 5.79413 15.222 5.66859C15.1727 5.54304 15.1576 5.40607 15.1786 5.27242C15.1995 5.13877 15.2555 5.01349 15.3407 4.91007C15.4258 4.80664 15.5369 4.72898 15.6619 4.68544L20.2534 3.03928C20.365 3.00067 20.4841 2.99033 20.6005 3.00912C20.7169 3.02791 20.8271 3.07529 20.9218 3.14721C21.0164 3.21913 21.0927 3.31346 21.1441 3.42215C21.1956 3.53084 21.2206 3.65068 21.2171 3.77144L21.0398 8.7651C21.037 8.90012 20.9979 9.03173 20.9268 9.14544C20.8558 9.25916 20.7555 9.35058 20.6371 9.40964C20.5187 9.46871 20.3867 9.49314 20.2556 9.48024C20.1245 9.46734 19.9994 9.41761 19.8941 9.33653L18.5252 8.29652Z" fill="black"/>
<path d="M2.83621 17.3787H6.15316C6.37435 17.3807 6.58593 17.4717 6.74234 17.632C6.89875 17.7924 6.98746 18.0094 6.98937 18.2362V20.1173C6.98746 20.3442 6.89875 20.5611 6.74234 20.7215C6.58593 20.8819 6.37435 20.9729 6.15316 20.9748H2.83621C2.61502 20.9729 2.40344 20.8819 2.24703 20.7215C2.09062 20.5611 2.00191 20.3442 2 20.1173V18.2362C2.00191 18.0094 2.09062 17.7924 2.24703 17.632C2.40344 17.4717 2.61502 17.3807 2.83621 17.3787Z" fill="black"/>
<path d="M13.6619 14.8158H10.3138C10.0926 14.8178 9.88098 14.9087 9.72457 15.0691C9.56816 15.2295 9.47945 15.4465 9.47754 15.6733V20.1425C9.47945 20.3693 9.56816 20.5863 9.72457 20.7467C9.88098 20.9071 10.0926 20.998 10.3138 21H13.6619C13.8831 20.998 14.0947 20.9071 14.2511 20.7467C14.4075 20.5863 14.4962 20.3693 14.4981 20.1425V15.6474C14.4967 15.5364 14.4738 15.4269 14.431 15.325C14.3881 15.2231 14.3261 15.1308 14.2484 15.0536C14.1707 14.9763 14.0789 14.9155 13.9783 14.8747C13.8776 14.8339 13.7701 14.8139 13.6619 14.8158Z" fill="black"/>
<path d="M17.8157 11.3852H21.1366C21.3595 11.39 21.5724 11.4811 21.7325 11.6401C21.8927 11.7992 21.9882 12.0144 22.0001 12.2427V20.118C21.9982 20.3448 21.9095 20.5618 21.7531 20.7221C21.5966 20.8825 21.3851 20.9735 21.1639 20.9755H17.8157C17.5945 20.9735 17.3829 20.8825 17.2265 20.7221C17.0701 20.5618 16.9814 20.3448 16.9795 20.118V12.2427C16.9814 12.0159 17.0701 11.7989 17.2265 11.6385C17.3829 11.4781 17.5945 11.3871 17.8157 11.3852Z" fill="black"/>
</svg>
