<svg width="24" height="24" viewBox="0 0 24 24" fill="none" xmlns="http://www.w3.org/2000/svg">
<path d="M20.8407 20.952L15.8617 15.973C15.1527 16.5385 14.397 16.976 13.5945 17.2855C12.792 17.5952 11.9112 17.75 10.9522 17.75C9.52904 17.75 8.23737 17.4073 7.07721 16.722C5.91687 16.0368 4.99637 15.1295 4.31571 14H6.15971C6.74571 14.6872 7.44829 15.234 8.26746 15.6405C9.08679 16.0468 9.98171 16.25 10.9522 16.25C12.6829 16.25 14.1572 15.641 15.3752 14.423C16.5932 13.2052 17.2022 11.7308 17.2022 10C17.2022 8.26917 16.5932 6.79483 15.3752 5.577C14.1572 4.359 12.6829 3.75 10.9522 3.75C9.31504 3.75 7.90154 4.30483 6.71171 5.4145C5.52204 6.524 4.86054 7.88583 4.72721 9.5H3.22721C3.36054 7.45383 4.16404 5.734 5.63771 4.3405C7.11137 2.94683 8.88287 2.25 10.9522 2.25C13.115 2.25 14.9474 3.001 16.4492 4.503C17.9512 6.00483 18.7022 7.83717 18.7022 10C18.7022 10.959 18.5474 11.8413 18.2377 12.647C17.928 13.4528 17.4905 14.2103 16.9252 14.9193L21.8945 19.8885L20.8407 20.952ZM9.98296 13.8463L8.31171 8.3095L6.89646 12.3463H2.10596V11.1538H6.05796L7.70796 6.40375H8.98671L10.6175 11.8693L11.8272 8.15375H13.106L14.606 11.1538H15.3945V12.3463H13.8732L12.5732 9.746L11.2367 13.8463H9.98296Z" fill="black"/>
</svg>
