<svg width="24" height="24" viewBox="0 0 24 24" fill="none" xmlns="http://www.w3.org/2000/svg">
<path d="M19.8036 21.9423L16.8421 18.9808C16.1486 19.4589 15.3955 19.8317 14.5826 20.099C13.7698 20.3663 12.912 20.5 12.0094 20.5C10.83 20.5 9.72495 20.2769 8.69412 19.8308C7.66328 19.3846 6.76453 18.7782 5.99787 18.0115C5.2312 17.2448 4.62487 16.3461 4.17887 15.3153C3.7327 14.2846 3.50962 13.1795 3.50962 12C3.50962 11.091 3.64487 10.2317 3.91537 9.42201C4.18587 8.61251 4.5602 7.86418 5.03837 7.17701L2.05762 4.19626L3.12687 3.12701L20.8729 20.873L19.8036 21.9423ZM12.0094 19C12.6992 19 13.3601 18.9019 13.9921 18.7058C14.6243 18.5096 15.2095 18.2365 15.7479 17.8865L6.11337 8.25201C5.76337 8.79685 5.49187 9.38368 5.29887 10.0125C5.10587 10.6413 5.00937 11.3038 5.00937 12C5.00937 13.95 5.68853 15.6042 7.04687 16.9625C8.4052 18.3208 10.0594 19 12.0094 19ZM14.9326 9.23076V7.73076H17.5479C16.8582 6.88076 16.0358 6.21318 15.0806 5.72801C14.1255 5.24268 13.1017 5.00001 12.0094 5.00001C11.403 5.00001 10.8191 5.07085 10.2576 5.21251C9.69612 5.35418 9.16537 5.56151 8.66537 5.83451L7.58062 4.75001C8.22928 4.35518 8.92478 4.04818 9.66712 3.82901C10.4095 3.60968 11.1902 3.50001 12.0094 3.50001C13.2672 3.50001 14.4621 3.76443 15.5941 4.29326C16.7261 4.8221 17.6979 5.56535 18.5094 6.52301V4.15376H20.0094V9.23076H14.9326ZM12.7594 9.92876L11.2596 8.42876V7.00001H12.7594V9.92876ZM19.2594 16.4288L18.1654 15.3345C18.355 14.9678 18.514 14.5928 18.6421 14.2095C18.7703 13.8262 18.8626 13.423 18.9191 13H20.4499C20.3729 13.6358 20.2331 14.24 20.0306 14.8125C19.8281 15.385 19.571 15.9238 19.2594 16.4288Z" fill="black"/>
</svg>
