<svg width="24" height="24" viewBox="0 0 24 24" fill="none" xmlns="http://www.w3.org/2000/svg">
<path fill-rule="evenodd" clip-rule="evenodd" d="M21 8.91464V12.4058C21 13.8731 20.5398 15.2008 19.6195 16.388C18.6995 17.575 17.538 18.3474 16.1351 18.7053C14.7323 18.3474 13.5708 17.575 12.6507 16.388C11.7305 15.2008 11.2703 13.8731 11.2703 12.4058V8.91464L16.1351 7.21048L21 8.91464ZM16.6679 10.0842C16.1573 10.0842 15.7039 10.1859 15.3078 10.3894C14.9149 10.593 14.6068 10.9086 14.3841 11.3358C14.1615 11.763 14.0502 12.3139 14.0502 12.9881C14.0502 13.6355 14.152 14.1693 14.3549 14.5898C14.5579 15.0103 14.8478 15.3228 15.2243 15.5264C15.6008 15.7299 16.0461 15.8316 16.56 15.8316C16.9038 15.8316 17.1937 15.8019 17.4294 15.7418C17.6652 15.6851 17.8862 15.5961 18.0925 15.4759V14.4551C17.883 14.5719 17.6603 14.6665 17.4247 14.7399C17.1889 14.8134 16.9218 14.8501 16.6238 14.8501C16.3226 14.8501 16.0686 14.7805 15.8623 14.6403C15.6561 14.4969 15.5008 14.2864 15.396 14.0096C15.2913 13.7293 15.2386 13.3853 15.2386 12.9783C15.2386 12.5577 15.2898 12.2054 15.3913 11.9217C15.4961 11.638 15.6528 11.4239 15.8623 11.2804C16.0751 11.1369 16.3408 11.0657 16.6584 11.0657C16.8515 11.0657 17.053 11.0939 17.2624 11.1506C17.4719 11.2073 17.6763 11.2777 17.876 11.3611L18.2201 10.4196C18.0368 10.3261 17.8126 10.2479 17.5475 10.1845C17.2855 10.1178 16.9921 10.0842 16.6679 10.0842Z" fill="#E88842"/>
<path d="M10.3543 13.2526C10.5215 14.5963 11.0548 15.8316 11.9534 16.9588C12.6485 17.8307 13.4584 18.5115 14.383 19H3V16.87C3.00007 16.4011 3.12988 15.9665 3.38862 15.5669C3.6474 15.1673 3.99336 14.8603 4.4262 14.6455C5.38778 14.1814 6.35796 13.8327 7.33657 13.6006C8.31512 13.3685 9.30205 13.2526 10.2973 13.2526C10.3163 13.2526 10.3353 13.2525 10.3543 13.2526Z" fill="black"/>
<path d="M10.2973 5C11.2338 5 12.0354 5.32839 12.7022 5.98503C13.0593 6.33658 13.3192 6.72667 13.4851 7.15435L10.2973 8.24041V11.7053L10.1234 11.7016C9.2612 11.6632 8.51759 11.3358 7.89242 10.7203C7.22551 10.0637 6.89195 9.27455 6.89189 8.35267C6.89189 7.43074 7.22553 6.64149 7.89242 5.98503C8.55923 5.32839 9.36081 5 10.2973 5Z" fill="black"/>
</svg>
