<svg width="24" height="24" viewBox="0 0 24 24" fill="none" xmlns="http://www.w3.org/2000/svg">
<path d="M10.95 15.2038L16.2538 9.90008L15.1845 8.83082L10.95 13.0656L8.83075 10.9463L7.7615 12.0156L10.95 15.2038ZM12 21.4808C9.83717 20.891 8.0465 19.6179 6.628 17.6616C5.20933 15.7052 4.5 13.5181 4.5 11.1001V5.34632L12 2.53857L19.5 5.34632V11.1001C19.5 13.5181 18.7907 15.7052 17.372 17.6616C15.9535 19.6179 14.1628 20.891 12 21.4808ZM12 19.9001C13.7333 19.3501 15.1667 18.2501 16.3 16.6001C17.4333 14.9501 18 13.1167 18 11.1001V6.37508L12 4.13458L6 6.37508V11.1001C6 13.1167 6.56667 14.9501 7.7 16.6001C8.83333 18.2501 10.2667 19.3501 12 19.9001Z" fill="black"/>
</svg>
