<svg width="24" height="24" viewBox="0 0 24 24" fill="none" xmlns="http://www.w3.org/2000/svg">
<path d="M15.7731 12.973L14.6501 11.85C14.8001 11.0218 14.5638 10.2773 13.9413 9.61625C13.319 8.95542 12.5552 8.7 11.6501 8.85L10.5271 7.727C10.7527 7.62567 10.9842 7.54967 11.2213 7.499C11.4585 7.44834 11.7181 7.423 12.0001 7.423C13.1347 7.423 14.0979 7.81884 14.8896 8.6105C15.6812 9.40217 16.0771 10.3653 16.0771 11.5C16.0771 11.782 16.0517 12.0448 16.0011 12.2885C15.9504 12.532 15.8744 12.7602 15.7731 12.973ZM18.9538 16.0845L17.8501 15.05C18.4834 14.5667 19.0459 14.0375 19.5376 13.4625C20.0292 12.8875 20.4501 12.2333 20.8001 11.5C19.9667 9.81667 18.7709 8.47917 17.2126 7.4875C15.6542 6.49584 13.9167 6 12.0001 6C11.5167 6 11.0417 6.03334 10.5751 6.1C10.1084 6.16667 9.65007 6.26667 9.20007 6.4L8.03482 5.23475C8.66682 4.98342 9.31233 4.79817 9.97132 4.679C10.6303 4.55967 11.3066 4.5 12.0001 4.5C14.3436 4.5 16.457 5.14617 18.3403 6.4385C20.2237 7.73084 21.5974 9.418 22.4616 11.5C22.0911 12.3935 21.6126 13.2275 21.0261 14.002C20.4394 14.7763 19.7487 15.4705 18.9538 16.0845ZM19.7616 21.8693L15.7156 17.8538C15.2027 18.0436 14.6344 18.1988 14.0106 18.3193C13.3869 18.4398 12.7167 18.5 12.0001 18.5C9.65007 18.5 7.53666 17.8538 5.65982 16.5615C3.78282 15.2692 2.40907 13.582 1.53857 11.5C1.90774 10.6167 2.38466 9.79267 2.96932 9.028C3.55399 8.26317 4.19757 7.6 4.90007 7.0385L2.13082 4.2385L3.18482 3.18475L20.8153 20.8153L19.7616 21.8693ZM5.95407 8.09225C5.42574 8.51275 4.91191 9.01825 4.41257 9.60875C3.91324 10.1991 3.50907 10.8295 3.20007 11.5C4.03341 13.1833 5.22924 14.5208 6.78757 15.5125C8.34591 16.5042 10.0834 17 12.0001 17C12.4552 17 12.9085 16.9615 13.3598 16.8845C13.811 16.8077 14.1937 16.7283 14.5078 16.6463L13.2423 15.35C13.0718 15.4192 12.8744 15.4743 12.6501 15.5153C12.4257 15.5564 12.2091 15.577 12.0001 15.577C10.8654 15.577 9.90224 15.1812 9.11058 14.3895C8.31891 13.5978 7.92307 12.6347 7.92307 11.5C7.92307 11.2975 7.94366 11.0857 7.98483 10.8645C8.02583 10.6433 8.08091 10.4411 8.15007 10.2578L5.95407 8.09225Z" fill="black"/>
</svg>
