<svg width="24" height="24" viewBox="0 0 24 24" fill="none" xmlns="http://www.w3.org/2000/svg">
<path d="M10.0771 21.75V15.6922H7.19238L10.1251 8.28849C10.2855 7.90382 10.5339 7.59932 10.8704 7.37499C11.2069 7.15065 11.5835 7.03849 12.0001 7.03849C12.4168 7.03849 12.7934 7.15065 13.1299 7.37499C13.4664 7.59932 13.7148 7.90382 13.8751 8.28849L16.8079 15.6922H13.9231V21.75H10.0771ZM12.0001 5.90374C11.4925 5.90374 11.0579 5.72299 10.6964 5.36149C10.3347 4.99999 10.1539 4.5654 10.1539 4.05774C10.1539 3.55007 10.3347 3.1154 10.6964 2.75374C11.0579 2.39224 11.4925 2.21149 12.0001 2.21149C12.5078 2.21149 12.9424 2.39224 13.3039 2.75374C13.6656 3.1154 13.8464 3.55007 13.8464 4.05774C13.8464 4.5654 13.6656 4.99999 13.3039 5.36149C12.9424 5.72299 12.5078 5.90374 12.0001 5.90374Z" fill="black"/>
</svg>
